<svg width="33" height="35" viewBox="0 0 33 35" fill="none" xmlns="http://www.w3.org/2000/svg">
<path d="M28.9059 28.2293C15.0375 34.8295 6.4306 29.3073 0.921043 25.9532C0.580114 25.7418 0.000653386 26.0026 0.503415 26.5801C2.33892 28.8057 8.35427 34.17 16.206 34.17C24.0632 34.17 28.7375 29.8828 29.3223 29.1349C29.903 28.3934 29.4928 27.9843 28.9058 28.2293H28.9059ZM32.8009 26.0783C32.4284 25.5933 30.5363 25.5029 29.3455 25.6492C28.1528 25.7913 26.3626 26.5202 26.5183 26.9578C26.5981 27.1218 26.7611 27.0482 27.5804 26.9746C28.402 26.8926 30.7035 26.6021 31.1831 27.229C31.6649 27.8603 30.449 30.8674 30.227 31.3523C30.0124 31.8373 30.3089 31.9624 30.7119 31.6394C31.1094 31.3165 31.8289 30.4803 32.3118 29.297C32.7914 28.1073 33.0838 26.4476 32.8007 26.0783H32.8009Z" fill="#FF9900"/>
<path fill-rule="evenodd" clip-rule="evenodd" d="M19.5825 14.7618C19.5825 16.4936 19.6263 17.9378 18.751 19.4758C18.0445 20.7263 16.9253 21.4953 15.675 21.4953C13.9681 21.4953 12.974 20.1948 12.974 18.2755C12.974 14.4866 16.3688 13.799 19.5825 13.799V14.7618ZM24.0652 25.5967C23.7713 25.8592 23.3462 25.878 23.0149 25.7029C21.5394 24.4776 21.2768 23.9086 20.464 22.7394C18.0257 25.2278 16.3002 25.9717 13.1366 25.9717C9.39789 25.9717 6.48438 23.6647 6.48438 19.0444C6.48438 15.4371 8.44139 12.9799 11.2234 11.7796C13.6368 10.7167 17.0067 10.5291 19.5825 10.2354V9.66014C19.5825 8.60348 19.6637 7.3531 19.0448 6.44036C18.5008 5.62131 17.463 5.28368 16.5501 5.28368C14.8559 5.28368 13.3429 6.15267 12.974 7.95325C12.8989 8.35349 12.6052 8.74739 12.205 8.76611L7.89105 8.30354C7.52851 8.2221 7.12841 7.92835 7.22844 7.37182C8.22249 2.14521 12.9427 0.56958 17.169 0.56958C19.3323 0.56958 22.1581 1.14482 23.865 2.78292C26.0283 4.80226 25.8219 7.49688 25.8219 10.4291V17.3564C25.8219 19.4384 26.6847 20.3511 27.4974 21.4765C27.785 21.8766 27.8476 22.3582 27.4849 22.6581C26.5784 23.4146 24.9653 24.8214 24.0776 25.6092L24.0651 25.5967" fill="white"/>
<path d="M28.9059 28.2293C15.0375 34.8295 6.4306 29.3073 0.921043 25.9532C0.580114 25.7418 0.000653386 26.0026 0.503415 26.5801C2.33892 28.8057 8.35427 34.17 16.206 34.17C24.0632 34.17 28.7375 29.8828 29.3223 29.1349C29.903 28.3934 29.4928 27.9843 28.9058 28.2293H28.9059ZM32.8009 26.0783C32.4284 25.5933 30.5363 25.5029 29.3455 25.6492C28.1528 25.7913 26.3626 26.5202 26.5183 26.9578C26.5981 27.1218 26.7611 27.0482 27.5804 26.9746C28.402 26.8926 30.7035 26.6021 31.1831 27.229C31.6649 27.8603 30.449 30.8674 30.227 31.3523C30.0124 31.8373 30.3089 31.9624 30.7119 31.6394C31.1094 31.3165 31.8289 30.4803 32.3118 29.297C32.7914 28.1073 33.0838 26.4476 32.8007 26.0783H32.8009Z" fill="#FF9900"/>
<path fill-rule="evenodd" clip-rule="evenodd" d="M19.5825 14.7618C19.5825 16.4936 19.6263 17.9378 18.751 19.4758C18.0445 20.7263 16.9253 21.4953 15.675 21.4953C13.9681 21.4953 12.974 20.1948 12.974 18.2755C12.974 14.4866 16.3688 13.799 19.5825 13.799V14.7618ZM24.0652 25.5967C23.7713 25.8592 23.3462 25.878 23.0149 25.7029C21.5394 24.4776 21.2768 23.9086 20.464 22.7394C18.0257 25.2278 16.3002 25.9717 13.1366 25.9717C9.39789 25.9717 6.48438 23.6647 6.48438 19.0444C6.48438 15.4371 8.44139 12.9799 11.2234 11.7796C13.6368 10.7167 17.0067 10.5291 19.5825 10.2354V9.66014C19.5825 8.60348 19.6637 7.3531 19.0448 6.44036C18.5008 5.62131 17.463 5.28368 16.5501 5.28368C14.8559 5.28368 13.3429 6.15267 12.974 7.95325C12.8989 8.35349 12.6052 8.74739 12.205 8.76611L7.89105 8.30354C7.52851 8.2221 7.12841 7.92835 7.22844 7.37182C8.22249 2.14521 12.9427 0.56958 17.169 0.56958C19.3323 0.56958 22.1581 1.14482 23.865 2.78292C26.0283 4.80226 25.8219 7.49688 25.8219 10.4291V17.3564C25.8219 19.4384 26.6847 20.3511 27.4974 21.4765C27.785 21.8766 27.8476 22.3582 27.4849 22.6581C26.5784 23.4146 24.9653 24.8214 24.0776 25.6092L24.0651 25.5967" fill="white"/>
</svg>
