<svg width="26" height="27" viewBox="0 0 26 27" fill="none" xmlns="http://www.w3.org/2000/svg">
<g clip-path="url(#clip0_11559_45370)">
<path d="M13 11.4907C15.44 11.4907 17.418 9.51273 17.418 7.07275C17.418 4.63278 15.44 2.65479 13 2.65479C10.56 2.65479 8.58203 4.63278 8.58203 7.07275C8.58203 9.51273 10.56 11.4907 13 11.4907Z" fill="#015EA5"/>
<path d="M21.9375 11.4907C23.48 11.4907 24.7305 10.2403 24.7305 8.69775C24.7305 7.15524 23.48 5.90479 21.9375 5.90479C20.395 5.90479 19.1445 7.15524 19.1445 8.69775C19.1445 10.2403 20.395 11.4907 21.9375 11.4907Z" fill="#00BAEB"/>
<path d="M4.0625 11.4907C5.60501 11.4907 6.85547 10.2403 6.85547 8.69775C6.85547 7.15524 5.60501 5.90479 4.0625 5.90479C2.51999 5.90479 1.26953 7.15524 1.26953 8.69775C1.26953 10.2403 2.51999 11.4907 4.0625 11.4907Z" fill="#D1BCE3"/>
<path d="M6.81434 13.9987C5.71492 13.0979 4.71925 13.2171 3.44805 13.2171C1.5468 13.2171 0 14.7548 0 16.6444V22.1902C0 23.0108 0.669805 23.6781 1.49348 23.6781C5.04948 23.6781 4.62109 23.7424 4.62109 23.5247C4.62109 19.595 4.15563 16.7131 6.81434 13.9987V13.9987Z" fill="#D1BCE3"/>
<path d="M14.2095 13.2377C11.9891 13.0525 10.0592 13.2398 8.39453 14.6138C5.60883 16.8452 6.14492 19.8495 6.14492 23.5249C6.14492 24.4973 6.9361 25.3033 7.92328 25.3033C18.6423 25.3033 19.0689 25.649 19.7045 24.2414C19.913 23.7654 19.8559 23.9167 19.8559 19.3629C19.8559 15.7459 16.724 13.2377 14.2095 13.2377V13.2377Z" fill="#015EA5"/>
<path d="M22.5518 13.217C21.2737 13.217 20.2835 13.099 19.1855 13.9985C21.8244 16.6928 21.3788 19.378 21.3788 23.5246C21.3788 23.7437 21.0232 23.6779 24.4531 23.6779C25.3062 23.6779 25.9999 22.9868 25.9999 22.1372V16.6442C25.9999 14.7547 24.4531 13.217 22.5518 13.217Z" fill="#00BAEB"/>
</g>
<defs>
<clipPath id="clip0_11559_45370">
<rect width="26" height="26" fill="white" transform="translate(0 0.997559)"/>
</clipPath>
</defs>
</svg>
