<svg width="52" height="52" viewBox="0 0 52 52" fill="none" xmlns="http://www.w3.org/2000/svg">
<rect width="52" height="52" rx="8" fill="#F3F6F8"/>
<path d="M15.0126 38.5043H28.2789L26.7152 37.4586C26.354 37.2268 26.0644 36.8993 25.8786 36.5124C25.6956 36.1655 25.5999 35.7792 25.5997 35.387C25.6003 34.9764 25.7025 34.5724 25.8971 34.211C26.0917 33.8495 26.3728 33.5418 26.7152 33.3154L29.484 31.4629C30.8254 30.5667 32.4024 30.0884 34.0156 30.0884C35.6289 30.0884 37.2059 30.5667 38.5473 31.4629L38.7067 31.5724L40.6986 32.897V20.7263H11.0586V34.5404C11.0591 35.5898 11.4755 36.5963 12.2166 37.3393C12.9577 38.0823 13.9632 38.5012 15.0126 38.5043Z" fill="#015EA5"/>
<path d="M40.6986 16.7723C40.6975 15.7213 40.2796 14.7137 39.5364 13.9705C38.7933 13.2274 37.7856 12.8094 36.7346 12.8083H15.0126C13.9632 12.8115 12.9578 13.2304 12.2166 13.9734C11.4755 14.7164 11.0591 15.7229 11.0586 16.7723V18.7344H40.6986V16.7723ZM16.0882 17.1209C15.8937 17.1189 15.704 17.0594 15.5432 16.9499C15.3823 16.8404 15.2575 16.6857 15.1844 16.5054C15.1113 16.325 15.0932 16.1271 15.1324 15.9365C15.1715 15.7459 15.2662 15.5711 15.4045 15.4342C15.5428 15.2973 15.7185 15.2044 15.9095 15.1672C16.1005 15.1299 16.2982 15.15 16.4778 15.2249C16.6574 15.2998 16.8108 15.4262 16.9187 15.5881C17.0266 15.7501 17.0842 15.9403 17.0842 16.1349C17.0839 16.2651 17.0579 16.394 17.0076 16.5142C16.9573 16.6343 16.8838 16.7433 16.7912 16.835C16.6987 16.9266 16.5889 16.999 16.4683 17.0481C16.3476 17.0972 16.2185 17.1219 16.0882 17.1209ZM19.7235 17.1209C19.5285 17.1209 19.3379 17.0631 19.1757 16.9547C19.0136 16.8464 18.8872 16.6924 18.8126 16.5122C18.7379 16.332 18.7184 16.1338 18.7565 15.9425C18.7945 15.7513 18.8884 15.5756 19.0263 15.4377C19.1642 15.2998 19.3399 15.2059 19.5312 15.1678C19.7224 15.1298 19.9207 15.1493 20.1008 15.2239C20.281 15.2986 20.435 15.4249 20.5433 15.5871C20.6517 15.7492 20.7095 15.9399 20.7095 16.1349C20.7101 16.2645 20.6849 16.393 20.6356 16.5129C20.5862 16.6327 20.5136 16.7416 20.4219 16.8333C20.3303 16.925 20.2214 16.9976 20.1015 17.0469C19.9816 17.0963 19.8531 17.1214 19.7235 17.1209Z" fill="#00BAEB"/>
<path d="M40.4896 34.5604L37.7208 32.7079C36.6251 31.9773 35.3377 31.5874 34.0207 31.5874C32.7038 31.5874 31.4164 31.9773 30.3207 32.7079L27.542 34.5604C27.4044 34.65 27.2913 34.7725 27.213 34.9168C27.1347 35.0612 27.0938 35.2228 27.0938 35.387C27.0938 35.5512 27.1347 35.7128 27.213 35.8572C27.2913 36.0016 27.4044 36.1241 27.542 36.2137L30.3207 38.0662C31.4152 38.7999 32.7031 39.1916 34.0207 39.1916C35.3384 39.1916 36.6263 38.7999 37.7208 38.0662L40.4896 36.2137C40.6272 36.1241 40.7402 36.0016 40.8185 35.8572C40.8968 35.7128 40.9378 35.5512 40.9378 35.387C40.9378 35.2228 40.8968 35.0612 40.8185 34.9168C40.7402 34.7725 40.6272 34.65 40.4896 34.5604ZM34.0158 36.9507C33.7079 36.9497 33.4072 36.8576 33.1517 36.6859C32.8961 36.5143 32.6971 36.2708 32.5798 35.9862C32.4624 35.7016 32.432 35.3886 32.4923 35.0867C32.5526 34.7848 32.7009 34.5075 32.9186 34.2898C33.1363 34.0722 33.4136 33.9238 33.7154 33.8635C34.0173 33.8032 34.3303 33.8337 34.6149 33.951C34.8995 34.0684 35.143 34.2674 35.3147 34.5229C35.4863 34.7785 35.5784 35.0792 35.5794 35.387C35.5802 35.5926 35.5403 35.7963 35.462 35.9863C35.3837 36.1764 35.2685 36.3491 35.1232 36.4944C34.9778 36.6398 34.8051 36.7549 34.6151 36.8332C34.425 36.9115 34.2213 36.9515 34.0158 36.9507Z" fill="#D1BCE3"/>
</svg>
