<svg width="52" height="52" viewBox="0 0 52 52" fill="none" xmlns="http://www.w3.org/2000/svg">
<rect width="52" height="52" rx="8" fill="#F3F6F8"/>
<path d="M13.5 22.25H36C37.3782 22.25 38.5 21.1288 38.5 19.75V16C38.5 14.6212 37.3782 13.4999 36 13.4999H13.5C12.1218 13.5 11 14.6212 11 16V19.75C11 21.1288 12.1218 22.25 13.5 22.25ZM33.5 16.625C34.1897 16.625 34.75 17.1859 34.75 17.875C34.75 18.564 34.1896 19.1249 33.5 19.1249C32.8103 19.1249 32.25 18.564 32.25 17.875C32.25 17.1859 32.8103 16.625 33.5 16.625ZM29.75 16.625C30.4397 16.625 31 17.1859 31 17.875C31 18.564 30.4396 19.1249 29.75 19.1249C29.0604 19.1249 28.5 18.564 28.5 17.875C28.5 17.1859 29.0603 16.625 29.75 16.625ZM19.75 16.625C19.75 16.2795 20.0295 16 20.375 16C20.7205 16 21 16.2795 21 16.625V19.125C21 19.4705 20.7205 19.75 20.375 19.75C20.0295 19.75 19.75 19.4705 19.75 19.125V16.625ZM17.25 16.625C17.25 16.2795 17.5296 16 17.875 16C18.2204 16 18.5 16.2795 18.5 16.625V19.125C18.5 19.4705 18.2204 19.75 17.875 19.75C17.5295 19.75 17.25 19.4705 17.25 19.125V16.625H17.25ZM14.75 16.625C14.75 16.2795 15.0296 16 15.375 16C15.7205 16 16 16.2795 16 16.625V19.125C16 19.4705 15.7205 19.75 15.375 19.75C15.0296 19.75 14.75 19.4705 14.75 19.125V16.625Z" fill="#015EA5"/>
<path d="M29.9563 24.6609C30.198 24.5162 30.3127 24.2288 30.2371 23.9583C30.1626 23.6874 29.9161 23.5 29.6353 23.5H13.5C12.1218 23.5 11 24.6212 11 26V29.75C11 31.1288 12.1218 32.25 13.5 32.25H25.375C25.7205 32.25 26.0001 31.9705 26.0001 31.625C26 28.7508 27.4795 26.1477 29.9563 24.6609ZM16 29.125C16 29.4704 15.7204 29.75 15.375 29.75C15.0296 29.75 14.75 29.4704 14.75 29.125V26.6249C14.75 26.2795 15.0296 26 15.375 26C15.7205 26 16 26.2795 16 26.625V29.125H16ZM18.5 29.125C18.5 29.4704 18.2204 29.75 17.875 29.75C17.5295 29.75 17.25 29.4704 17.25 29.125V26.6249C17.25 26.2795 17.5295 25.9999 17.875 25.9999C18.2204 25.9999 18.5 26.2795 18.5 26.6249V29.125ZM21 29.125C21 29.4704 20.7205 29.75 20.375 29.75C20.0295 29.75 19.75 29.4704 19.75 29.125V26.6249C19.75 26.2795 20.0295 25.9999 20.375 25.9999C20.7205 25.9999 21 26.2795 21 26.6249V29.125Z" fill="#00BAEB"/>
<path d="M34.125 24.75C30.3347 24.75 27.25 27.8341 27.25 31.625C27.25 35.4159 30.3347 38.5 34.125 38.5C37.9152 38.5 41 35.4159 41 31.625C41 27.8341 37.9152 24.75 34.125 24.75ZM30.3756 32.25L30.3755 32.2499L30.375 32.25C30.0295 32.25 29.75 31.9704 29.75 31.625C29.75 29.2129 31.7129 27.25 34.125 27.25C35.5807 27.25 36.9369 27.9708 37.7523 29.1787C37.9458 29.4643 37.8707 29.8531 37.5844 30.046C37.2994 30.2401 36.9094 30.1638 36.7171 29.8781C36.1336 29.0151 35.165 28.4999 34.1249 28.4999C33.2327 28.4999 32.432 28.8804 31.862 29.4821L32.5295 29.8159C32.7285 29.9154 32.8596 30.1137 32.8737 30.3359C32.8878 30.5587 32.7821 30.7717 32.5966 30.895L30.7216 32.145C30.7102 32.1526 30.6964 32.1495 30.6847 32.1562C30.5926 32.2102 30.4913 32.2492 30.3768 32.2496C30.3768 32.2496 30.376 32.25 30.3756 32.25ZM34.125 36C32.6693 36 31.3131 35.2792 30.4977 34.0713C30.3042 33.7856 30.3793 33.3969 30.6655 33.204C30.95 33.0105 31.34 33.0855 31.5329 33.3718C32.1163 34.2349 33.085 34.75 34.125 34.75C35.0172 34.75 35.818 34.3695 36.388 33.7679L35.7205 33.4341C35.5215 33.3346 35.3903 33.1362 35.3763 32.914C35.3622 32.6913 35.4678 32.4782 35.6533 32.3549L37.5283 31.105C37.5428 31.0953 37.5479 31.1035 37.5607 31.0969C37.6544 31.0409 37.7579 31 37.875 31C38.2205 31 38.5001 31.2795 38.5001 31.625C38.4999 34.0371 36.5371 36 34.125 36Z" fill="#D1BCE3"/>
</svg>
