<svg width="52" height="52" viewBox="0 0 52 52" fill="none" xmlns="http://www.w3.org/2000/svg">
<rect width="52" height="52" rx="8" fill="#F3F6F8"/>
<path d="M10.0625 40.4537H41.1778V41.9354H10.0625V40.4537Z" fill="#D1BCE3"/>
<path d="M23.3984 27.8595H29.3252V39.7129H23.3984V27.8595Z" fill="#015EA5"/>
<path d="M32.2891 20.451H38.2158V39.7129H32.2891V20.451Z" fill="#015EA5"/>
<path d="M14.5078 33.7861H20.4345V39.7129H14.5078V33.7861Z" fill="#015EA5"/>
<path d="M14.6207 27.1186L14.3984 25.6369C14.5466 25.6369 28.8967 23.3181 34.5789 11.235L35.9273 11.8721C29.8968 24.6812 15.2504 27.0149 14.6207 27.1186Z" fill="#00BAEB"/>
<path d="M36.0372 15.2133L35.0741 11.9017L31.7551 12.8648L31.3477 11.4424L36.0816 10.0645L37.4596 14.7984L36.0372 15.2133Z" fill="#00BAEB"/>
</svg>
