<svg width="52" height="52" viewBox="0 0 52 52" fill="none" xmlns="http://www.w3.org/2000/svg">
<rect width="52" height="52" rx="8" fill="#F3F6F8"/>
<g clip-path="url(#clip0_12336_83548)">
<path fill-rule="evenodd" clip-rule="evenodd" d="M39.1821 38.7987H12.8139C12.3484 38.7981 11.9022 38.6128 11.5731 38.2837C11.244 37.9545 11.0589 37.5082 11.0585 37.0427V20.9765H40.9375V37.0427C40.9369 37.5082 40.7518 37.9544 40.4228 38.2835C40.0937 38.6127 39.6475 38.798 39.1821 38.7987ZM29.6569 16.5912C29.6574 17.012 29.8248 17.4155 30.1224 17.713C30.4199 18.0106 30.8234 18.178 31.2442 18.1785H37.9048C38.3258 18.1785 38.7295 18.0113 39.0272 17.7136C39.3249 17.4159 39.4921 17.0121 39.4921 16.5912C39.4921 16.1702 39.3249 15.7664 39.0272 15.4688C38.7295 15.1711 38.3258 15.0038 37.9048 15.0038H31.2442C30.8234 15.0044 30.42 15.1718 30.1224 15.4693C29.8249 15.7669 29.6574 16.1703 29.6569 16.5912ZM31.2442 17.1825C31.0874 17.1825 30.937 17.1202 30.8261 17.0093C30.7152 16.8984 30.6529 16.748 30.6529 16.5912C30.6529 16.4343 30.7152 16.2839 30.8261 16.173C30.937 16.0621 31.0874 15.9998 31.2442 15.9998H37.9048C38.0616 15.9998 38.212 16.0621 38.3229 16.173C38.4338 16.2839 38.4961 16.4343 38.4961 16.5912C38.4961 16.748 38.4338 16.8984 38.3229 17.0093C38.212 17.1202 38.0616 17.1825 37.9048 17.1825H31.2442ZM20.845 16.5912C20.845 16.9051 20.9381 17.212 21.1125 17.473C21.2869 17.7341 21.5348 17.9375 21.8249 18.0577C22.1149 18.1778 22.4341 18.2092 22.742 18.148C23.0499 18.0867 23.3327 17.9356 23.5547 17.7136C23.7767 17.4916 23.9279 17.2087 23.9891 16.9008C24.0504 16.5929 24.0189 16.2738 23.8988 15.9837C23.7786 15.6937 23.5752 15.4458 23.3142 15.2714C23.0531 15.0969 22.7462 15.0038 22.4323 15.0038C22.0115 15.0043 21.608 15.1717 21.3104 15.4693C21.0129 15.7669 20.8455 16.1703 20.845 16.5912ZM22.4323 17.1825C22.3153 17.1825 22.201 17.1478 22.1038 17.0829C22.0065 17.0179 21.9307 16.9255 21.886 16.8175C21.8412 16.7094 21.8295 16.5905 21.8523 16.4758C21.8751 16.3611 21.9314 16.2557 22.0141 16.173C22.0968 16.0903 22.2022 16.034 22.3169 16.0112C22.4316 15.9884 22.5505 16.0001 22.6586 16.0448C22.7667 16.0896 22.859 16.1654 22.924 16.2626C22.989 16.3599 23.0237 16.4742 23.0237 16.5912C23.0234 16.7479 22.961 16.8982 22.8502 17.0091C22.7393 17.1199 22.5891 17.1823 22.4323 17.1825ZM16.6744 16.5912C16.6744 16.9051 16.7675 17.212 16.9419 17.473C17.1163 17.7341 17.3642 17.9375 17.6542 18.0577C17.9443 18.1778 18.2634 18.2092 18.5714 18.148C18.8793 18.0867 19.1621 17.9356 19.3841 17.7136C19.6061 17.4916 19.7573 17.2087 19.8185 16.9008C19.8798 16.5929 19.8483 16.2738 19.7282 15.9837C19.608 15.6937 19.4046 15.4458 19.1435 15.2714C18.8825 15.0969 18.5756 15.0038 18.2617 15.0038C17.8408 15.0043 17.4374 15.1717 17.1398 15.4693C16.8422 15.7669 16.6748 16.1703 16.6744 16.5912ZM18.2617 17.1825C18.1447 17.1826 18.0303 17.148 17.9331 17.083C17.8358 17.0181 17.7599 16.9257 17.7151 16.8177C17.6703 16.7096 17.6586 16.5907 17.6813 16.476C17.7041 16.3613 17.7604 16.2559 17.8431 16.1731C17.9258 16.0904 18.0312 16.034 18.1459 16.0112C18.2606 15.9883 18.3795 16 18.4876 16.0448C18.5957 16.0895 18.688 16.1653 18.753 16.2626C18.818 16.3598 18.8527 16.4742 18.8527 16.5912C18.8525 16.7479 18.7902 16.8981 18.6794 17.0089C18.5686 17.1198 18.4184 17.1822 18.2617 17.1825ZM14.0911 18.1785C14.405 18.1785 14.7119 18.0854 14.9729 17.911C15.234 17.7366 15.4374 17.4887 15.5576 17.1986C15.6777 16.9086 15.7091 16.5894 15.6479 16.2815C15.5866 15.9736 15.4355 15.6907 15.2135 15.4688C14.9915 15.2468 14.7086 15.0956 14.4007 15.0343C14.0928 14.9731 13.7737 15.0045 13.4836 15.1247C13.1936 15.2448 12.9457 15.4483 12.7713 15.7093C12.5968 15.9703 12.5037 16.2772 12.5037 16.5912C12.5042 17.012 12.6716 17.4155 12.9692 17.713C13.2668 18.0106 13.6702 18.178 14.0911 18.1785ZM14.6824 16.5912C14.6824 16.7081 14.6477 16.8225 14.5828 16.9197C14.5178 17.017 14.4254 17.0927 14.3174 17.1375C14.2093 17.1823 14.0904 17.194 13.9757 17.1712C13.861 17.1483 13.7556 17.092 13.6729 17.0093C13.5902 16.9266 13.5339 16.8212 13.5111 16.7065C13.4883 16.5918 13.5 16.4729 13.5447 16.3649C13.5895 16.2568 13.6653 16.1644 13.7625 16.0995C13.8598 16.0345 13.9741 15.9998 14.0911 15.9998C14.2478 16.0001 14.3981 16.0624 14.5089 16.1733C14.6198 16.2841 14.6822 16.4344 14.6824 16.5912ZM39.1821 12.2052H12.8139C12.0843 12.2061 11.385 12.4963 10.8692 13.0123C10.3534 13.5282 10.0633 14.2276 10.0625 14.9572V37.0427C10.0633 37.7723 10.3534 38.4717 10.8692 38.9876C11.385 39.5035 12.0843 39.7938 12.8139 39.7947H39.1821C39.9116 39.7938 40.611 39.5035 41.1268 38.9876C41.6426 38.4717 41.9327 37.7723 41.9335 37.0427V14.9572C41.9327 14.2276 41.6426 13.5282 41.1268 13.0123C40.611 12.4963 39.9116 12.2061 39.1821 12.2052Z" fill="#015EA5"/>
<path fill-rule="evenodd" clip-rule="evenodd" d="M25.2417 27.2972V32.9376C25.2417 33.0696 25.2942 33.1963 25.3876 33.2897C25.481 33.3831 25.6076 33.4356 25.7397 33.4356C25.8718 33.4356 25.9984 33.3831 26.0918 33.2897C26.1852 33.1963 26.2377 33.0696 26.2377 32.9376V27.2972C26.2377 27.1651 26.1852 27.0385 26.0918 26.9451C25.9984 26.8517 25.8718 26.7992 25.7397 26.7992C25.6076 26.7992 25.481 26.8517 25.3876 26.9451C25.2942 27.0385 25.2417 27.1651 25.2417 27.2972ZM25.7397 34.0823C25.6412 34.0823 25.5449 34.1115 25.463 34.1662C25.3811 34.2209 25.3173 34.2987 25.2796 34.3897C25.2419 34.4807 25.2321 34.5808 25.2513 34.6774C25.2705 34.774 25.3179 34.8627 25.3876 34.9324C25.4572 35.002 25.5459 35.0494 25.6425 35.0686C25.7391 35.0879 25.8393 35.078 25.9303 35.0403C26.0213 35.0026 26.099 34.9388 26.1538 34.8569C26.2085 34.775 26.2377 34.6787 26.2377 34.5802C26.2377 34.4482 26.1852 34.3215 26.0918 34.2281C25.9984 34.1347 25.8718 34.0823 25.7397 34.0823ZM27.0475 23.3994C26.915 23.1698 26.7243 22.9792 26.4947 22.8467C26.2652 22.7142 26.0048 22.6444 25.7397 22.6444C25.4746 22.6444 25.2142 22.7142 24.9846 22.8467C24.7551 22.9792 24.5644 23.1698 24.4319 23.3994L17.8117 34.8655C17.6791 35.095 17.6094 35.3555 17.6094 35.6206C17.6094 35.8856 17.6792 36.1461 17.8117 36.3756C17.9442 36.6052 18.1349 36.7959 18.3644 36.9284C18.594 37.061 18.8544 37.1308 19.1195 37.1308H32.3596C32.6247 37.1308 32.8851 37.061 33.1147 36.9284C33.3443 36.7959 33.5349 36.6052 33.6674 36.3756C33.8 36.1461 33.8698 35.8856 33.8698 35.6206C33.8698 35.3555 33.8 35.095 33.6675 34.8655L27.0475 23.3994Z" fill="#00BAEB"/>
</g>
<defs>
<clipPath id="clip0_12336_83548">
<rect width="31.871" height="31.871" fill="white" transform="translate(10.0625 10.0645)"/>
</clipPath>
</defs>
</svg>
