<svg width="52" height="52" viewBox="0 0 52 52" fill="none" xmlns="http://www.w3.org/2000/svg">
<rect width="52" height="52" rx="8" fill="#F3F6F8"/>
<g clip-path="url(#clip0_12336_83587)">
<path d="M24.1856 34.9604C22.9431 36.1086 21.2246 36.3657 19.7004 35.6318C19.1494 35.3664 18.6844 35.0001 18.3204 34.5612L16.245 39.1516C16.1506 39.3605 16.256 39.5179 16.3057 39.5758C16.3554 39.6337 16.4949 39.7619 16.7156 39.7005L18.2265 39.28C18.3986 39.2321 18.5727 39.209 18.7443 39.209C19.4683 39.209 20.1497 39.6188 20.4779 40.2979L21.1602 41.71C21.2599 41.9163 21.4468 41.9369 21.5246 41.9354C21.6009 41.9344 21.7887 41.9096 21.883 41.7007L25.1842 34.3988C24.8215 34.5032 24.478 34.6901 24.1856 34.9604Z" fill="#00BAEB"/>
<path d="M35.748 39.1516L33.6726 34.5612C33.3085 35.0001 32.8435 35.3665 32.2925 35.6318C30.7682 36.3657 29.0498 36.1086 27.8074 34.9604C27.5149 34.6901 27.1714 34.5032 26.8086 34.3988L30.1098 41.7007C30.2042 41.9096 30.392 41.9344 30.4682 41.9354C30.546 41.9369 30.733 41.9163 30.8326 41.71L31.515 40.2979C31.843 39.6188 32.5245 39.209 33.2485 39.209C33.4201 39.209 33.5942 39.2321 33.7664 39.28L35.2772 39.7005C35.498 39.762 35.6375 39.6338 35.6871 39.5758C35.7369 39.5178 35.8424 39.3604 35.748 39.1516Z" fill="#00BAEB"/>
<path d="M37.3779 22.999C35.6543 21.8188 35.1195 19.4755 36.1604 17.6642C36.786 16.5755 36.4604 15.4996 35.9471 14.8557C35.4336 14.2121 34.4571 13.6553 33.2565 14.0229C31.2593 14.6346 29.0936 13.5918 28.3264 11.6487C27.8653 10.4806 26.8211 10.0645 25.9977 10.0645C25.1744 10.0645 24.1301 10.4806 23.669 11.6487C22.9019 13.5919 20.7363 14.6346 18.7389 14.0229C17.5382 13.6554 16.5618 14.2121 16.0484 14.8558C15.535 15.4996 15.2094 16.5754 15.835 17.6643C16.876 19.4755 16.3411 21.8189 14.6175 22.9991C13.5813 23.7087 13.4079 24.8192 13.5911 25.622C13.7742 26.4247 14.4124 27.35 15.6538 27.5397C17.7188 27.8552 19.2173 29.7343 19.0655 31.8178C18.9741 33.0703 19.7344 33.8983 20.4762 34.2556C21.2181 34.6129 22.3394 34.6911 23.2617 33.8387C24.0287 33.1299 25.0134 32.7753 25.9976 32.7753C26.9823 32.7753 27.9664 33.1297 28.7336 33.8387C29.656 34.6911 30.7774 34.6129 31.5192 34.2556C32.261 33.8984 33.0211 33.0704 32.9298 31.8179C32.778 29.7344 34.2766 27.8552 36.3416 27.5397C37.583 27.35 38.221 26.4247 38.4043 25.622C38.5875 24.8191 38.414 23.7085 37.3779 22.999ZM25.9977 30.975C21.4801 30.975 17.8047 27.2996 17.8047 22.782C17.8047 18.2643 21.48 14.5889 25.9977 14.5889C30.5154 14.5889 34.1907 18.2643 34.1907 22.7819C34.1907 27.2995 30.5154 30.975 25.9977 30.975Z" fill="#015EA5"/>
<path d="M25.9975 16.1165C22.3221 16.1165 19.332 19.1066 19.332 22.7819C19.332 26.4572 22.3221 29.4474 25.9975 29.4474C29.6729 29.4474 32.6629 26.4572 32.6629 22.7819C32.6629 19.1066 29.6729 16.1165 25.9975 16.1165ZM29.4133 22.1356L25.265 25.1656C25.1334 25.2617 24.9754 25.3126 24.8145 25.3126C24.7731 25.3126 24.7314 25.3092 24.69 25.3024C24.4877 25.269 24.3073 25.1556 24.1894 24.9878L22.9486 23.2211C22.7061 22.8758 22.7895 22.3994 23.1346 22.1569C23.4799 21.9145 23.9562 21.9978 24.1987 22.343L24.9924 23.473L28.5124 20.9021C28.853 20.6534 29.3309 20.7276 29.5797 21.0683C29.8285 21.409 29.754 21.8868 29.4133 22.1356Z" fill="#D1BCE3"/>
</g>
<defs>
<clipPath id="clip0_12336_83587">
<rect width="31.871" height="31.871" fill="white" transform="translate(10.0625 10.0645)"/>
</clipPath>
</defs>
</svg>
