<svg width="52" height="52" viewBox="0 0 52 52" fill="none" xmlns="http://www.w3.org/2000/svg">
<rect width="52" height="52" rx="8" fill="#F3F6F8"/>
<g clip-path="url(#clip0_11940_84386)">
<path d="M25.9985 10.0645L14.0469 14.6174V25.9999C14.0469 35.1059 18.8276 38.5207 25.9985 41.9354C33.1694 38.5207 37.9501 35.1059 37.9501 25.9999V14.6174L25.9985 10.0645ZM33.9662 25.9999C33.9662 32.1644 31.4997 34.6719 25.9985 37.4925C20.4973 34.6718 18.0307 32.1644 18.0307 25.9999V17.365L25.9985 14.3285L33.9662 17.365V25.9999Z" fill="#015EA5"/>
<path d="M25.9961 26H31.9719V18.7374L25.9961 16.4604V26Z" fill="#00BAEB"/>
<path d="M25.9992 35.2399V26H20.0234C20.0234 30.5752 21.3355 32.6946 25.9992 35.2399Z" fill="#D1BCE3"/>
</g>
<defs>
<clipPath id="clip0_11940_84386">
<rect width="31.871" height="31.871" fill="white" transform="translate(10.0625 10.0645)"/>
</clipPath>
</defs>
</svg>
