<svg width="82" height="49" viewBox="0 0 82 49" fill="none" xmlns="http://www.w3.org/2000/svg">
<path d="M23.0864 17.7959C23.0864 18.8042 23.1954 19.6218 23.3862 20.2214C23.6042 20.8209 23.8767 21.475 24.2582 22.1835C24.3945 22.4016 24.449 22.6196 24.449 22.8103C24.449 23.0829 24.2855 23.3554 23.9312 23.6279L22.2143 24.7725C21.969 24.936 21.7237 25.0178 21.5057 25.0178C21.2332 25.0178 20.9607 24.8815 20.6882 24.6363C20.3066 24.2275 19.9796 23.7914 19.7071 23.3554C19.4345 22.8921 19.162 22.3743 18.8622 21.7475C16.7365 24.2547 14.0658 25.5083 10.85 25.5083C8.56079 25.5083 6.73487 24.8543 5.3995 23.5462C4.06413 22.238 3.38281 20.4939 3.38281 18.3137C3.38281 15.9972 4.20039 14.1168 5.86279 12.6997C7.52519 11.2825 9.73265 10.574 12.5397 10.574C13.4662 10.574 14.4201 10.6557 15.4284 10.792C16.4368 10.9283 17.4724 11.1463 18.5625 11.3915V9.40211C18.5625 7.33092 18.1264 5.88654 17.2816 5.04171C16.4095 4.19689 14.9379 3.7881 12.8394 3.7881C11.8856 3.7881 10.9045 3.89711 9.89616 4.14238C8.88782 4.38765 7.90673 4.68743 6.95289 5.06897C6.51685 5.25973 6.18982 5.36874 5.99905 5.42325C5.80829 5.47775 5.67202 5.50501 5.56301 5.50501C5.18148 5.50501 4.99071 5.23248 4.99071 4.66018V3.32481C4.99071 2.88877 5.04522 2.56174 5.18148 2.37097C5.31774 2.1802 5.56301 1.98943 5.94455 1.79867C6.89839 1.30812 8.04299 0.899333 9.37836 0.572303C10.7137 0.21802 12.1309 0.054505 13.6298 0.054505C16.8728 0.054505 19.2438 0.790322 20.7699 2.26196C22.2688 3.73359 23.0319 5.9683 23.0319 8.96607V17.7959H23.0864ZM12.0219 21.9383C12.9212 21.9383 13.8478 21.7748 14.8289 21.4477C15.81 21.1207 16.682 20.5211 17.4179 19.7036C17.8539 19.1858 18.1809 18.6135 18.3444 17.9594C18.508 17.3053 18.617 16.515 18.617 15.5884V14.4438C17.8266 14.2531 16.9818 14.0895 16.1097 13.9805C15.2377 13.8715 14.3928 13.817 13.548 13.817C11.7221 13.817 10.3867 14.1713 9.48737 14.9071C8.58804 15.6429 8.152 16.6785 8.152 18.0412C8.152 19.322 8.47903 20.2759 9.16034 20.9299C9.8144 21.6112 10.7682 21.9383 12.0219 21.9383ZM33.9056 24.8815C33.4151 24.8815 33.088 24.7998 32.87 24.609C32.652 24.4455 32.4612 24.064 32.2977 23.5462L25.8934 2.47998C25.7299 1.93493 25.6481 1.58065 25.6481 1.38988C25.6481 0.953838 25.8661 0.708565 26.3022 0.708565H28.9729C29.4907 0.708565 29.845 0.790323 30.0358 0.98109C30.2538 1.14461 30.4173 1.52614 30.5808 2.04394L35.1592 20.0851L39.4106 2.04394C39.5469 1.49889 39.7104 1.14461 39.9284 0.98109C40.1464 0.817575 40.528 0.708565 41.0185 0.708565H43.1987C43.7165 0.708565 44.0708 0.790323 44.2888 0.98109C44.5068 1.14461 44.6976 1.52614 44.8066 2.04394L49.1125 20.3031L53.8272 2.04394C53.9907 1.49889 54.1815 1.14461 54.3722 0.98109C54.5903 0.817575 54.9445 0.708565 55.4351 0.708565H57.9696C58.4056 0.708565 58.6509 0.926585 58.6509 1.38988C58.6509 1.52614 58.6236 1.6624 58.5964 1.82592C58.5691 1.98943 58.5146 2.20745 58.4056 2.50723L51.8378 23.5734C51.6742 24.1185 51.4835 24.4727 51.2655 24.6363C51.0474 24.7998 50.6932 24.9088 50.2299 24.9088H47.8862C47.3684 24.9088 47.0141 24.827 46.796 24.6363C46.578 24.4455 46.3873 24.0912 46.2783 23.5462L42.0541 5.9683L37.8572 23.5189C37.721 24.064 37.5575 24.4182 37.3394 24.609C37.1214 24.7998 36.7399 24.8815 36.2493 24.8815H33.9056ZM68.9251 25.6174C67.508 25.6174 66.0908 25.4538 64.7282 25.1268C63.3656 24.7998 62.3027 24.4455 61.5942 24.0367C61.1581 23.7914 60.8583 23.5189 60.7493 23.2736C60.6403 23.0284 60.5858 22.7558 60.5858 22.5106V21.1207C60.5858 20.5484 60.8038 20.2759 61.2126 20.2759C61.3761 20.2759 61.5397 20.3031 61.7032 20.3576C61.8667 20.4121 62.112 20.5211 62.3845 20.6301C63.3111 21.0389 64.3194 21.366 65.3823 21.584C66.4724 21.802 67.5352 21.911 68.6253 21.911C70.3422 21.911 71.6776 21.6112 72.6042 21.0117C73.5308 20.4121 74.0213 19.54 74.0213 18.4227C74.0213 17.6596 73.776 17.0328 73.2855 16.515C72.7949 15.9972 71.8684 15.5339 70.533 15.0979L66.5814 13.8715C64.5919 13.2447 63.1203 12.3181 62.221 11.0918C61.3216 9.89266 60.8583 8.55729 60.8583 7.14016C60.8583 5.99555 61.1036 4.98721 61.5942 4.11513C62.0847 3.24305 62.7388 2.47998 63.5563 1.88042C64.3739 1.25362 65.3005 0.790323 66.3906 0.463293C67.4807 0.136262 68.6253 0 69.8244 0C70.424 0 71.0508 0.0272525 71.6503 0.10901C72.2771 0.190768 72.8494 0.299778 73.4217 0.408788C73.9668 0.54505 74.4846 0.681313 74.9751 0.844828C75.4657 1.00834 75.8472 1.17186 76.1197 1.33537C76.5013 1.55339 76.7738 1.77141 76.9373 2.01669C77.1008 2.23471 77.1826 2.53448 77.1826 2.91602V4.19689C77.1826 4.76919 76.9646 5.06897 76.5558 5.06897C76.3378 5.06897 75.9835 4.95996 75.5202 4.74194C73.9668 4.03337 72.2226 3.67909 70.2877 3.67909C68.7343 3.67909 67.508 3.92436 66.6631 4.44216C65.8183 4.95996 65.3823 5.75028 65.3823 6.86763C65.3823 7.6307 65.6548 8.28476 66.1998 8.80256C66.7449 9.32036 67.7532 9.83815 69.1976 10.3014L73.0675 11.5278C75.0296 12.1546 76.4468 13.0267 77.2916 14.144C78.1364 15.2614 78.5452 16.5423 78.5452 17.9594C78.5452 19.1313 78.2999 20.1941 77.8366 21.1207C77.3461 22.0473 76.692 22.8649 75.8472 23.5189C75.0024 24.2002 73.994 24.6908 72.8222 25.0451C71.5958 25.4266 70.315 25.6174 68.9251 25.6174Z" fill="#252F3E"/>
<path fill-rule="evenodd" clip-rule="evenodd" d="M74.081 38.8618C65.115 45.4842 52.0883 48.9998 40.8875 48.9998C25.19 48.9998 11.046 43.195 0.363008 33.5476C-0.48182 32.7845 0.28125 31.7489 1.28959 32.3485C12.8447 39.0526 27.0977 43.1132 41.8413 43.1132C51.7885 43.1132 62.7167 41.042 72.7729 36.7907C74.2718 36.1093 75.5527 37.7717 74.081 38.8618Z" fill="#FF9900"/>
<path fill-rule="evenodd" clip-rule="evenodd" d="M77.8098 34.6106C76.6652 33.139 70.2336 33.902 67.3176 34.2563C66.4455 34.3653 66.3092 33.6022 67.0996 33.0299C72.223 29.4326 80.6441 30.4682 81.6252 31.6673C82.6062 32.8937 81.3526 41.3147 76.5562 45.3481C75.8204 45.9749 75.1118 45.6479 75.4388 44.8303C76.5289 42.1323 78.9544 36.055 77.8098 34.6106Z" fill="#FF9900"/>
</svg>
