<svg width="176" height="236" viewBox="0 0 176 236" fill="none" xmlns="http://www.w3.org/2000/svg">
<g opacity="0.05" clip-path="url(#clip0_11969_72962)">
<path d="M87.77 114.85V108.94C87.77 76.28 49.59 49.81 2.5 49.81V173.98C2.5 206.64 40.68 233.11 87.77 233.11" stroke="#002448" stroke-width="5" stroke-miterlimit="10"/>
<path d="M87.77 114.85V108.94C87.77 76.28 49.59 49.81 2.5 49.81V114.85C49.59 114.85 87.77 141.32 87.77 173.98V179.89" stroke="#002448" stroke-width="5" stroke-miterlimit="10"/>
<path d="M173.029 2.5C125.939 2.5 87.7589 28.97 87.7589 61.63V108.93V114.84V173.97C87.7589 195.85 70.6089 214.95 45.1289 225.17C57.6689 230.2 72.2289 233.1 87.7589 233.1C134.849 233.1 173.029 206.63 173.029 173.97V2.5Z" stroke="#002448" stroke-width="5" stroke-miterlimit="10"/>
</g>
<defs>
<clipPath id="clip0_11969_72962">
<rect width="175.53" height="235.61" fill="white"/>
</clipPath>
</defs>
</svg>
