<svg width="52" height="52" viewBox="0 0 52 52" fill="none" xmlns="http://www.w3.org/2000/svg">
<rect width="52" height="52" rx="16" fill="url(#paint0_linear_11705_56908)"/>
<path d="M10.8672 22.1939C10.8672 25.2207 12.0435 28.0682 14.188 30.2056C16.3971 32.4147 19.2948 33.5192 22.1997 33.5192C24.9252 33.5192 27.6435 32.5438 29.7953 30.6001L31.2082 32.013C30.9572 32.4147 30.8209 32.8809 30.8209 33.3686C30.8209 34.05 31.0863 34.6955 31.574 35.1761L36.645 40.247C37.1255 40.7275 37.771 41.0001 38.4524 41.0001C39.1338 41.0001 39.7793 40.7347 40.2599 40.247C40.7404 39.7664 41.013 39.1209 41.013 38.4395C41.013 37.7582 40.7476 37.1126 40.2599 36.6321L35.189 31.5683C34.7084 31.0878 34.0629 30.8152 33.3815 30.8152C32.8938 30.8152 32.4276 30.9515 32.0259 31.2025L30.6129 29.7896C34.6295 25.3498 34.5004 18.4643 30.2184 14.1823C28.0667 12.0449 25.2193 10.8687 22.1925 10.8687C19.1657 10.8687 16.3182 12.0449 14.1809 14.1895C12.0435 16.3341 10.8672 19.1743 10.8672 22.1939ZM22.1925 12.0162C24.9108 12.0162 27.4714 13.0778 29.3936 15C33.36 18.9663 33.36 25.4287 29.3936 29.4023C25.4273 33.3686 18.9649 33.3758 14.9913 29.4023C13.0691 27.48 12.0076 24.9195 12.0076 22.2011C12.0076 19.4828 13.0691 16.9222 14.9913 15C16.9207 13.0778 19.4741 12.0162 22.1925 12.0162Z" fill="#015EA5"/>
<path d="M15.9254 25.9237H18.4716C18.7872 25.9237 19.0454 25.6655 19.0454 25.3499V22.8037C19.0454 22.4881 18.7872 22.2299 18.4716 22.2299H15.9254C15.6098 22.2299 15.3516 22.4881 15.3516 22.8037V25.3499C15.3516 25.6655 15.6026 25.9237 15.9254 25.9237Z" fill="#015EA5"/>
<path d="M23.288 25.9236C23.6036 25.9236 23.8618 25.6654 23.8618 25.3498V21.1324C23.8618 20.8168 23.6036 20.5586 23.288 20.5586H20.7418C20.4262 20.5586 20.168 20.8168 20.168 21.1324V25.3498C20.168 25.6654 20.4262 25.9236 20.7418 25.9236H23.288Z" fill="#015EA5"/>
<path d="M24.9883 19.0954V25.3498C24.9883 25.6654 25.2465 25.9236 25.5621 25.9236H28.1083C28.4239 25.9236 28.6821 25.6654 28.6821 25.3498V19.0954C28.6821 18.7798 28.4239 18.5216 28.1083 18.5216H25.5621C25.2465 18.5216 24.9883 18.7798 24.9883 19.0954Z" fill="#015EA5"/>
<path d="M16.4578 20.6446H16.4794L16.9886 20.6302C20.3023 20.5298 23.3936 19.0667 25.5668 16.5922V17.0082C25.5668 17.3237 25.825 17.582 26.1406 17.582C26.4562 17.582 26.7144 17.3237 26.7144 17.0082V15.0716C26.7144 14.756 26.4562 14.4978 26.1406 14.4978H24.1395C23.8239 14.4978 23.5657 14.756 23.5657 15.0716C23.5657 15.3872 23.8239 15.6454 24.1395 15.6454H24.8711C22.8987 17.998 20.0369 19.3894 16.9527 19.4898L16.4435 19.5042C16.1279 19.5113 15.8769 19.7767 15.8912 20.0923C15.8984 20.4007 16.1494 20.6446 16.4578 20.6446Z" fill="#00BAEB"/>
<path d="M28.0217 27.0784H16.1011C15.7856 27.0784 15.5273 27.3366 15.5273 27.6522C15.5273 27.9678 15.7856 28.226 16.1011 28.226H28.0217C28.3373 28.226 28.5955 27.9678 28.5955 27.6522C28.5955 27.3366 28.3373 27.0784 28.0217 27.0784Z" fill="#D1BCE3"/>
<defs>
<linearGradient id="paint0_linear_11705_56908" x1="26" y1="0" x2="26" y2="52" gradientUnits="userSpaceOnUse">
<stop stop-color="#E0F2FF"/>
<stop offset="1" stop-color="#E0F2FF" stop-opacity="0"/>
</linearGradient>
</defs>
</svg>
