<svg width="52" height="52" viewBox="0 0 52 52" fill="none" xmlns="http://www.w3.org/2000/svg">
<rect width="52" height="52" rx="16" fill="url(#paint0_linear_11705_56934)"/>
<path d="M26 11.0003C23.7935 11.0003 21.6948 11.4753 19.8066 12.3323C19.5482 12.4497 19.4391 12.7584 19.5664 13.012L20.46 14.8021C20.5799 15.0425 20.8684 15.1451 21.1133 15.0345C22.6058 14.3681 24.2578 14.0013 26 14.0013C32.6333 14.0013 37.999 19.367 37.999 26.0003C37.999 28.4957 37.231 30.8016 35.9287 32.722L34.3525 31.1448C34.2448 31.0369 34.0938 30.9842 33.9424 31.0012C33.6897 31.0305 33.4993 31.2449 33.5 31.4992V36.9993C33.499 37.2754 33.7219 37.5001 33.9981 37.5012H39.4971C39.9463 37.505 40.1718 36.9599 39.8516 36.6448L38.0791 34.8723C39.9077 32.3864 41 29.3206 41 26.0002C41 17.7219 34.2783 11.0003 26 11.0003ZM12.498 14.4993C12.0534 14.4995 11.8301 15.0365 12.1436 15.3519L13.917 17.1253C12.0881 19.6115 11 22.6794 11 26.0003C11 34.2787 17.7217 41.0003 26 41.0003C28.2065 41.0003 30.3052 40.5213 32.1934 39.6644C32.4515 39.5466 32.5601 39.2381 32.4326 38.9847L31.5361 37.1946C31.4163 36.9564 31.1305 36.8541 30.8867 36.9622C29.3942 37.6287 27.7422 37.9993 26 37.9993C19.3667 37.9993 14.001 32.6336 14.001 26.0003C14.001 23.5059 14.7645 21.1971 16.0654 19.2767L17.6475 20.8548C17.9629 21.1682 18.4998 20.945 18.5 20.5003V15.0013C18.501 14.7236 18.2757 14.4983 17.998 14.4993H12.498Z" fill="#015EA5"/>
<path d="M26.5754 17.7327C26.6627 17.5948 26.8118 17.5069 26.9749 17.4993C27.2763 17.4838 27.5222 17.7376 27.4983 18.0384L27.0374 23.9993H30.9973C31.3925 23.9975 31.6335 24.4331 31.4221 24.7669L25.4202 34.2679C25.1397 34.7026 24.4645 34.4773 24.5012 33.9613L24.9592 28.0004H20.9983C20.6054 27.9984 20.3681 27.5647 20.5784 27.2328L26.5754 17.7327Z" fill="#00BAEB"/>
<defs>
<linearGradient id="paint0_linear_11705_56934" x1="26" y1="0" x2="26" y2="52" gradientUnits="userSpaceOnUse">
<stop stop-color="#E0F2FF"/>
<stop offset="1" stop-color="#E0F2FF" stop-opacity="0"/>
</linearGradient>
</defs>
</svg>
