<svg width="52" height="52" viewBox="0 0 52 52" fill="none" xmlns="http://www.w3.org/2000/svg">
<rect width="52" height="52" rx="16" fill="url(#paint0_linear_11705_56920)"/>
<g clip-path="url(#clip0_11705_56920)">
<path d="M26 24.375C28.4162 24.375 30.375 22.4162 30.375 20C30.375 17.5838 28.4162 15.625 26 15.625C23.5838 15.625 21.625 17.5838 21.625 20C21.625 22.4162 23.5838 24.375 26 24.375Z" fill="#015EA5"/>
<path d="M26 13.75C26.5178 13.75 26.9375 13.3303 26.9375 12.8125V10.9375C26.9375 10.4197 26.5178 10 26 10C25.4822 10 25.0625 10.4197 25.0625 10.9375V12.8125C25.0625 13.3303 25.4822 13.75 26 13.75Z" fill="#00BAEB"/>
<path d="M21.1258 14.3698C21.3846 14.8182 21.958 14.9719 22.4064 14.7129C22.8548 14.454 23.0084 13.8807 22.7495 13.4323L21.812 11.8085C21.5531 11.3601 20.9798 11.2065 20.5314 11.4654C20.083 11.7242 19.9294 12.2976 20.1883 12.746L21.1258 14.3698Z" fill="#00BAEB"/>
<path d="M16.8713 16.7493L18.4951 17.6868C18.9435 17.9456 19.5168 17.792 19.7757 17.3436C20.0346 16.8953 19.881 16.3219 19.4326 16.063L17.8088 15.1255C17.3604 14.8666 16.787 15.0203 16.5281 15.4686C16.2692 15.917 16.4228 16.4904 16.8713 16.7493Z" fill="#00BAEB"/>
<path d="M32.2234 17.3436C32.4823 17.792 33.0557 17.9456 33.504 17.6868L35.1278 16.7493C35.5762 16.4904 35.7299 15.917 35.471 15.4686C35.2121 15.0203 34.6387 14.8666 34.1903 15.1255L32.5665 16.063C32.1182 16.3219 31.9645 16.8953 32.2234 17.3436Z" fill="#00BAEB"/>
<path d="M29.5939 14.7129C30.0423 14.9718 30.6156 14.8182 30.8745 14.3698L31.812 12.746C32.0709 12.2976 31.9173 11.7242 31.4689 11.4654C31.0205 11.2065 30.4471 11.3601 30.1883 11.8085L29.2508 13.4323C28.9919 13.8807 29.1455 14.454 29.5939 14.7129Z" fill="#00BAEB"/>
<path d="M20.0625 28.125V36.375H31.9375V28.125C35.5619 28.125 38.5 25.1869 38.5 21.5625V20C38.5 18.9644 37.6606 18.125 36.625 18.125C35.5894 18.125 34.75 18.9644 34.75 20V21.5625C34.75 23.1158 33.4908 24.375 31.9375 24.375H30.4587C29.3238 25.5314 27.7444 26.25 26 26.25C24.2556 26.25 22.6762 25.5314 21.5413 24.375H20.0625C18.5092 24.375 17.25 23.1158 17.25 21.5625V20C17.25 18.9644 16.4106 18.125 15.375 18.125C14.3394 18.125 13.5 18.9644 13.5 20V21.5625C13.5 25.1869 16.4381 28.125 20.0625 28.125Z" fill="#015EA5"/>
<path d="M41.0625 38.25H10.9375C10.4197 38.25 10 38.6697 10 39.1875V41.0625C10 41.5803 10.4197 42 10.9375 42H41.0625C41.5802 42 42 41.5803 42 41.0625V39.1875C42 38.6697 41.5802 38.25 41.0625 38.25Z" fill="#D1BCE3"/>
</g>
<defs>
<linearGradient id="paint0_linear_11705_56920" x1="26" y1="0" x2="26" y2="52" gradientUnits="userSpaceOnUse">
<stop stop-color="#E0F2FF"/>
<stop offset="1" stop-color="#E0F2FF" stop-opacity="0"/>
</linearGradient>
<clipPath id="clip0_11705_56920">
<rect width="32" height="32" fill="white" transform="translate(10 10)"/>
</clipPath>
</defs>
</svg>
