<svg width="26" height="27" viewBox="0 0 26 27" fill="none" xmlns="http://www.w3.org/2000/svg">
<path d="M26 20.9976C26 24.3104 23.3137 26.9976 20 26.9976C16.6863 26.9976 14 24.3104 14 20.9976C14 17.6847 16.6863 14.9976 20 14.9976C23.3137 14.9976 26 17.6847 26 20.9976ZM23.4286 20.9976C23.4286 20.5236 23.0446 20.1404 22.5714 20.1404H20.8571V18.4261C20.8571 17.9521 20.4731 17.569 20 17.569C19.5269 17.569 19.1429 17.9521 19.1429 18.4261V20.9976C19.1429 21.4716 19.5269 21.8547 20 21.8547H22.5714C23.0446 21.8547 23.4286 21.4716 23.4286 20.9976Z" fill="#D1BCE3"/>
<path d="M22 7.99756V13.4309C21.2046 13.1476 20.35 12.9976 19.4615 12.9976C15.2646 12.9976 11.8462 16.3642 11.8462 20.4976C11.8462 21.3726 11.9985 22.2142 12.2862 22.9976H2.53846C1.14231 22.9976 0 21.8726 0 20.4976V7.99756H22ZM7.61539 18.8309C7.61539 18.3701 7.23631 17.9976 6.76923 17.9976H5.07692C4.60985 17.9976 4.23077 18.3701 4.23077 18.8309C4.23077 19.2917 4.60985 19.6642 5.07692 19.6642H6.76923C7.23631 19.6642 7.61539 19.2917 7.61539 18.8309ZM7.61539 15.4976C7.61539 15.0367 7.23631 14.6642 6.76923 14.6642H5.07692C4.60985 14.6642 4.23077 15.0367 4.23077 15.4976C4.23077 15.9584 4.60985 16.3309 5.07692 16.3309H6.76923C7.23631 16.3309 7.61539 15.9584 7.61539 15.4976ZM7.61539 12.1642C7.61539 11.7034 7.23631 11.3309 6.76923 11.3309H5.07692C4.60985 11.3309 4.23077 11.7034 4.23077 12.1642C4.23077 12.6251 4.60985 12.9976 5.07692 12.9976H6.76923C7.23631 12.9976 7.61539 12.6251 7.61539 12.1642ZM12.6923 12.1642C12.6923 11.7034 12.3132 11.3309 11.8462 11.3309H10.1538C9.68677 11.3309 9.30769 11.7034 9.30769 12.1642C9.30769 12.6251 9.68677 12.9976 10.1538 12.9976H11.8462C12.3132 12.9976 12.6923 12.6251 12.6923 12.1642Z" fill="#015EA5"/>
<path d="M22 5.16423V5.99756H0V5.16423C0 3.78589 1.13892 2.66423 2.53846 2.66423H3.38462V1.83089C3.38462 1.37006 3.76369 0.997559 4.23077 0.997559C4.69785 0.997559 5.07692 1.37006 5.07692 1.83089V2.66423H10.1538V1.83089C10.1538 1.37006 10.5329 0.997559 11 0.997559C11.4671 0.997559 11.8462 1.37006 11.8462 1.83089V2.66423H16.9231V1.83089C16.9231 1.37006 17.3022 0.997559 17.7692 0.997559C18.2363 0.997559 18.6154 1.37006 18.6154 1.83089V2.66423H19.4615C20.8611 2.66423 22 3.78589 22 5.16423Z" fill="#00BAEB"/>
</svg>
