<svg width="52" height="52" viewBox="0 0 52 52" fill="none" xmlns="http://www.w3.org/2000/svg">
<rect width="52" height="52" rx="16" fill="url(#paint0_linear_11608_46923)"/>
<path d="M39 33C39 36.3129 36.3137 39 33 39C29.6863 39 27 36.3129 27 33C27 29.6871 29.6863 27 33 27C36.3137 27 39 29.6871 39 33ZM36.4286 33C36.4286 32.526 36.0446 32.1429 35.5714 32.1429H33.8571V30.4286C33.8571 29.9546 33.4731 29.5714 33 29.5714C32.5269 29.5714 32.1429 29.9546 32.1429 30.4286V33C32.1429 33.474 32.5269 33.8571 33 33.8571H35.5714C36.0446 33.8571 36.4286 33.474 36.4286 33Z" fill="#D1BCE3"/>
<path d="M35 20V25.4333C34.2046 25.15 33.35 25 32.4615 25C28.2646 25 24.8462 28.3667 24.8462 32.5C24.8462 33.375 24.9985 34.2167 25.2862 35H15.5385C14.1423 35 13 33.875 13 32.5V20H35ZM20.6154 30.8333C20.6154 30.3725 20.2363 30 19.7692 30H18.0769C17.6098 30 17.2308 30.3725 17.2308 30.8333C17.2308 31.2942 17.6098 31.6667 18.0769 31.6667H19.7692C20.2363 31.6667 20.6154 31.2942 20.6154 30.8333ZM20.6154 27.5C20.6154 27.0392 20.2363 26.6667 19.7692 26.6667H18.0769C17.6098 26.6667 17.2308 27.0392 17.2308 27.5C17.2308 27.9608 17.6098 28.3333 18.0769 28.3333H19.7692C20.2363 28.3333 20.6154 27.9608 20.6154 27.5ZM20.6154 24.1667C20.6154 23.7058 20.2363 23.3333 19.7692 23.3333H18.0769C17.6098 23.3333 17.2308 23.7058 17.2308 24.1667C17.2308 24.6275 17.6098 25 18.0769 25H19.7692C20.2363 25 20.6154 24.6275 20.6154 24.1667ZM25.6923 24.1667C25.6923 23.7058 25.3132 23.3333 24.8462 23.3333H23.1538C22.6868 23.3333 22.3077 23.7058 22.3077 24.1667C22.3077 24.6275 22.6868 25 23.1538 25H24.8462C25.3132 25 25.6923 24.6275 25.6923 24.1667Z" fill="#015EA5"/>
<path d="M35 17.1667V18H13V17.1667C13 15.7883 14.1389 14.6667 15.5385 14.6667H16.3846V13.8333C16.3846 13.3725 16.7637 13 17.2308 13C17.6978 13 18.0769 13.3725 18.0769 13.8333V14.6667H23.1538V13.8333C23.1538 13.3725 23.5329 13 24 13C24.4671 13 24.8462 13.3725 24.8462 13.8333V14.6667H29.9231V13.8333C29.9231 13.3725 30.3022 13 30.7692 13C31.2363 13 31.6154 13.3725 31.6154 13.8333V14.6667H32.4615C33.8611 14.6667 35 15.7883 35 17.1667Z" fill="#00BAEB"/>
<defs>
<linearGradient id="paint0_linear_11608_46923" x1="26" y1="0" x2="26" y2="52" gradientUnits="userSpaceOnUse">
<stop stop-color="#E0F2FF"/>
<stop offset="1" stop-color="#E0F2FF" stop-opacity="0"/>
</linearGradient>
</defs>
</svg>
