<svg width="52" height="52" viewBox="0 0 52 52" fill="none" xmlns="http://www.w3.org/2000/svg">
<rect width="52" height="52" rx="16" fill="url(#paint0_linear_11608_46947)"/>
<path d="M30.5684 38.5874C30.7101 38.5874 30.8413 38.5769 30.9567 38.5455C32.263 38.2202 33.4487 37.5224 34.5714 36.4154C34.8495 36.1374 35.0069 35.7649 35.0069 35.3714C35.0069 34.9779 34.8547 34.6107 34.5767 34.3326L31.3974 31.1481C30.8413 30.5972 29.8864 30.5867 29.3198 31.1586C28.0345 32.4492 27.5151 32.5436 25.8572 31.7934L25.7733 31.7567C24.2886 31.1323 22.914 30.0411 21.9067 28.6823C21.9014 28.6718 21.891 28.6665 21.8857 28.656C20.742 27.2868 20.0652 26.0591 19.7609 24.8C19.6088 24.1914 19.698 23.7612 20.0547 23.3677C20.2961 23.1054 20.5689 22.7749 20.8364 22.4548C21.3138 21.8672 21.2719 21.0226 20.7368 20.4927L17.5679 17.3239C17.2846 17.0406 16.8859 16.8884 16.4924 16.8937C16.0937 16.9042 15.7212 17.0721 15.4589 17.3711C13.3289 19.711 13.0141 21.4161 14.1683 24.3855C15.1756 26.972 16.8334 29.1807 18.3182 31.0064C19.9183 32.9633 20.5479 33.4775 22.4943 34.9622C24.4617 36.4679 26.6599 37.9264 29.3408 38.4038C29.5349 38.4562 30.091 38.5874 30.5684 38.5874Z" fill="#015EA5"/>
<path d="M35.2429 16.6627C30.9146 12.3292 23.8687 12.3292 19.5352 16.6627C19.3411 16.8568 19.1575 17.0562 18.9844 17.2608L19.7294 18.0058C19.9025 17.7959 20.0861 17.5966 20.2802 17.4024C24.1992 13.4834 30.5789 13.4834 34.5031 17.4024C38.4222 21.3215 38.4222 27.7063 34.5031 31.6253C34.309 31.8195 34.1096 32.0031 33.905 32.1762L34.65 32.916C34.8546 32.7481 35.054 32.5592 35.2429 32.3703C39.5764 28.0368 39.5764 20.991 35.2429 16.6627Z" fill="#00BAEB"/>
<path d="M22.4219 23.4359C22.4219 23.8399 22.8626 24.291 23.6285 24.6635C24.0692 24.8734 24.5834 25.0518 25.1552 25.1881C25.0923 24.6216 25.0503 24.034 25.0503 23.4359C25.0503 22.8378 25.0923 22.2502 25.1552 21.6836C24.5834 21.82 24.064 21.9984 23.6285 22.2135C22.8626 22.586 22.4219 23.0319 22.4219 23.4359Z" fill="#D1BCE3"/>
<path d="M25.3311 26.3004C24.5179 26.1378 23.7834 25.9018 23.1748 25.6079C23.0227 25.5345 22.8968 25.461 22.7656 25.3823C23.1066 26.3214 23.6785 27.1661 24.455 27.8324C24.9901 28.2888 25.5987 28.6351 26.2492 28.8712C26.1758 28.74 26.1023 28.6141 26.0289 28.4619C25.7298 27.8534 25.499 27.1136 25.3311 26.3004Z" fill="#D1BCE3"/>
<path d="M22.7656 21.4894C22.8915 21.416 23.0227 21.3425 23.1696 21.2691C23.7782 20.9701 24.5179 20.7392 25.3311 20.5714C25.499 19.7634 25.7298 19.0237 26.0289 18.4151C26.1023 18.2629 26.1758 18.1318 26.2545 18.0059C25.5987 18.2367 24.9901 18.5882 24.455 19.0446C23.6785 19.7057 23.1014 20.5556 22.7656 21.4894Z" fill="#D1BCE3"/>
<path d="M26.4375 26.4736C26.5739 27.0455 26.7523 27.5648 26.9621 28.0003C27.3399 28.7663 27.7858 29.207 28.1898 29.207C28.5938 29.207 29.0397 28.7663 29.4175 28.0003C29.6273 27.5648 29.8057 27.0455 29.9421 26.4736C29.3755 26.5418 28.7879 26.5786 28.1898 26.5786C27.5917 26.5786 27.0041 26.5418 26.4375 26.4736Z" fill="#D1BCE3"/>
<path d="M29.9421 20.3979C29.8057 19.8261 29.6273 19.3119 29.4175 18.8765C29.0397 18.1052 28.5938 17.6646 28.1898 17.6646C27.7858 17.6646 27.3399 18.1052 26.9621 18.8765C26.7523 19.3119 26.5739 19.8261 26.4375 20.3979C27.0041 20.3349 27.5917 20.2929 28.1898 20.2929C28.7879 20.2929 29.3755 20.3349 29.9421 20.3979Z" fill="#D1BCE3"/>
<path d="M26.1016 23.4356C26.1016 24.1124 26.1488 24.7734 26.238 25.3925C26.8571 25.4817 27.5181 25.5289 28.1949 25.5289C28.8716 25.5289 29.5327 25.4817 30.1518 25.3925C30.241 24.7734 30.2882 24.1124 30.2882 23.4356C30.2882 22.7588 30.241 22.103 30.1518 21.4787C29.5327 21.3895 28.8716 21.3423 28.1949 21.3423C27.5181 21.3423 26.8571 21.3895 26.238 21.4787C26.1488 22.103 26.1016 22.7588 26.1016 23.4356Z" fill="#D1BCE3"/>
<path d="M33.9599 23.4359C33.9599 23.0319 33.5192 22.5859 32.7533 22.2135C32.3126 21.9984 31.7984 21.82 31.2266 21.6836C31.2948 22.2502 31.3315 22.8378 31.3315 23.4359C31.3315 24.0339 31.2948 24.6216 31.2266 25.1882C31.7984 25.0518 32.3178 24.8734 32.7533 24.6635C33.5192 24.291 33.9599 23.8398 33.9599 23.4359Z" fill="#D1BCE3"/>
<path d="M30.3662 28.4615C30.2928 28.6084 30.2141 28.7395 30.1406 28.8707C30.7912 28.6346 31.405 28.2883 31.9401 27.8319C32.7166 27.1656 33.2885 26.321 33.6242 25.3818C33.4983 25.4605 33.3671 25.534 33.215 25.6074C32.6117 25.9012 31.8719 26.1373 31.0587 26.3C30.8908 27.1132 30.66 27.8529 30.3662 28.4615Z" fill="#D1BCE3"/>
<path d="M31.9349 19.0446C31.405 18.5882 30.7912 18.2367 30.1406 18.0059C30.2141 18.1318 30.2875 18.2629 30.361 18.4151C30.66 19.0237 30.8908 19.7582 31.0587 20.5714C31.8719 20.7392 32.6064 20.9701 33.215 21.2691C33.3671 21.3426 33.4983 21.416 33.6242 21.4895C33.2885 20.5556 32.7166 19.7057 31.9349 19.0446Z" fill="#D1BCE3"/>
<defs>
<linearGradient id="paint0_linear_11608_46947" x1="26" y1="0" x2="26" y2="52" gradientUnits="userSpaceOnUse">
<stop stop-color="#E0F2FF"/>
<stop offset="1" stop-color="#E0F2FF" stop-opacity="0"/>
</linearGradient>
</defs>
</svg>
