<svg width="68" height="68" viewBox="0 0 68 68" fill="none" xmlns="http://www.w3.org/2000/svg">
<circle cx="34" cy="34" r="34" fill="#00BAEB"/>
<path d="M45.25 39.525V43.945C45.2501 44.2615 45.1303 44.5663 44.9145 44.7978C44.6988 45.0293 44.4033 45.1704 44.0875 45.1925C43.5413 45.23 43.095 45.25 42.75 45.25C31.7038 45.25 22.75 36.2963 22.75 25.25C22.75 24.905 22.7688 24.4588 22.8075 23.9125C22.8297 23.5968 22.9707 23.3013 23.2022 23.0855C23.4338 22.8698 23.7385 22.7499 24.055 22.75H28.475C28.6301 22.7498 28.7796 22.8073 28.8947 22.9113C29.0097 23.0152 29.082 23.1582 29.0975 23.3125C29.1263 23.6 29.1525 23.8288 29.1775 24.0025C29.4259 25.7362 29.935 27.4223 30.6875 29.0038C30.8063 29.2538 30.7288 29.5525 30.5038 29.7125L27.8063 31.64C29.4556 35.4831 32.5181 38.5456 36.3613 40.195L38.2863 37.5025C38.3649 37.3925 38.4798 37.3136 38.6106 37.2796C38.7415 37.2455 38.8803 37.2585 39.0025 37.3162C40.5838 38.0674 42.2695 38.5751 44.0025 38.8225C44.1763 38.8475 44.405 38.875 44.69 38.9025C44.844 38.9182 44.9868 38.9908 45.0905 39.1058C45.1941 39.2208 45.2515 39.3701 45.2513 39.525H45.25Z" fill="white"/>
</svg>
