<svg width="38" height="32" viewBox="0 0 38 32" fill="none" xmlns="http://www.w3.org/2000/svg">
<path d="M7.66249 26.8499C7.72497 26.8624 7.78754 26.8624 7.85003 26.8624H8.925V21.0749C8.925 19.4249 10.2125 18.0623 11.8375 17.9624C12.15 14.2874 15.25 11.3874 19 11.3874C22.75 11.3874 25.85 14.2874 26.1625 17.9624C27.7875 18.0623 29.075 19.4249 29.075 21.0749V26.8624H30.15C30.2125 26.8624 30.275 26.8624 30.3375 26.8499C34.5625 26.2249 37.75 22.5123 37.75 18.2123C37.75 13.5998 34.15 9.81236 29.6125 9.48735C29.35 7.1124 28.2875 4.89988 26.55 3.16235C24.525 1.13735 21.8375 0.0373535 19 0.0373535C13.525 0.0373535 9 4.17485 8.38751 9.48735C3.85 9.81236 0.25 13.5998 0.25 18.2123C0.25 22.5123 3.43749 26.2249 7.66249 26.8499Z" fill="#015EA5"/>
<path d="M18.9998 13.2625C16.0748 13.2625 13.6873 15.6499 13.6873 18.575V19.825H12.0498C11.3623 19.825 10.7998 20.3875 10.7998 21.075V30.7124C10.7998 31.4124 11.3623 31.9624 12.0498 31.9624H25.9498C26.6373 31.9624 27.1998 31.4124 27.1998 30.7124V21.075C27.1998 20.3875 26.6373 19.825 25.9498 19.825H24.3123V18.575C24.3123 15.6499 21.9248 13.2625 18.9998 13.2625ZM21.8123 19.825H16.1873V18.575C16.1873 17.025 17.4498 15.7625 18.9998 15.7625C20.5498 15.7625 21.8123 17.025 21.8123 18.575V19.825Z" fill="#00BAEB"/>
</svg>
