<svg width="30" height="26" viewBox="0 0 30 26" fill="none" xmlns="http://www.w3.org/2000/svg">
<path d="M22.604 8.81342C22.604 4.24321 17.5484 0.532959 11.3059 0.532959C5.05686 0.532959 0 4.24321 0 8.81342C0 11.6277 1.92719 14.1007 4.85471 15.5993L2.04823 20.9342L8.13502 16.7257C9.14692 16.9432 10.2 17.0978 11.3059 17.0978C17.5497 17.0978 22.604 13.3888 22.604 8.81342ZM7.7552 9.71199H5.3684V7.32388H7.7552V9.71199ZM14.9981 7.32388H17.3849V9.71199H14.9981V7.32388ZM10.1832 7.32388H12.5688V9.71199H10.1832V7.32388Z" fill="#015EA5"/>
<path d="M30.0008 14.0235C30.0008 11.02 27.6873 8.41432 24.295 7.10376C24.4624 7.72039 24.5525 8.36025 24.5525 9.01937C24.5525 14.4367 18.5662 18.8318 11.1688 18.8318C11.0774 18.8318 10.9925 18.8125 10.9023 18.8125C12.8528 20.6547 15.8974 21.8443 19.3257 21.8443C20.3711 21.8443 21.3637 21.6988 22.3189 21.4954L28.071 25.467L25.4177 20.432C28.183 19.0147 30.0008 16.6793 30.0008 14.0235Z" fill="#00BAEB"/>
</svg>
