<svg width="72" height="72" viewBox="0 0 72 72" fill="none" xmlns="http://www.w3.org/2000/svg">
<circle cx="36" cy="36" r="36" fill="#DAF7FF"/>
<g clip-path="url(#clip0_11503_65698)">
<path d="M47.9997 35.309V48H36.0177C33.6767 47.9989 31.3872 47.3131 29.431 46.027C27.4749 44.7409 25.9377 42.9108 25.0087 40.762C24.0798 38.6132 23.7996 36.2396 24.2027 33.9335C24.6059 31.6275 25.6747 29.4897 27.2776 27.7835C28.8805 26.0774 30.9475 24.8773 33.2239 24.3311C35.5003 23.785 37.8867 23.9166 40.0893 24.7098C42.2918 25.503 44.2143 26.9231 45.6198 28.7952C47.0254 30.6673 47.8526 32.9096 47.9997 35.246V35.309ZM36.9997 31H30.9997V33H36.9997V31ZM40.9997 35H30.9997V37H40.9997V35ZM40.9997 39H30.9997V41H40.9997V39Z" fill="#00BAEB"/>
</g>
<defs>
<clipPath id="clip0_11503_65698">
<rect width="24" height="24" fill="white" transform="translate(24 24)"/>
</clipPath>
</defs>
</svg>
