<svg width="30" height="30" viewBox="0 0 30 30" fill="none" xmlns="http://www.w3.org/2000/svg">
<circle cx="15" cy="15" r="15" fill="url(#paint0_linear_12112_75735)"/>
<g clip-path="url(#clip0_12112_75735)">
<path d="M16.9206 12.2542L14.9997 14.1751L13.0787 12.2542L12.2539 13.079L14.1748 14.9999L12.2539 16.9208L13.0787 17.7456L14.9997 15.8247L16.9206 17.7456L17.7454 16.9208L15.8245 14.9999L17.7454 13.079L16.9206 12.2542Z" fill="#002448"/>
<path d="M15 8C13.6155 8 12.2622 8.41054 11.111 9.17971C9.95987 9.94888 9.06266 11.0421 8.53285 12.3212C8.00303 13.6003 7.86441 15.0078 8.13451 16.3656C8.4046 17.7235 9.07129 18.9708 10.0503 19.9497C11.0292 20.9287 12.2765 21.5954 13.6344 21.8655C14.9922 22.1356 16.3997 21.997 17.6788 21.4672C18.9579 20.9373 20.0511 20.0401 20.8203 18.889C21.5895 17.7378 22 16.3845 22 15C21.998 13.1441 21.2599 11.3648 19.9475 10.0525C18.6352 8.74015 16.8559 8.00201 15 8V8ZM15 20.8333C13.8463 20.8333 12.7185 20.4912 11.7592 19.8502C10.7999 19.2093 10.0522 18.2982 9.61071 17.2323C9.16919 16.1664 9.05368 14.9935 9.27876 13.862C9.50384 12.7304 10.0594 11.691 10.8752 10.8752C11.691 10.0594 12.7304 9.50383 13.862 9.27875C14.9935 9.05367 16.1664 9.16919 17.2323 9.6107C18.2982 10.0522 19.2093 10.7999 19.8502 11.7592C20.4912 12.7185 20.8333 13.8463 20.8333 15C20.8316 16.5466 20.2165 18.0293 19.1229 19.1229C18.0293 20.2165 16.5466 20.8316 15 20.8333Z" fill="#002448"/>
</g>
<defs>
<linearGradient id="paint0_linear_12112_75735" x1="15" y1="0" x2="15" y2="30" gradientUnits="userSpaceOnUse">
<stop stop-color="#00F5EB"/>
<stop offset="1" stop-color="#00F5EB" stop-opacity="0"/>
</linearGradient>
<clipPath id="clip0_12112_75735">
<rect width="14" height="14" fill="white" transform="translate(8 8)"/>
</clipPath>
</defs>
</svg>
