<svg width="40" height="40" viewBox="0 0 40 40" fill="none" xmlns="http://www.w3.org/2000/svg">
<path d="M38.1216 19.0337L33.3176 16.6418L22.7554 21.9009C21.901 22.3264 20.9415 22.5513 19.9805 22.5513C19.0194 22.5513 18.0599 22.3264 17.2055 21.9009L6.6433 16.6418L1.83929 19.0337C1.46622 19.2195 1.23047 19.6004 1.23047 20.0172C1.23047 20.4342 1.46622 20.8148 1.83929 21.0007L18.1849 29.1393C18.747 29.4194 19.3636 29.5592 19.9805 29.5592C20.5971 29.5592 21.2139 29.4194 21.776 29.1397L38.1216 21.0007C38.4947 20.8148 38.7305 20.4342 38.7305 20.0172C38.7305 19.6004 38.4947 19.2195 38.1216 19.0337Z" fill="#00BAEB"/>
<path d="M38.1216 28.2417L33.3176 25.8496L22.7554 31.1089C21.901 31.5343 20.9415 31.7589 19.9805 31.7589C19.0194 31.7589 18.0599 31.5343 17.2055 31.1089L6.6433 25.8496L1.83929 28.2417C1.46622 28.4273 1.23047 28.8084 1.23047 29.2249C1.23047 29.6417 1.46622 30.0226 1.83929 30.2087L18.1849 38.3472C18.747 38.6272 19.3636 38.7672 19.9805 38.7672C20.5971 38.767 21.2139 38.6272 21.776 38.3472L38.1216 30.2087C38.4947 30.0226 38.7305 29.6417 38.7305 29.2249C38.7305 28.8081 38.4947 28.4273 38.1216 28.2417Z" fill="#D1BCE3"/>
<path d="M1.83929 11.7953L18.1849 19.9341C18.747 20.2138 19.3636 20.3541 19.9805 20.3541C20.5973 20.3541 21.2139 20.2138 21.776 19.9341L38.1216 11.7953C38.4947 11.6097 38.7305 11.2286 38.7305 10.812C38.7305 10.395 38.4947 10.0139 38.1216 9.82828L21.776 1.68924C20.6516 1.12963 19.3094 1.12963 18.1849 1.68924L1.83929 9.82828C1.46622 10.0139 1.23047 10.395 1.23047 10.812C1.23047 11.2286 1.46622 11.6097 1.83929 11.7953Z" fill="#015EA5"/>
</svg>
