<svg width="30" height="30" viewBox="0 0 30 30" fill="none" xmlns="http://www.w3.org/2000/svg">
<g clip-path="url(#clip0_11879_73698)">
<path d="M28.5912 14.2753L24.9882 12.4814L17.0666 16.4257C16.4258 16.7448 15.7062 16.9136 14.9854 16.9136C14.2645 16.9136 13.5449 16.7448 12.9041 16.4257L4.98247 12.4814L1.37947 14.2753C1.09966 14.4147 0.922852 14.7003 0.922852 15.0129C0.922852 15.3257 1.09966 15.6112 1.37947 15.7506L13.6387 21.8545C14.0603 22.0646 14.5227 22.1695 14.9854 22.1695C15.4478 22.1695 15.9104 22.0646 16.332 21.8548L28.5912 15.7506C28.871 15.6112 29.0479 15.3257 29.0479 15.0129C29.0479 14.7003 28.871 14.4147 28.5912 14.2753Z" fill="#00BAEB"/>
<path d="M28.5912 21.1812L24.9882 19.3872L17.0666 23.3316C16.4258 23.6508 15.7062 23.8192 14.9854 23.8192C14.2645 23.8192 13.5449 23.6508 12.9041 23.3316L4.98247 19.3872L1.37947 21.1812C1.09966 21.3205 0.922852 21.6063 0.922852 21.9187C0.922852 22.2313 1.09966 22.5169 1.37947 22.6565L13.6387 28.7604C14.0603 28.9704 14.5227 29.0754 14.9854 29.0754C15.4478 29.0753 15.9104 28.9704 16.332 28.7604L28.5912 22.6565C28.871 22.5169 29.0479 22.2313 29.0479 21.9187C29.0479 21.6061 28.871 21.3205 28.5912 21.1812Z" fill="#D1BCE3"/>
<path d="M1.37947 8.84647L13.6387 14.9506C14.0603 15.1603 14.5227 15.2656 14.9854 15.2656C15.448 15.2656 15.9104 15.1603 16.332 14.9506L28.5912 8.84647C28.871 8.70725 29.0479 8.42144 29.0479 8.10901C29.0479 7.79624 28.871 7.51043 28.5912 7.37121L16.332 1.26693C15.4887 0.84722 14.482 0.84722 13.6387 1.26693L1.37947 7.37121C1.09966 7.51043 0.922852 7.79624 0.922852 8.10901C0.922852 8.42144 1.09966 8.70725 1.37947 8.84647Z" fill="#015EA5"/>
</g>
<defs>
<clipPath id="clip0_11879_73698">
<rect width="30" height="30" fill="white"/>
</clipPath>
</defs>
</svg>
