<svg width="21" height="18" viewBox="0 0 21 18" fill="none" xmlns="http://www.w3.org/2000/svg">
<g clip-path="url(#clip0_11267_16306)">
<path d="M7.17629 2.25088C7.36993 1.77814 7.64087 1.34565 8.0392 0.99472C9.6325 -0.43436 12.2658 -0.0732838 13.3499 1.72195C14.1631 3.08469 15.026 4.4119 15.8613 5.75941C17.261 7.99692 18.6772 10.2294 20.0599 12.4716C21.2218 14.348 19.9605 16.7175 17.6534 17.038C16.2372 17.2312 14.9152 16.6363 14.1793 15.4668C12.9512 13.499 11.7176 11.5359 10.4895 9.57827C10.4674 9.53259 10.4343 9.49706 10.4011 9.45609C10.2682 9.3593 10.213 9.21719 10.1302 9.08994C9.58793 8.21009 9.02397 7.33568 8.48169 6.4609C8.13306 5.89137 7.76826 5.33199 7.4141 4.76246C7.0986 4.25384 6.94952 3.69953 6.96609 3.11985C6.98817 2.8204 7.03274 2.52023 7.17629 2.25088Z" fill="#3C8BD9"/>
<path d="M7.17879 2.25098C7.10701 2.52033 7.04036 2.79005 7.02379 3.07464C7.00171 3.7 7.16774 4.28475 7.51046 4.8289C8.40649 6.2424 9.2974 7.66133 10.1879 9.07989C10.2707 9.20714 10.3319 9.33402 10.4147 9.45112C9.92802 10.2291 9.44096 10.9969 8.94325 11.7749C8.26294 12.8581 7.57672 13.9512 6.88537 15.0344C6.85224 15.0344 6.84672 15.0192 6.83567 14.9989C6.83015 14.938 6.85224 14.8868 6.8688 14.8259C7.20087 13.7072 6.92402 12.7106 6.08872 11.8561C5.57444 11.3424 4.92687 11.0477 4.18031 10.9509C3.20658 10.8236 2.34367 11.0578 1.56911 11.6172C1.43068 11.714 1.34234 11.8561 1.17631 11.9326C1.14318 11.9326 1.12662 11.9174 1.12109 11.8971C1.5139 11.2768 1.89566 10.6562 2.28294 10.0359C3.8928 7.46266 5.50267 4.89488 7.12357 2.32674C7.14014 2.30681 7.16222 2.28143 7.17879 2.25098Z" fill="#FABC04"/>
<path d="M1.1539 11.9278C1.30889 11.8006 1.45244 11.6686 1.61848 11.5465C3.59354 10.1123 6.56402 11.1499 6.99547 13.4229C7.10077 13.967 7.04516 14.4909 6.86256 15.0144C6.85704 15.0601 6.846 15.0956 6.82944 15.1416C6.75766 15.2638 6.69101 15.3907 6.60819 15.5078C5.88332 16.6062 4.82125 17.1504 3.42198 17.0688C1.81764 16.9619 0.561932 15.8587 0.340684 14.3941C0.235385 13.6821 0.390376 13.0212 0.788701 12.4056C0.871521 12.2733 0.965778 12.1515 1.05964 12.0192C1.09868 11.9837 1.08212 11.9278 1.1539 11.9278Z" fill="#34A852"/>
<path d="M1.15545 11.9278C1.12233 11.9582 1.12233 12.009 1.06711 12.0191C1.06159 11.9684 1.0892 11.9379 1.12233 11.897L1.15545 11.9278Z" fill="#FABC04"/>
<path d="M6.83013 15.1417C6.797 15.0909 6.83013 15.0503 6.86326 15.0144C6.86878 15.0195 6.88534 15.0347 6.89638 15.0449L6.83013 15.1417Z" fill="#E1C025"/>
</g>
<defs>
<clipPath id="clip0_11267_16306">
<rect width="20.1923" height="16.9615" fill="white" transform="translate(0.308594 0.115356)"/>
</clipPath>
</defs>
</svg>
