<svg width="20" height="20" viewBox="0 0 20 20" fill="none" xmlns="http://www.w3.org/2000/svg">
<g clip-path="url(#clip0_11494_63216)">
<path d="M10.3125 0.0625C10.125 -0.0625 9.875 -0.0625 9.75 0.0625C7.25 1.375 5.625 5.5 5.625 10.3125C5.625 12.25 5.9375 14.1875 6.4375 15.875C6.5 16.125 6.75 16.3125 7.0625 16.3125H13C13.25 16.3125 13.5 16.125 13.625 15.875C14.1875 14.1875 14.4375 12.3125 14.4375 10.3125C14.375 5.5 12.75 1.375 10.3125 0.0625ZM11.875 10C11.875 11.0625 11.0625 11.875 10 11.875C8.9375 11.875 8.125 11.0625 8.125 10V7.5C8.125 6.4375 8.9375 5.625 10 5.625C11.0625 5.625 11.875 6.4375 11.875 7.5V10Z" fill="#015EA5"/>
<path d="M12.6886 17.5H7.31358L6.87608 19.25C6.81358 19.4375 6.87608 19.625 7.00108 19.8125C7.12608 20 7.31358 20 7.50108 20H12.5011C12.6886 20 12.8761 19.9375 13.0011 19.75C13.1261 19.5625 13.1886 19.375 13.1261 19.1875L12.6886 17.5Z" fill="#00BAEB"/>
<path d="M5.25 16.1875C4.6875 14.4375 4.375 12.375 4.375 10.3125C3.125 12.5 2.5 15.0625 2.5 17.625V18.125C2.5 18.375 2.625 18.5625 2.875 18.6875C2.9375 18.75 3.0625 18.75 3.125 18.75C3.25 18.75 3.375 18.6875 3.5 18.625L5.6875 16.875C5.5 16.6875 5.3125 16.4375 5.25 16.1875Z" fill="#D1BCE3"/>
<path d="M15.625 10.25C15.625 12.375 15.3125 14.4375 14.75 16.1875C14.6875 16.4375 14.5 16.6875 14.3125 16.875L16.4375 18.5625C16.5625 18.625 16.6875 18.6875 16.8125 18.6875C16.875 18.6875 17 18.6875 17.0625 18.625C17.25 18.5 17.4375 18.3125 17.4375 18.0625V17.5625C17.5 15.0625 16.875 12.5 15.625 10.25Z" fill="#D1BCE3"/>
</g>
<defs>
<clipPath id="clip0_11494_63216">
<rect width="20" height="20" fill="white"/>
</clipPath>
</defs>
</svg>
