<svg width="20" height="20" viewBox="0 0 20 20" fill="none" xmlns="http://www.w3.org/2000/svg">
<g clip-path="url(#clip0_11494_63229)">
<path d="M19.9992 2.2499C19.9992 2.40537 19.9375 2.55459 19.8277 2.66436L18.9953 3.49639C18.8215 3.67061 18.4605 3.93232 17.343 4.1917C16.9898 4.27373 16.6625 4.33193 16.4633 4.36436L12.3207 8.50733L11.4922 7.67842L15.6348 3.53584C15.6672 3.33662 15.7254 3.00928 15.8074 2.65615C16.0668 1.53857 16.3285 1.17803 16.5027 1.00381L17.3348 0.171387C17.5637 -0.0571289 17.9348 -0.0571289 18.1633 0.171387L19.8277 1.83584C19.9375 1.94561 19.9992 2.09479 19.9992 2.2499Z" fill="#00BAEB"/>
<path d="M5.99219 11.8506L7.01466 10.8281L9.1712 12.9847L8.14873 14.0071L5.99219 11.8506Z" fill="#D1BCE3"/>
<path d="M0.446704 17.3962C-0.14896 17.9919 -0.148882 18.9577 0.446821 19.5532C1.04245 20.1487 2.00803 20.1487 2.60358 19.5531L7.3201 14.8366L5.16327 12.6797L0.446704 17.3962Z" fill="#D1BCE3"/>
<path d="M6.86768 4.71074C7.30529 3.46793 7.02717 2.02926 6.03307 1.03516C5.21245 0.214538 4.08858 -0.118196 3.02222 0.037038C2.5471 0.106218 2.35722 0.691334 2.69679 1.03075L3.88382 2.21742L3.67643 3.67637L2.21776 3.88348L1.03074 2.69676C0.691244 2.35739 0.106362 2.54727 0.0371434 3.02227C-0.118325 4.08867 0.214252 5.21254 1.03495 6.03328C2.02909 7.02741 3.46792 7.30534 4.71085 6.86761L17.3964 19.5532C17.992 20.1487 18.9575 20.1488 19.5532 19.5533C20.1489 18.9577 20.1489 17.992 19.5533 17.3963L6.86768 4.71074Z" fill="#015EA5"/>
</g>
<defs>
<clipPath id="clip0_11494_63229">
<rect width="20" height="20" fill="white"/>
</clipPath>
</defs>
</svg>
