<svg width="20" height="20" viewBox="0 0 20 20" fill="none" xmlns="http://www.w3.org/2000/svg">
<path d="M0.859896 13.75C0.604508 14.1928 0.454382 14.6884 0.421125 15.1985C0.387868 15.7086 0.472373 16.2195 0.668104 16.6917C0.863835 17.1639 1.16555 17.5848 1.54992 17.9218C1.93428 18.2588 2.391 18.5029 2.88476 18.6351C3.37852 18.7674 3.89609 18.7844 4.39745 18.6847C4.89881 18.585 5.37053 18.3714 5.77613 18.0602C6.18172 17.7491 6.51033 17.3489 6.73655 16.8905C6.96277 16.4321 7.08053 15.9278 7.08073 15.4167C7.08101 14.6826 6.83901 13.9691 6.39227 13.3866C5.94553 12.8042 5.31904 12.3855 4.61003 12.1956C3.90101 12.0056 3.14913 12.055 2.47105 12.3361C1.79297 12.6171 1.22662 13.1142 0.859896 13.75Z" fill="#D1BCE3"/>
<path d="M5.86719 5.08301L2.11719 11.583C2.71191 11.3294 3.35749 11.2177 4.00284 11.2567C4.64819 11.2958 5.27561 11.4844 5.83546 11.8078C6.3953 12.1312 6.87221 12.5804 7.22846 13.1199C7.58471 13.6594 7.81052 14.2745 7.88802 14.9163L9.52135 12.083C6.42135 6.72467 5.97135 6.21217 5.86719 5.08301Z" fill="#00BAEB"/>
<path d="M19.1314 13.7499C18.9189 13.3915 12.8272 2.80403 12.7064 2.64987C12.2049 1.95044 11.4524 1.47207 10.6062 1.31487C9.7601 1.15768 8.88594 1.33385 8.16673 1.8065C7.44752 2.27916 6.93899 3.01167 6.74757 3.85074C6.55615 4.68981 6.69668 5.57039 7.13974 6.3082C7.09808 6.3082 6.93141 5.94987 13.3564 17.0832C13.5753 17.4624 13.8667 17.7948 14.214 18.0613C14.5613 18.3279 14.9578 18.5235 15.3807 18.6368C15.8035 18.7502 16.2446 18.7791 16.6787 18.722C17.1128 18.6649 17.5314 18.5229 17.9106 18.304C18.2898 18.0852 18.6221 17.7937 18.8887 17.4464C19.1553 17.0991 19.3508 16.7027 19.4642 16.2798C19.5776 15.8569 19.6065 15.4158 19.5494 14.9817C19.4923 14.5476 19.3503 14.1291 19.1314 13.7499Z" fill="#015EA5"/>
</svg>
