<svg width="20" height="20" viewBox="0 0 20 20" fill="none" xmlns="http://www.w3.org/2000/svg">
<path d="M14.375 14.375C16.7912 14.375 18.75 12.4162 18.75 10C18.75 7.58375 16.7912 5.625 14.375 5.625C11.9588 5.625 10 7.58375 10 10C10 12.4162 11.9588 14.375 14.375 14.375Z" fill="#015EA5"/>
<path d="M8.74623 10C8.74662 9.20848 8.9138 8.42592 9.23686 7.70333C9.55993 6.98074 10.0316 6.33434 10.6212 5.80625C9.96838 5.61225 9.27925 5.57334 8.60871 5.69263C7.93817 5.81192 7.30475 6.08611 6.75886 6.49337C6.21298 6.90063 5.76971 7.42972 5.46436 8.03849C5.15901 8.64727 5 9.31893 5 10C5 10.6811 5.15901 11.3527 5.46436 11.9615C5.76971 12.5703 6.21298 13.0994 6.75886 13.5066C7.30475 13.9139 7.93817 14.1881 8.60871 14.3074C9.27925 14.4267 9.96838 14.3878 10.6212 14.1938C10.0316 13.6657 9.55993 13.0193 9.23686 12.2967C8.9138 11.5741 8.74662 10.7915 8.74623 10Z" fill="#00BAEB"/>
<path d="M3.75 10C3.74927 9.16207 3.93642 8.33464 4.29768 7.57859C4.65894 6.82254 5.18512 6.1571 5.8375 5.63125C5.76875 5.625 5.69375 5.625 5.625 5.625C4.46468 5.625 3.35188 6.08594 2.53141 6.90641C1.71094 7.72688 1.25 8.83968 1.25 10C1.25 11.1603 1.71094 12.2731 2.53141 13.0936C3.35188 13.9141 4.46468 14.375 5.625 14.375C5.69375 14.375 5.76875 14.375 5.8375 14.3687C5.18512 13.8429 4.65894 13.1775 4.29768 12.4214C3.93642 11.6654 3.74927 10.8379 3.75 10Z" fill="#D1BCE3"/>
</svg>
