<svg width="20" height="20" viewBox="0 0 20 20" fill="none" xmlns="http://www.w3.org/2000/svg">
<path d="M19.539 13.6995L12.9496 10.5895C12.9423 10.5857 12.9343 10.5837 12.9262 10.5835C12.9195 10.5837 12.913 10.5852 12.907 10.5879C12.901 10.5907 12.8956 10.5947 12.8911 10.5996C12.883 10.6067 12.8775 10.6164 12.8757 10.6271C12.8738 10.6377 12.8757 10.6487 12.881 10.6581L15.991 17.2475C15.9956 17.2571 16.003 17.2651 16.0123 17.2703C16.0215 17.2756 16.0322 17.2778 16.0428 17.2767C16.0534 17.2757 16.0634 17.2713 16.0715 17.2643C16.0795 17.2573 16.0852 17.248 16.0877 17.2377L16.6846 14.7843C16.7075 14.6894 16.7561 14.6027 16.8252 14.5336C16.8942 14.4646 16.9809 14.416 17.0758 14.3931L19.5292 13.7962C19.5395 13.7937 19.5488 13.788 19.5558 13.7799C19.5628 13.7719 19.5672 13.7619 19.5682 13.7513C19.5693 13.7407 19.5671 13.73 19.5618 13.7207C19.5566 13.7115 19.5486 13.704 19.539 13.6995H19.539Z" fill="#D1BCE3"/>
<path d="M5.85511 3.97803C2.86352 3.97803 0.429688 6.41186 0.429688 9.40345C0.429688 12.3951 2.86352 14.8288 5.85511 14.8288C8.8467 14.8288 11.2805 12.395 11.2805 9.40345C11.2805 6.41189 8.84669 3.97803 5.85511 3.97803ZM4.21253 9.84425C4.21253 9.9337 4.177 10.0195 4.11375 10.0827C4.0505 10.146 3.96472 10.1815 3.87527 10.1815H2.99366C2.90421 10.1815 2.81843 10.146 2.75518 10.0827C2.69193 10.0195 2.6564 9.9337 2.6564 9.84425V8.96265C2.6564 8.8732 2.69193 8.78742 2.75518 8.72417C2.81843 8.66092 2.90421 8.62539 2.99366 8.62538H3.87527C3.96471 8.62539 4.05049 8.66092 4.11374 8.72417C4.17699 8.78742 4.21252 8.8732 4.21252 8.96265L4.21253 9.84425ZM6.63318 9.84425C6.63318 9.88854 6.62446 9.9324 6.60751 9.97332C6.59056 10.0142 6.56571 10.0514 6.53439 10.0827C6.50308 10.1141 6.46589 10.1389 6.42497 10.1558C6.38405 10.1728 6.3402 10.1815 6.29591 10.1815H5.4143C5.37002 10.1815 5.32616 10.1728 5.28524 10.1558C5.24432 10.1389 5.20714 10.114 5.17582 10.0827C5.14451 10.0514 5.11967 10.0142 5.10272 9.97332C5.08577 9.9324 5.07705 9.88854 5.07705 9.84425V8.96265C5.07705 8.91836 5.08577 8.8745 5.10272 8.83358C5.11967 8.79266 5.14451 8.75548 5.17582 8.72416C5.20714 8.69285 5.24432 8.668 5.28524 8.65105C5.32616 8.63411 5.37002 8.62538 5.4143 8.62538H6.2959C6.34019 8.62538 6.38405 8.6341 6.42497 8.65105C6.46589 8.668 6.50307 8.69284 6.53439 8.72416C6.56571 8.75548 6.59055 8.79266 6.6075 8.83358C6.62445 8.8745 6.63317 8.91835 6.63318 8.96265L6.63318 9.84425ZM9.05381 9.84425C9.05381 9.88854 9.04509 9.9324 9.02814 9.97332C9.01119 10.0142 8.98635 10.0514 8.95503 10.0827C8.92372 10.114 8.88654 10.1389 8.84562 10.1558C8.8047 10.1728 8.76084 10.1815 8.71655 10.1815H7.83495C7.7455 10.1815 7.65972 10.146 7.59647 10.0827C7.53322 10.0195 7.49768 9.9337 7.49768 9.84425V8.96265C7.49768 8.8732 7.53322 8.78741 7.59647 8.72416C7.65972 8.66091 7.7455 8.62538 7.83495 8.62538H8.71655C8.76084 8.62538 8.80469 8.63411 8.84561 8.65105C8.88653 8.668 8.92371 8.69285 8.95503 8.72416C8.98634 8.75548 9.01119 8.79266 9.02813 8.83358C9.04508 8.8745 9.05381 8.91836 9.0538 8.96265L9.05381 9.84425Z" fill="#00BAEB"/>
<path d="M9.42499 2.72267C8.32022 2.72048 7.23201 2.99125 6.25709 3.51092C9.32744 3.71749 11.7623 6.28146 11.7623 9.40345C11.7623 12.599 9.21134 15.2099 6.03906 15.3066C7.30473 16.0395 8.77413 16.3416 10.2263 16.1676C11.6784 15.9935 13.0348 15.3527 14.0914 14.3415L12.4496 10.8631C12.4028 10.7639 12.3878 10.6528 12.4066 10.5448C12.4253 10.4368 12.477 10.3372 12.5546 10.2597C12.6321 10.1822 12.7316 10.1305 12.8396 10.1118C12.9476 10.093 13.0588 10.1081 13.1579 10.1549L15.8792 11.4393C16.0737 10.8007 16.1722 10.1367 16.1714 9.46913C16.1714 5.74911 13.145 2.72267 9.42499 2.72267Z" fill="#015EA5"/>
</svg>
