<svg width="18" height="18" viewBox="0 0 18 18" fill="none" xmlns="http://www.w3.org/2000/svg">
<path d="M1.41376 17.3333H7.41437C7.82859 17.3333 8.16406 17.0002 8.16406 16.5888V7.2445C8.16406 6.83315 7.82859 6.5 7.41437 6.5H1.41376C0.999532 6.49899 0.664062 6.83315 0.664062 7.2445V16.5888C0.664062 17.0002 0.999532 17.3333 1.41376 17.3333Z" fill="#00BAEB"/>
<path d="M16.5784 6.5H10.5778C10.1636 6.5 9.82812 6.83315 9.82812 7.2445V16.5888C9.82812 17.0002 10.1636 17.3333 10.5778 17.3333H16.5784C16.9927 17.3343 17.3281 17.0012 17.3281 16.5898V7.24552C17.3281 6.83416 16.9927 6.5 16.5784 6.5Z" fill="#015EA5"/>
<path d="M16.5672 0.666504H1.4276C1.00573 0.666504 0.664062 1.00817 0.664062 1.43005V4.06859C0.664062 4.4915 1.00573 4.83317 1.4276 4.83317H16.5661C16.9891 4.83317 17.3307 4.4915 17.3307 4.06963V1.43005C17.3307 1.00817 16.9891 0.666504 16.5672 0.666504Z" fill="#D1BCE3"/>
</svg>
