<svg width="20" height="19" viewBox="0 0 20 19" fill="none" xmlns="http://www.w3.org/2000/svg">
<path fill-rule="evenodd" clip-rule="evenodd" d="M1.25722 3.49696C0.4979 3.80069 0 4.53611 0 5.35392V16.9999C0 18.1045 0.89543 18.9999 2 18.9999H18C19.1046 18.9999 20 18.1045 20 16.9999V5.35392C20 4.53611 19.5021 3.80069 18.7428 3.49696L11.1142 0.445525C10.3989 0.159435 9.6011 0.159435 8.8858 0.445525L1.25722 3.49696ZM4.70711 7.29274C4.31658 6.90222 3.68342 6.90222 3.29289 7.29274C2.90237 7.68327 2.90237 8.31645 3.29289 8.70695L7.87868 13.2928C9.0503 14.4644 10.9497 14.4644 12.1213 13.2928L16.7071 8.70695C17.0976 8.31645 17.0976 7.68327 16.7071 7.29274C16.3166 6.90222 15.6834 6.90222 15.2929 7.29274L10.7071 11.8786C10.3166 12.2691 9.6834 12.2691 9.2929 11.8786L4.70711 7.29274Z" fill="#00BAEB"/>
</svg>
