<svg width="176" height="236" viewBox="0 0 176 236" fill="none" xmlns="http://www.w3.org/2000/svg">
<g opacity="0.05" clip-path="url(#clip0_11097_2113)">
<path d="M87.77 114.85V108.94C87.77 76.2801 49.59 49.8101 2.5 49.8101V173.98C2.5 206.64 40.68 233.11 87.77 233.11" stroke="#002448" stroke-width="5" stroke-miterlimit="10"/>
<path d="M87.77 114.85V108.94C87.77 76.2801 49.59 49.8101 2.5 49.8101V114.85C49.59 114.85 87.77 141.32 87.77 173.98V179.89" stroke="#002448" stroke-width="5" stroke-miterlimit="10"/>
<path d="M173.03 2.5C125.94 2.5 87.76 28.97 87.76 61.63V108.93V114.84V173.97C87.76 195.85 70.61 214.95 45.13 225.17C57.67 230.2 72.23 233.1 87.76 233.1C134.85 233.1 173.03 206.63 173.03 173.97V2.5Z" stroke="#002448" stroke-width="5" stroke-miterlimit="10"/>
</g>
<defs>
<clipPath id="clip0_11097_2113">
<rect width="175.53" height="235.61" fill="white"/>
</clipPath>
</defs>
</svg>
