<svg width="177" height="80" viewBox="0 0 177 80" fill="none" xmlns="http://www.w3.org/2000/svg">
<g clip-path="url(#clip0_12507_15127)">
<path d="M73.6118 9.25977H85.9956C94.9122 9.25977 101.028 14.6576 101.028 22.9521C101.028 31.2467 94.9157 36.6445 85.9956 36.6445H73.6118V9.25977ZM85.6813 31.4409C91.0962 31.4409 94.6394 28.1939 94.6394 22.9521C94.6394 17.7104 91.0962 14.4634 85.6813 14.4634H79.9177V31.4409H85.6813Z" fill="white"/>
<path d="M119.925 30.7749H107.268L104.854 36.6411H98.3896L110.539 9.25977H116.768L128.955 36.6411H122.335L119.925 30.7749ZM117.939 25.9633L113.616 15.4798L109.292 25.9633H117.939Z" fill="white"/>
<path d="M147.787 36.6445L142.531 29.0161H142.22H136.729V36.6445H130.42V9.25977H142.22C149.503 9.25977 154.058 13.0549 154.058 19.1952C154.058 23.3025 151.993 26.3137 148.45 27.8401L154.562 36.6411H147.787V36.6445ZM141.868 14.4252H136.726V23.9686H141.868C145.722 23.9686 147.669 22.1681 147.669 19.1952C147.669 16.184 145.722 14.4252 141.868 14.4252Z" fill="white"/>
<path d="M82.366 47.5653H73.6462V42.4033H97.3985V47.5653H88.6753V69.7846H82.366V47.5653Z" fill="white"/>
<path d="M120.101 64.762V69.8442H98.9941V42.4629H119.939V47.5485H105.265V53.4945H117.919V58.424H105.265V64.762H120.101Z" fill="white"/>
<path d="M138.791 69.8188L133.535 62.1903H133.224H127.733V69.8188H121.424V42.4375H133.224C140.507 42.4375 145.062 46.2327 145.062 52.3729C145.062 56.4803 142.997 59.4914 139.454 61.0178L145.566 69.8188H138.791ZM132.872 47.5995H127.729V57.1428H132.872C136.725 57.1428 138.673 55.3424 138.673 52.3694C138.673 49.3583 136.725 47.5995 132.872 47.5995Z" fill="white"/>
<path d="M167.889 63.9673H155.232L152.818 69.8334H146.354L158.503 42.4521H164.733L176.92 69.8334H170.299L167.889 63.9673ZM165.903 59.1557L161.58 48.6722L157.256 59.1557H165.903Z" fill="white"/>
<path d="M29.4469 38.9754V36.9252C29.4469 25.5953 16.2619 16.4092 0 16.4092V59.4845C0 70.8144 13.185 79.9971 29.4469 79.9971C45.7088 79.9971 58.8938 70.8144 58.8938 59.4845C58.8903 48.158 45.7088 38.9754 29.4469 38.9754Z" fill="url(#paint0_linear_12507_15127)"/>
<path d="M29.4469 59.488V61.5382C39.7241 61.5382 48.7685 65.2084 54.0349 70.7693C57.1015 67.5327 58.8903 63.6578 58.8903 59.488C58.8903 48.158 45.7054 38.9754 29.4434 38.9754V36.9252C29.4469 25.5953 16.2619 16.4092 0 16.4092V38.9719C16.2619 38.9754 29.4469 48.158 29.4469 59.488Z" fill="url(#paint1_linear_12507_15127)"/>
<path d="M58.8903 0C42.6284 0 29.4434 9.1826 29.4434 20.5126V36.9212V38.9714V59.484C29.4434 67.0743 23.5209 73.7002 14.7217 77.2456C19.0522 78.9905 24.0803 79.9965 29.4434 79.9965C45.7053 79.9965 58.8903 70.8139 58.8903 59.484V0Z" fill="url(#paint2_linear_12507_15127)"/>
</g>
<defs>
<linearGradient id="paint0_linear_12507_15127" x1="0" y1="48.2055" x2="58.8916" y2="48.2055" gradientUnits="userSpaceOnUse">
<stop stop-color="#1BB2E2"/>
<stop offset="0.00334227" stop-color="#1BB2E2"/>
<stop offset="0.313" stop-color="#3588C0"/>
<stop offset="0.5932" stop-color="#4769A8"/>
<stop offset="0.8316" stop-color="#525799"/>
<stop offset="1" stop-color="#565094"/>
</linearGradient>
<linearGradient id="paint1_linear_12507_15127" x1="29.4458" y1="-0.688118" x2="29.4458" y2="60.7166" gradientUnits="userSpaceOnUse">
<stop stop-color="#1BB2E2"/>
<stop offset="0.00334227" stop-color="#1BB2E2"/>
<stop offset="0.313" stop-color="#3588C0"/>
<stop offset="0.5932" stop-color="#4769A8"/>
<stop offset="0.8316" stop-color="#525799"/>
<stop offset="1" stop-color="#565094"/>
</linearGradient>
<linearGradient id="paint2_linear_12507_15127" x1="36.8072" y1="-23.6148" x2="36.8072" y2="69.2521" gradientUnits="userSpaceOnUse">
<stop stop-color="#565094"/>
<stop offset="1" stop-color="#1BB2E2"/>
</linearGradient>
<clipPath id="clip0_12507_15127">
<rect width="176.923" height="80" fill="white"/>
</clipPath>
</defs>
</svg>
