<svg width="332" height="326" viewBox="0 0 332 326" fill="none" xmlns="http://www.w3.org/2000/svg">
<g opacity="0.2">
<g opacity="0.1" clip-path="url(#clip0_12507_15061)">
<path d="M156.234 146.881L160.048 140.277C181.125 103.777 155.556 49.5752 102.952 19.21L22.8179 157.978C1.74061 194.478 27.3092 248.679 79.9138 279.045" stroke="white" stroke-width="5" stroke-miterlimit="10"/>
<path d="M156.233 146.882L160.048 140.277C181.125 103.777 155.556 49.5754 102.951 19.21L60.977 91.8968C113.582 122.262 139.151 176.464 118.073 212.964L114.259 219.569" stroke="white" stroke-width="5" stroke-miterlimit="10"/>
<path d="M323.988 76.3046C271.383 45.9393 211.649 50.9015 190.571 87.4012L160.046 140.262L156.232 146.867L118.072 212.949C103.951 237.401 72.4667 247.688 37.4071 242.679C48.1696 256.387 62.5632 269.016 79.9119 279.031C132.517 309.396 192.251 304.434 213.328 267.934L323.988 76.3046Z" stroke="white" stroke-width="5" stroke-miterlimit="10"/>
</g>
</g>
<defs>
<clipPath id="clip0_12507_15061">
<rect width="331.566" height="326" fill="white"/>
</clipPath>
</defs>
</svg>
