<svg width="26" height="27" viewBox="0 0 26 27" fill="none" xmlns="http://www.w3.org/2000/svg">
<g clip-path="url(#clip0_11559_45357)">
<path d="M6.95142 17.2476H1.53607C1.24884 16.2109 1.08301 15.1243 1.08301 13.9976C1.08301 12.8708 1.24884 11.7842 1.53607 10.7476H6.95142C6.83716 11.7886 6.77051 12.8724 6.77051 13.9976C6.77051 15.1227 6.83716 16.2065 6.95142 17.2476ZM17.9551 10.7476H8.58594C8.46692 11.7703 8.39551 12.8526 8.39551 13.9976C8.39551 15.1425 8.46692 16.2248 8.58594 17.2476H17.9551C18.0741 16.2248 18.1455 15.1425 18.1455 13.9976C18.1455 12.8526 18.0741 11.7703 17.9551 10.7476ZM25.0049 17.2476C25.2922 16.2109 25.458 15.1243 25.458 13.9976C25.458 12.8708 25.2922 11.7842 25.0049 10.7476H19.5896C19.7039 11.7886 19.7705 12.8724 19.7705 13.9976C19.7705 15.1227 19.7039 16.2065 19.5896 17.2476H25.0049Z" fill="#015EA5"/>
<path d="M17.7765 9.12256C16.9513 4.65143 15.066 1.81006 13.3292 1.81006C11.5923 1.81006 9.70703 4.65143 8.88184 9.12256H17.7765ZM7.23938 9.12256C7.72894 6.28555 8.63507 3.91669 9.81256 2.33215C6.38165 3.36841 3.58868 5.87772 2.16602 9.12256H7.23938ZM19.4189 9.12256H24.4923C23.0696 5.87772 20.2767 3.36841 16.8458 2.33215C18.0233 3.91669 18.9294 6.28555 19.4189 9.12256Z" fill="#D1BCE3"/>
<path d="M8.88184 18.8726C9.70703 23.3437 11.5923 26.1851 13.3292 26.1851C15.066 26.1851 16.9513 23.3437 17.7765 18.8726H8.88184ZM19.4189 18.8726C18.9294 21.7096 18.0233 24.0784 16.8458 25.663C20.2767 24.6267 23.0696 22.1174 24.4923 18.8726H19.4189ZM7.23938 18.8726H2.16602C3.58868 22.1174 6.38165 24.6267 9.81256 25.663C8.63507 24.0784 7.72894 21.7096 7.23938 18.8726Z" fill="#00BAEB"/>
</g>
<defs>
<clipPath id="clip0_11559_45357">
<rect width="26" height="26" fill="white" transform="translate(0 0.997559)"/>
</clipPath>
</defs>
</svg>
