<svg width="20" height="20" viewBox="0 0 20 20" fill="none" xmlns="http://www.w3.org/2000/svg">
<g clip-path="url(#clip0_12504_87371)">
<path d="M19.1899 4.18994L17.3099 6.06994C17.1899 6.18994 17.0299 6.24994 16.8699 6.24994H14.6299L10.4399 10.4399C10.3199 10.5599 10.1599 10.6199 9.99988 10.6199C9.83988 10.6199 9.67988 10.5599 9.55988 10.4399C9.31988 10.1999 9.31988 9.79994 9.55988 9.55994L13.7499 5.36994V3.11994C13.7499 2.94994 13.8199 2.79994 13.9299 2.67994L15.8099 0.799942C15.9899 0.619942 16.2599 0.569942 16.4899 0.659942C16.7199 0.759942 16.8799 0.979942 16.8799 1.23994V3.11994H18.7599C19.0099 3.11994 19.2399 3.26994 19.3399 3.50994C19.4199 3.73994 19.3699 4.00994 19.1899 4.18994Z" fill="#D1BCE3"/>
<path d="M14.1201 8.52999L11.3301 11.32C10.9701 11.68 10.5001 11.87 10.0001 11.87C9.50012 11.87 9.03012 11.68 8.67012 11.32C7.94012 10.59 7.94012 9.4 8.67012 8.67L11.4601 5.88C11.0101 5.71 10.5201 5.62 10.0001 5.62C7.59012 5.62 5.62012 7.58 5.62012 10C5.62012 12.41 7.58012 14.38 10.0001 14.38C12.4101 14.38 14.3801 12.42 14.3801 10C14.3801 9.48 14.2901 8.99 14.1201 8.52999Z" fill="#D1BCE3"/>
<path d="M19.3801 9.99988C19.3801 15.1699 15.1701 19.3799 10.0001 19.3799C4.83012 19.3799 0.620117 15.1699 0.620117 9.99988C0.620117 4.82988 4.83012 0.629883 10.0001 0.629883C11.2201 0.629883 12.4101 0.869883 13.5301 1.32988L13.0501 1.79988C12.6901 2.15988 12.5001 2.62988 12.5001 3.12988V4.84988L12.4201 4.92988C11.6901 4.56988 10.8701 4.36988 10.0001 4.36988C6.90012 4.36988 4.38012 6.89988 4.38012 9.99988C4.38012 13.0999 6.91012 15.6299 10.0101 15.6299C13.1101 15.6299 15.6401 13.0999 15.6401 9.99988C15.6401 9.12988 15.4401 8.30988 15.0901 7.57988L15.1601 7.49988H16.8801C17.3801 7.49988 17.8501 7.30988 18.2101 6.94988L18.6801 6.46988C19.1401 7.58988 19.3801 8.77988 19.3801 9.99988Z" fill="#00BAEB"/>
</g>
<defs>
<clipPath id="clip0_12504_87371">
<rect width="20" height="20" fill="white"/>
</clipPath>
</defs>
</svg>
