<svg width="20" height="20" viewBox="0 0 20 20" fill="none" xmlns="http://www.w3.org/2000/svg">
<g clip-path="url(#clip0_11267_16292)">
<path fill-rule="evenodd" clip-rule="evenodd" d="M15.7487 5.62676C16.5065 5.62676 17.121 5.01236 17.121 4.25451C17.121 3.49667 16.5065 2.88227 15.7487 2.88227C14.9909 2.88227 14.3765 3.49667 14.3765 4.25451C14.3765 5.01236 14.9909 5.62676 15.7487 5.62676ZM6.02734 5.20788L10.237 0.998178C10.5582 0.677047 11.0041 0.480846 11.4947 0.480846H17.7385C17.973 0.480027 18.2053 0.52561 18.4221 0.614969C18.6389 0.704329 18.8359 0.835699 19.0017 1.00151C19.1675 1.16733 19.2989 1.36431 19.3883 1.58111C19.4776 1.79792 19.5232 2.03026 19.5224 2.26475V8.50849C19.5224 8.99909 19.3262 9.44507 18.9961 9.76617L14.7929 13.9735L6.02734 5.20788Z" fill="#4285F4"/>
<path fill-rule="evenodd" clip-rule="evenodd" d="M14.7906 13.9735L9.60285 19.1661C9.27278 19.4871 8.82683 19.6923 8.33627 19.6923C7.84572 19.6923 7.39969 19.4871 7.0786 19.1661L0.834825 12.9224C0.504795 12.6012 0.308594 12.1553 0.308594 11.6647C0.308594 11.1652 0.513732 10.7192 0.834825 10.3981L6.02505 5.20789L14.7906 13.9735Z" fill="#34A853"/>
<path fill-rule="evenodd" clip-rule="evenodd" d="M3.86477 15.9522L0.834825 12.9223C0.504795 12.6013 0.308594 12.1552 0.308594 11.6647C0.308594 11.1652 0.513732 10.7192 0.834825 10.3981L6.02505 5.20789L10.3171 9.49997L3.86477 15.9522Z" fill="#FBBC05"/>
<path fill-rule="evenodd" clip-rule="evenodd" d="M18.9064 0.912938C18.5819 0.632807 18.1671 0.479355 17.7385 0.480846H11.4947C11.0041 0.480846 10.5582 0.677047 10.237 0.998178L6.02734 5.20788L10.3194 9.49997L14.6908 5.12854C14.4872 4.88282 14.376 4.57361 14.3765 4.25451C14.3765 3.49667 14.9909 2.88227 15.7487 2.88227C16.0678 2.88177 16.377 2.99297 16.6228 3.19657L18.9064 0.912938Z" fill="#EA4335"/>
<path d="M10.3147 12.7738C11.8541 12.7738 13.1021 11.5259 13.1021 9.98647C13.1021 8.44704 11.8541 7.1991 10.3147 7.1991C8.77529 7.1991 7.52734 8.44704 7.52734 9.98647C7.52734 11.5259 8.77529 12.7738 10.3147 12.7738Z" fill="#4285F4"/>
<path fill-rule="evenodd" clip-rule="evenodd" d="M14.1115 9.16661H10.4042V10.7572H12.5382C12.3392 11.7677 11.5074 12.3477 10.4042 12.3477C9.10219 12.3477 8.05333 11.2624 8.05333 9.91511C8.05333 8.5678 9.10219 7.48248 10.4042 7.48248C10.9649 7.48248 11.4712 7.68833 11.8691 8.02516L13.0264 6.82752C12.3212 6.19131 11.4169 5.79834 10.4042 5.79834C8.19801 5.79834 6.42578 7.63219 6.42578 9.91511C6.42578 12.198 8.19801 14.0319 10.4042 14.0319C12.3935 14.0319 14.2019 12.5348 14.2019 9.91511C14.2019 9.67185 14.1657 9.40986 14.1115 9.16661Z" fill="white"/>
</g>
<defs>
<clipPath id="clip0_11267_16292">
<rect width="19.3846" height="19.3846" fill="white" transform="translate(0.308594 0.307739)"/>
</clipPath>
</defs>
</svg>
