<svg width="39" height="36" viewBox="0 0 39 36" fill="none" xmlns="http://www.w3.org/2000/svg">
<path d="M1.2237 25.5C0.712922 26.3856 0.412669 27.3768 0.346156 28.397C0.279643 29.4172 0.448652 30.439 0.840114 31.3834C1.23158 32.3279 1.835 33.1696 2.60374 33.8436C3.37247 34.5176 4.28591 35.0057 5.27343 35.2703C6.26095 35.5349 7.29609 35.5688 8.29881 35.3694C9.30153 35.17 10.245 34.7427 11.0562 34.1205C11.8674 33.4983 12.5246 32.6978 12.977 31.781C13.4294 30.8642 13.665 29.8557 13.6654 28.8333C13.6659 27.3653 13.1819 25.9381 12.2884 24.7733C11.395 23.6084 10.142 22.7711 8.72396 22.3912C7.30594 22.0113 5.80216 22.11 4.446 22.6721C3.08984 23.2343 1.95715 24.2283 1.2237 25.5V25.5Z" fill="#D1BCE3"/>
<path d="M11.2305 8.16663L3.73047 21.1666C4.91992 20.6595 6.21107 20.4361 7.50178 20.5141C8.79248 20.5921 10.0473 20.9695 11.167 21.6162C12.2867 22.263 13.2405 23.1614 13.953 24.2405C14.6655 25.3195 15.1171 26.5496 15.2721 27.8333L18.5388 22.1666C12.3388 11.45 11.4388 10.425 11.2305 8.16663V8.16663Z" fill="#00BAEB"/>
<path d="M37.7745 25.5C37.3495 24.7833 25.1662 3.60831 24.9245 3.29998C23.9216 1.90112 22.4165 0.944381 20.7242 0.629994C19.0319 0.315606 17.2836 0.667938 15.8452 1.61325C14.4068 2.55857 13.3897 4.02359 13.0069 5.70172C12.624 7.37986 12.9051 9.14103 13.7912 10.6166C13.7079 10.6166 13.3745 9.89998 26.2245 32.1666C26.6623 32.925 27.2451 33.5898 27.9398 34.1229C28.6344 34.656 29.4272 35.0471 30.273 35.2739C31.1188 35.5006 32.001 35.5585 32.8691 35.4443C33.7373 35.3301 34.5745 35.0461 35.3329 34.6083C36.0913 34.1706 36.756 33.5877 37.2891 32.8931C37.8223 32.1985 38.2134 31.4056 38.4401 30.5598C38.6668 29.714 38.7248 28.8319 38.6106 27.9637C38.4964 27.0955 38.2123 26.2584 37.7745 25.5V25.5Z" fill="#015EA5"/>
</svg>
