<svg width="20" height="20" viewBox="0 0 20 20" fill="none" xmlns="http://www.w3.org/2000/svg">
<path d="M7.74998 17.1245C7.74998 16.3738 8.07622 15.656 8.64473 15.1558C8.76173 15.0523 8.80297 14.888 8.74823 14.7418C8.6935 14.5955 8.55322 14.4988 8.39723 14.4988H2.50001C1.67275 14.4988 1 15.1715 1 15.9987V17.4988C1 18.326 1.67275 18.9988 2.50001 18.9988H7.79273C7.92699 18.9988 8.05074 18.9268 8.11824 18.8105C8.18574 18.6942 8.18422 18.551 8.11672 18.4348C7.87373 18.0185 7.74998 17.5775 7.74998 17.1245ZM3.24999 17.4995C2.83673 17.4995 2.50001 17.1627 2.50001 16.7495C2.50001 16.3362 2.83677 15.9995 3.24999 15.9995C3.66325 15.9995 3.99998 16.3363 3.99998 16.7495C3.99998 17.1628 3.66325 17.4995 3.24999 17.4995Z" fill="#00BAEB"/>
<path d="M3.44178 3.24999H16.5577C16.6942 3.24999 16.8195 3.17574 16.8855 3.05723C16.9515 2.93872 16.9477 2.79247 16.8765 2.67698L16.383 1.88425C16.0387 1.33075 15.4432 1 14.7907 1H5.20802C4.55626 1 3.96079 1.33075 3.61576 1.88425L3.12305 2.67698C3.05105 2.79247 3.04729 2.93798 3.11405 3.05723C3.18078 3.17648 3.3053 3.24999 3.44178 3.24999Z" fill="#015EA5"/>
<path d="M16.374 13.75C16.3057 13.75 16.2374 13.7538 16.1707 13.7597C15.546 12.8222 14.4967 12.25 13.374 12.25C11.628 12.25 10.1873 13.5827 10.0163 15.2845C9.153 15.4517 8.49902 16.2137 8.49902 17.125C8.49902 18.1585 9.34052 19 10.374 19H16.374C17.8215 19 18.999 17.8225 18.999 16.375C18.999 14.9275 17.8215 13.75 16.374 13.75Z" fill="#D1BCE3"/>
<path d="M17.4999 9.24951H2.50001C1.67275 9.24951 1 9.92226 1 10.7495V12.2495C1 13.0767 1.67275 13.7495 2.50001 13.7495H9.49523C9.62872 13.7495 9.75173 13.6782 9.81923 13.5627C10.5602 12.29 11.923 11.4995 13.375 11.4995C14.5434 11.4995 15.6625 12.0065 16.4462 12.89C16.5092 12.9613 16.5969 13.0055 16.6922 13.0153C17.1459 13.058 17.5944 13.202 18.0234 13.445C18.1577 13.5208 18.3257 13.5073 18.4457 13.4083C18.7982 13.1202 18.9999 12.698 18.9999 12.2502V10.7502C18.9999 9.92226 18.3272 9.24951 17.4999 9.24951ZM3.24999 12.2495C2.83673 12.2495 2.50001 11.9127 2.50001 11.4995C2.50001 11.0862 2.83677 10.7495 3.24999 10.7495C3.66325 10.7495 3.99998 11.0863 3.99998 11.4995C3.99998 11.9127 3.66325 12.2495 3.24999 12.2495Z" fill="#00BAEB"/>
<path d="M17.4999 4.00049H2.50001C1.67275 4.00049 1 4.67324 1 5.50049V7.0005C1 7.82776 1.67275 8.50051 2.50001 8.50051H17.5C18.3272 8.50051 19 7.82776 19 7.0005V5.50049C18.9999 4.67324 18.3272 4.00049 17.4999 4.00049ZM3.24999 7.0005C2.83673 7.0005 2.50001 6.66374 2.50001 6.25052C2.50001 5.83726 2.83673 5.50049 3.24999 5.50049C3.66325 5.50049 3.99998 5.83725 3.99998 6.25048C3.99998 6.66374 3.66325 7.0005 3.24999 7.0005ZM17.125 7.0005H11.125C10.918 7.0005 10.75 6.83249 10.75 6.62549C10.75 6.41849 10.918 6.25048 11.125 6.25048H17.125C17.332 6.25048 17.5 6.41849 17.5 6.62549C17.5 6.83249 17.332 7.0005 17.125 7.0005Z" fill="#00BAEB"/>
</svg>
