<svg width="36" height="38" viewBox="0 0 36 38" fill="none" xmlns="http://www.w3.org/2000/svg">
<path d="M27.3072 13.0672V8.68212C28.436 8.14139 29.227 6.98345 29.227 5.63954V5.53822C29.227 3.68369 27.7303 2.1663 25.9013 2.1663H25.8015C23.9723 2.1663 22.4757 3.68369 22.4757 5.53822V5.63954C22.4757 6.98344 23.2668 8.14156 24.3957 8.68221V13.0673C22.7149 13.3306 21.1791 14.0335 19.9119 15.0679L8.03729 5.70195C8.1154 5.39695 8.17026 5.0827 8.1706 4.75294C8.17327 2.65233 6.49598 0.947299 4.42413 0.944583C2.35228 0.941956 0.670647 2.64267 0.667972 4.74327C0.665465 6.84387 2.34275 8.54891 4.4146 8.55154C5.08983 8.55239 5.71472 8.35796 6.2625 8.0421L17.9436 17.2556C16.9501 18.7759 16.3684 20.5971 16.3684 22.5576C16.3684 24.6102 17.0078 26.5085 18.0886 28.0702L14.5362 31.6721C14.2553 31.5867 13.9638 31.5269 13.6554 31.5269C11.953 31.5269 10.5728 32.9263 10.5728 34.6524C10.5728 36.3786 11.953 37.7779 13.6554 37.7779C15.3579 37.7779 16.738 36.3786 16.738 34.6524C16.738 34.3399 16.6791 34.0442 16.5948 33.7594L20.1088 30.1967C21.7038 31.4313 23.69 32.1728 25.8517 32.1728C31.0889 32.1728 35.3346 27.8679 35.3346 22.5576C35.3346 17.7504 31.8516 13.7789 27.3072 13.0672ZM25.8517 27.4871C23.1665 27.4871 20.9894 25.2801 20.9894 22.5576C20.9894 19.8351 23.1665 17.628 25.8517 17.628C28.5365 17.628 30.7136 19.8351 30.7136 22.5576C30.7136 25.2801 28.5365 27.4871 25.8517 27.4871Z" fill="#FF5C35"/>
</svg>
