<svg width="115" height="52" viewBox="0 0 115 52" fill="none" xmlns="http://www.w3.org/2000/svg">
<path d="M47.8479 6.01807H55.8974C61.6932 6.01807 65.6685 9.52667 65.6685 14.9181C65.6685 20.3096 61.6954 23.8182 55.8974 23.8182H47.8479V6.01807V6.01807ZM55.6931 20.4358C59.2128 20.4358 61.5158 18.3253 61.5158 14.9181C61.5158 11.511 59.2128 9.4004 55.6931 9.4004H51.9467V20.4358H55.6931Z" fill="white"/>
<path d="M77.9515 20.0029H69.7247L68.1557 23.8159H63.9536L71.8504 6.01807H75.8999L83.8214 23.8159H79.5183L77.9515 20.0029ZM76.6608 16.8754L73.8505 10.0611L71.0401 16.8754H76.6608Z" fill="white"/>
<path d="M96.0615 23.8182L92.6451 18.8597H92.4431H88.874V23.8182H84.7729V6.01807H92.4431C97.1771 6.01807 100.138 8.48492 100.138 12.4761C100.138 15.1459 98.7955 17.1031 96.4925 18.0953L100.466 23.8159H96.0615V23.8182ZM92.2141 9.3756H88.8718V15.5788H92.2141C94.7192 15.5788 95.9852 14.4085 95.9852 12.4761C95.9852 10.5188 94.7192 9.3756 92.2141 9.3756Z" fill="white"/>
<path d="M53.5382 30.9163H47.8704V27.561H63.3093V30.9163H57.6393V45.3589H53.5382V30.9163Z" fill="white"/>
<path d="M78.066 42.094V45.3974H64.3464V27.5996H77.9605V30.9053H68.4228V34.7702H76.6473V37.9744H68.4228V42.094H78.066Z" fill="white"/>
<path d="M90.2141 45.3818L86.7977 40.4233H86.5956H83.0266V45.3818H78.9255V27.584H86.5956C91.3297 27.584 94.2904 30.0508 94.2904 34.042C94.2904 36.7118 92.9481 38.669 90.6451 39.6612L94.6182 45.3818H90.2141ZM86.3667 30.9393H83.0243V37.1425H86.3667C88.8718 37.1425 90.1378 35.9722 90.1378 34.0397C90.1378 32.0825 88.8718 30.9393 86.3667 30.9393Z" fill="white"/>
<path d="M109.128 41.5776H100.901L99.3322 45.3906H95.1301L103.027 27.5928H107.076L114.998 45.3906H110.695L109.128 41.5776ZM107.837 38.4501L105.027 31.6358L102.217 38.4501H107.837Z" fill="white"/>
<path d="M19.1405 25.3336V24.0009C19.1405 16.6365 10.5702 10.6655 0 10.6655V38.6645C0 46.029 8.57023 51.9976 19.1405 51.9976C29.7107 51.9976 38.281 46.029 38.281 38.6645C38.2787 31.3023 29.7107 25.3336 19.1405 25.3336Z" fill="url(#paint0_linear_11797_37082)"/>
<path d="M19.1405 38.6667V39.9994C25.8207 39.9994 31.6995 42.3851 35.1227 45.9996C37.116 43.8958 38.2787 41.3771 38.2787 38.6667C38.2787 31.3023 29.7085 25.3336 19.1382 25.3336V24.0009C19.1405 16.6365 10.5702 10.6655 0 10.6655V25.3313C10.5702 25.3336 19.1405 31.3023 19.1405 38.6667Z" fill="url(#paint1_linear_11797_37082)"/>
<path d="M38.2787 0C27.7084 0 19.1382 5.96869 19.1382 13.3332V23.9988V25.3314V38.6646C19.1382 43.5983 15.2886 47.9051 9.56909 50.2096C12.3839 51.3438 15.6522 51.9977 19.1382 51.9977C29.7085 51.9977 38.2787 46.0291 38.2787 38.6646V0Z" fill="url(#paint2_linear_11797_37082)"/>
<defs>
<linearGradient id="paint0_linear_11797_37082" x1="0" y1="31.3331" x2="38.2795" y2="31.3331" gradientUnits="userSpaceOnUse">
<stop stop-color="#1BB2E2"/>
<stop offset="0.00334227" stop-color="#1BB2E2"/>
<stop offset="0.313" stop-color="#3588C0"/>
<stop offset="0.5932" stop-color="#4769A8"/>
<stop offset="0.8316" stop-color="#525799"/>
<stop offset="1" stop-color="#565094"/>
</linearGradient>
<linearGradient id="paint1_linear_11797_37082" x1="19.1398" y1="-0.447717" x2="19.1398" y2="39.4654" gradientUnits="userSpaceOnUse">
<stop stop-color="#1BB2E2"/>
<stop offset="0.00334227" stop-color="#1BB2E2"/>
<stop offset="0.313" stop-color="#3588C0"/>
<stop offset="0.5932" stop-color="#4769A8"/>
<stop offset="0.8316" stop-color="#525799"/>
<stop offset="1" stop-color="#565094"/>
</linearGradient>
<linearGradient id="paint2_linear_11797_37082" x1="23.9247" y1="-15.3496" x2="23.9247" y2="45.0139" gradientUnits="userSpaceOnUse">
<stop stop-color="#565094"/>
<stop offset="1" stop-color="#1BB2E2"/>
</linearGradient>
</defs>
</svg>
