<svg width="176" height="300" viewBox="0 0 176 300" fill="none" xmlns="http://www.w3.org/2000/svg">
<g opacity="0.05" clip-path="url(#clip0_10597_2570)">
<path d="M87.77 232.07V237.98C87.77 270.64 49.59 297.11 2.5 297.11V172.94C2.5 140.28 40.68 113.81 87.77 113.81" stroke="#002448" stroke-width="5" stroke-miterlimit="10"/>
<path d="M87.77 232.07V237.98C87.77 270.64 49.59 297.11 2.5 297.11V232.07C49.59 232.07 87.77 205.6 87.77 172.94V167.03" stroke="#002448" stroke-width="5" stroke-miterlimit="10"/>
<path d="M173.03 2.5C125.94 2.5 87.7599 28.97 87.7599 61.63V108.93V114.84V173.97C87.7599 195.85 70.6099 214.95 45.1299 225.17C57.6699 230.2 72.2299 233.1 87.7599 233.1C134.85 233.1 173.03 206.63 173.03 173.97V2.5Z" stroke="#002448" stroke-width="5" stroke-miterlimit="10"/>
</g>
<defs>
<clipPath id="clip0_10597_2570">
<rect width="175.53" height="299.61" fill="white"/>
</clipPath>
</defs>
</svg>
