<svg width="565" height="504" viewBox="0 0 565 504" fill="none" xmlns="http://www.w3.org/2000/svg">
<circle opacity="0.1" r="87" transform="matrix(-1 0 0 1 459 87)" fill="url(#paint0_linear_11812_72907)"/>
<circle opacity="0.1" r="73" transform="matrix(-1 0 0 1 189 386)" fill="url(#paint1_linear_11812_72907)"/>
<circle opacity="0.1" r="43" transform="matrix(-1 0 0 1 52 52)" fill="url(#paint2_linear_11812_72907)"/>
<circle opacity="0.1" r="12" transform="matrix(-1 0 0 1 342 12)" fill="#F3F6F8"/>
<g filter="url(#filter0_d_11812_72907)">
<rect x="45" y="45" width="445" height="369" rx="8" fill="white"/>
</g>
<rect x="65.75" y="257.75" width="262.5" height="73.5" rx="5.25" stroke="#EDF1F4" stroke-width="1.5"/>
<rect x="80" y="292" width="74" height="5" rx="2.5" fill="#EDF1F4"/>
<rect x="80" y="279" width="45.0476" height="5" rx="2.5" fill="#EDF1F4"/>
<rect x="131.334" y="279" width="58.6667" height="5" rx="2.5" fill="#EDF1F4"/>
<rect x="80" y="305" width="23" height="5" rx="2.5" fill="#EDF1F4"/>
<rect x="109" y="305" width="107" height="5" rx="2.5" fill="#EDF1F4"/>
<rect x="236" y="267" width="83" height="55" rx="6" fill="#F3F6F8"/>
<path d="M65.252 156L67.828 146.2H71.048L73.624 156H71.72L71.188 153.844H67.688L67.156 156H65.252ZM68.122 152.136H70.754L69.564 147.362H69.312L68.122 152.136ZM77.653 156.196C77.1024 156.196 76.5844 156.061 76.099 155.79C75.623 155.51 75.2404 155.104 74.951 154.572C74.6617 154.04 74.517 153.396 74.517 152.64V152.416C74.517 151.66 74.6617 151.016 74.951 150.484C75.2404 149.952 75.623 149.551 76.099 149.28C76.575 149 77.093 148.86 77.653 148.86C78.073 148.86 78.423 148.911 78.703 149.014C78.9924 149.107 79.2257 149.229 79.403 149.378C79.5804 149.527 79.7157 149.686 79.809 149.854H80.061V146.2H81.825V156H80.089V155.16H79.837C79.6784 155.421 79.431 155.659 79.095 155.874C78.7684 156.089 78.2877 156.196 77.653 156.196ZM78.185 154.656C78.7264 154.656 79.179 154.483 79.543 154.138C79.907 153.783 80.089 153.27 80.089 152.598V152.458C80.089 151.786 79.907 151.277 79.543 150.932C79.1884 150.577 78.7357 150.4 78.185 150.4C77.6437 150.4 77.191 150.577 76.827 150.932C76.463 151.277 76.281 151.786 76.281 152.458V152.598C76.281 153.27 76.463 153.783 76.827 154.138C77.191 154.483 77.6437 154.656 78.185 154.656ZM84.9008 156.196C84.5181 156.196 84.1961 156.075 83.9348 155.832C83.6828 155.58 83.5568 155.258 83.5568 154.866C83.5568 154.474 83.6828 154.157 83.9348 153.914C84.1961 153.662 84.5181 153.536 84.9008 153.536C85.2741 153.536 85.5868 153.662 85.8388 153.914C86.0908 154.157 86.2168 154.474 86.2168 154.866C86.2168 155.258 86.0908 155.58 85.8388 155.832C85.5868 156.075 85.2741 156.196 84.9008 156.196Z" fill="#889FB7"/>
<rect x="95" y="145" width="164" height="11" rx="5.5" fill="#EDF1F4"/>
<rect x="65" y="168" width="264" height="5" rx="2.5" fill="#EDF1F4"/>
<rect x="65" y="181" width="227" height="5" rx="2.5" fill="#EDF1F4"/>
<path d="M65.252 220L67.828 210.2H71.048L73.624 220H71.72L71.188 217.844H67.688L67.156 220H65.252ZM68.122 216.136H70.754L69.564 211.362H69.312L68.122 216.136ZM77.653 220.196C77.1024 220.196 76.5844 220.061 76.099 219.79C75.623 219.51 75.2404 219.104 74.951 218.572C74.6617 218.04 74.517 217.396 74.517 216.64V216.416C74.517 215.66 74.6617 215.016 74.951 214.484C75.2404 213.952 75.623 213.551 76.099 213.28C76.575 213 77.093 212.86 77.653 212.86C78.073 212.86 78.423 212.911 78.703 213.014C78.9924 213.107 79.2257 213.229 79.403 213.378C79.5804 213.527 79.7157 213.686 79.809 213.854H80.061V210.2H81.825V220H80.089V219.16H79.837C79.6784 219.421 79.431 219.659 79.095 219.874C78.7684 220.089 78.2877 220.196 77.653 220.196ZM78.185 218.656C78.7264 218.656 79.179 218.483 79.543 218.138C79.907 217.783 80.089 217.27 80.089 216.598V216.458C80.089 215.786 79.907 215.277 79.543 214.932C79.1884 214.577 78.7357 214.4 78.185 214.4C77.6437 214.4 77.191 214.577 76.827 214.932C76.463 215.277 76.281 215.786 76.281 216.458V216.598C76.281 217.27 76.463 217.783 76.827 218.138C77.191 218.483 77.6437 218.656 78.185 218.656ZM84.9008 220.196C84.5181 220.196 84.1961 220.075 83.9348 219.832C83.6828 219.58 83.5568 219.258 83.5568 218.866C83.5568 218.474 83.6828 218.157 83.9348 217.914C84.1961 217.662 84.5181 217.536 84.9008 217.536C85.2741 217.536 85.5868 217.662 85.8388 217.914C86.0908 218.157 86.2168 218.474 86.2168 218.866C86.2168 219.258 86.0908 219.58 85.8388 219.832C85.5868 220.075 85.2741 220.196 84.9008 220.196Z" fill="#889FB7"/>
<rect x="96" y="209" width="120" height="11" rx="5.5" fill="#EDF1F4"/>
<rect x="65" y="232" width="207" height="5" rx="2.5" fill="#EDF1F4"/>
<rect x="65" y="352" width="164" height="11" rx="5.5" fill="#EDF1F4"/>
<rect x="65" y="371" width="103" height="5" rx="2.5" fill="#EDF1F4"/>
<rect x="65" y="384" width="197" height="5" rx="2.5" fill="#EDF1F4"/>
<circle cx="68.5" cy="68.5" r="3.5" fill="#FF6259"/>
<circle cx="80.5" cy="68.5" r="3.5" fill="#FFBE2F"/>
<circle cx="92.5" cy="68.5" r="3.5" fill="#29CD41"/>
<rect x="360" y="163" width="88" height="11" rx="5.5" fill="#EDF1F4"/>
<rect x="360" y="184" width="110" height="5" rx="2.5" fill="#EDF1F4"/>
<rect x="360" y="196" width="58" height="5" rx="2.5" fill="#EDF1F4"/>
<rect x="360" y="221" width="110" height="5" rx="2.5" fill="#EDF1F4"/>
<rect x="360" y="233" width="58" height="5" rx="2.5" fill="#EDF1F4"/>
<g clip-path="url(#clip0_11812_72907)">
<path d="M72.1432 92.0017H72.659C74.4496 92.0428 76.211 92.8036 77.4761 94.1504C77.009 94.6542 76.5322 95.1374 76.0748 95.6412C75.3644 94.9626 74.508 94.4383 73.5738 94.2532C72.1919 93.9448 70.703 94.2224 69.5449 95.0552C68.2798 95.929 67.4234 97.4095 67.2385 98.9928C67.0342 100.555 67.4526 102.2 68.4161 103.414C69.3406 104.596 70.7516 105.336 72.2114 105.388C73.5738 105.47 74.9946 105.028 75.9872 104.02C76.7657 103.311 77.1258 102.231 77.2426 101.183C75.6271 101.183 74.0117 101.193 72.3963 101.183V99.0647H79.1986C79.5489 101.337 79.0429 103.897 77.408 105.521C76.3181 106.673 74.8097 107.351 73.2721 107.485C71.7832 107.639 70.2456 107.341 68.9221 106.58C67.3359 105.686 66.0708 104.174 65.4479 102.396C64.864 100.761 64.8543 98.9105 65.3993 97.2656C65.8956 95.7645 66.8493 94.4383 68.0755 93.513C69.253 92.598 70.6835 92.0942 72.1432 92.0017Z" fill="#3780FF"/>
<path d="M111.166 92.5364H113.249V107.218C112.558 107.218 111.857 107.228 111.166 107.207C111.176 102.324 111.166 97.4301 111.166 92.5364Z" fill="#38B137"/>
<path d="M83.8301 97.6254C85.1146 97.3684 86.5062 97.6562 87.567 98.4684C88.5304 99.1881 89.2019 100.319 89.4062 101.553C89.669 102.982 89.3381 104.544 88.4623 105.675C87.5183 106.94 85.971 107.618 84.4626 107.516C83.0807 107.433 81.7378 106.703 80.9203 105.511C79.9958 104.195 79.772 102.385 80.278 100.843C80.7841 99.1881 82.2146 97.9235 83.8301 97.6254ZM84.122 99.5788C83.5965 99.7227 83.1099 100.041 82.7596 100.494C81.8156 101.686 81.874 103.629 82.9153 104.74C83.5089 105.377 84.4042 105.675 85.2314 105.501C86.0002 105.357 86.6717 104.812 87.0415 104.092C87.6837 102.869 87.4988 101.183 86.516 100.226C85.8834 99.6096 84.9589 99.3526 84.122 99.5788Z" fill="#FA3913"/>
<path d="M94.1454 97.6254C95.6148 97.3273 97.2205 97.7591 98.3202 98.8488C100.111 100.545 100.305 103.722 98.7776 105.675C97.8531 106.909 96.3544 107.588 94.8752 107.516C93.4641 107.475 92.0725 106.734 91.2356 105.511C90.2917 104.164 90.0873 102.314 90.6225 100.741C91.1578 99.1367 92.5591 97.9133 94.1454 97.6254ZM94.4373 99.5788C93.9118 99.7227 93.4252 100.041 93.0749 100.484C92.1407 101.656 92.1796 103.568 93.1819 104.688C93.7756 105.357 94.7001 105.686 95.5564 105.501C96.3155 105.346 96.9967 104.812 97.3665 104.092C97.999 102.858 97.8141 101.172 96.8215 100.216C96.189 99.5993 95.2645 99.3526 94.4373 99.5788Z" fill="#FCBD06"/>
<path d="M102.894 98.2218C104.013 97.4815 105.502 97.2759 106.709 97.9133C107.089 98.0881 107.4 98.3863 107.702 98.6844C107.711 98.4068 107.702 98.119 107.711 97.8311C108.363 97.8414 109.015 97.8311 109.677 97.8414V106.909C109.667 108.277 109.337 109.726 108.402 110.723C107.38 111.823 105.814 112.163 104.403 111.937C102.894 111.7 101.58 110.538 100.997 109.068C101.58 108.77 102.194 108.534 102.797 108.256C103.138 109.099 103.828 109.819 104.695 109.983C105.561 110.148 106.563 109.922 107.127 109.161C107.731 108.379 107.731 107.31 107.702 106.354C107.254 106.817 106.738 107.228 106.115 107.382C104.763 107.783 103.274 107.29 102.232 106.323C101.181 105.357 100.559 103.866 100.617 102.386C100.646 100.71 101.542 99.0957 102.894 98.2218ZM104.909 99.5377C104.315 99.6405 103.76 99.9901 103.381 100.473C102.466 101.625 102.466 103.465 103.391 104.596C103.916 105.264 104.763 105.634 105.58 105.542C106.349 105.46 107.059 104.946 107.439 104.236C108.081 103.033 107.974 101.399 107.108 100.35C106.573 99.7022 105.716 99.3835 104.909 99.5377Z" fill="#3780FF"/>
<path d="M115.751 98.7462C116.919 97.5947 118.719 97.204 120.218 97.8106C121.638 98.3761 122.544 99.8051 123.001 101.275C120.889 102.201 118.787 103.116 116.675 104.041C116.967 104.627 117.415 105.161 118.018 105.377C118.865 105.696 119.877 105.583 120.587 104.987C120.87 104.761 121.094 104.462 121.308 104.175C121.843 104.555 122.378 104.925 122.913 105.305C122.154 106.508 120.879 107.351 119.507 107.485C117.989 107.68 116.374 107.063 115.391 105.809C113.775 103.835 113.931 100.525 115.751 98.7462ZM116.792 100.648C116.461 101.152 116.325 101.769 116.335 102.375C117.746 101.758 119.157 101.142 120.568 100.514C120.334 99.9388 119.77 99.5892 119.196 99.4967C118.271 99.3219 117.308 99.8462 116.792 100.648Z" fill="#FA3913"/>
</g>
<rect x="135.5" y="87.5" width="193" height="29" rx="14.5" stroke="#D2DBE2"/>
<path d="M150.632 106L149.396 97.6H150.692L151.7 105.124H151.892L153.188 97.6H155.456L156.752 105.124H156.944L157.94 97.6H159.236L158 106H155.732L154.412 98.368H154.22L152.912 106H150.632ZM163.147 106.168C162.547 106.168 162.023 106.044 161.575 105.796C161.127 105.54 160.775 105.184 160.519 104.728C160.271 104.264 160.147 103.728 160.147 103.12V102.976C160.147 102.36 160.271 101.824 160.519 101.368C160.767 100.904 161.111 100.548 161.551 100.3C161.999 100.044 162.515 99.916 163.099 99.916C163.667 99.916 164.163 100.044 164.587 100.3C165.019 100.548 165.355 100.896 165.595 101.344C165.835 101.792 165.955 102.316 165.955 102.916V103.384H161.407C161.423 103.904 161.595 104.32 161.923 104.632C162.259 104.936 162.675 105.088 163.171 105.088C163.635 105.088 163.983 104.984 164.215 104.776C164.455 104.568 164.639 104.328 164.767 104.056L165.787 104.584C165.675 104.808 165.511 105.044 165.295 105.292C165.087 105.54 164.811 105.748 164.467 105.916C164.123 106.084 163.683 106.168 163.147 106.168ZM161.419 102.436H164.695C164.663 101.988 164.503 101.64 164.215 101.392C163.927 101.136 163.551 101.008 163.087 101.008C162.623 101.008 162.243 101.136 161.947 101.392C161.659 101.64 161.483 101.988 161.419 102.436ZM170.863 106.168C170.287 106.168 169.843 106.064 169.531 105.856C169.227 105.648 168.999 105.416 168.847 105.16H168.655V106H167.443V97.6H168.679V100.888H168.871C168.967 100.728 169.095 100.576 169.255 100.432C169.415 100.28 169.627 100.156 169.891 100.06C170.155 99.964 170.479 99.916 170.863 99.916C171.359 99.916 171.815 100.036 172.231 100.276C172.647 100.516 172.979 100.864 173.227 101.32C173.475 101.776 173.599 102.32 173.599 102.952V103.132C173.599 103.772 173.471 104.32 173.215 104.776C172.967 105.224 172.635 105.568 172.219 105.808C171.811 106.048 171.359 106.168 170.863 106.168ZM170.503 105.088C171.039 105.088 171.479 104.916 171.823 104.572C172.175 104.228 172.351 103.736 172.351 103.096V102.988C172.351 102.356 172.179 101.868 171.835 101.524C171.491 101.18 171.047 101.008 170.503 101.008C169.975 101.008 169.535 101.18 169.183 101.524C168.839 101.868 168.667 102.356 168.667 102.988V103.096C168.667 103.736 168.839 104.228 169.183 104.572C169.535 104.916 169.975 105.088 170.503 105.088ZM177.579 106.168C177.091 106.168 176.639 106.048 176.223 105.808C175.807 105.568 175.471 105.224 175.215 104.776C174.967 104.32 174.843 103.772 174.843 103.132V102.952C174.843 102.32 174.967 101.776 175.215 101.32C175.463 100.864 175.795 100.516 176.211 100.276C176.627 100.036 177.083 99.916 177.579 99.916C177.963 99.916 178.283 99.964 178.539 100.06C178.803 100.156 179.019 100.28 179.187 100.432C179.355 100.576 179.483 100.728 179.571 100.888H179.763V97.6H180.999V106H179.787V105.16H179.595C179.443 105.416 179.211 105.648 178.899 105.856C178.595 106.064 178.155 106.168 177.579 106.168ZM177.927 105.088C178.463 105.088 178.903 104.916 179.247 104.572C179.599 104.228 179.775 103.736 179.775 103.096V102.988C179.775 102.356 179.603 101.868 179.259 101.524C178.915 101.18 178.471 101.008 177.927 101.008C177.399 101.008 176.959 101.18 176.607 101.524C176.263 101.868 176.091 102.356 176.091 102.988V103.096C176.091 103.736 176.263 104.228 176.607 104.572C176.959 104.916 177.399 105.088 177.927 105.088ZM185.53 106.168C184.93 106.168 184.406 106.044 183.958 105.796C183.51 105.54 183.158 105.184 182.902 104.728C182.654 104.264 182.53 103.728 182.53 103.12V102.976C182.53 102.36 182.654 101.824 182.902 101.368C183.15 100.904 183.494 100.548 183.934 100.3C184.382 100.044 184.898 99.916 185.482 99.916C186.05 99.916 186.546 100.044 186.97 100.3C187.402 100.548 187.738 100.896 187.978 101.344C188.218 101.792 188.338 102.316 188.338 102.916V103.384H183.79C183.806 103.904 183.978 104.32 184.306 104.632C184.642 104.936 185.058 105.088 185.554 105.088C186.018 105.088 186.366 104.984 186.598 104.776C186.838 104.568 187.022 104.328 187.15 104.056L188.17 104.584C188.058 104.808 187.894 105.044 187.678 105.292C187.47 105.54 187.194 105.748 186.85 105.916C186.506 106.084 186.066 106.168 185.53 106.168ZM183.802 102.436H187.078C187.046 101.988 186.886 101.64 186.598 101.392C186.31 101.136 185.934 101.008 185.47 101.008C185.006 101.008 184.626 101.136 184.33 101.392C184.042 101.64 183.866 101.988 183.802 102.436ZM192.25 106.168C191.498 106.168 190.874 106 190.378 105.664C189.882 105.328 189.578 104.82 189.466 104.14L190.618 103.864C190.682 104.192 190.79 104.452 190.942 104.644C191.094 104.836 191.282 104.972 191.506 105.052C191.738 105.132 191.986 105.172 192.25 105.172C192.642 105.172 192.942 105.096 193.15 104.944C193.366 104.792 193.474 104.596 193.474 104.356C193.474 104.116 193.374 103.94 193.174 103.828C192.974 103.716 192.678 103.624 192.286 103.552L191.878 103.48C191.478 103.408 191.114 103.304 190.786 103.168C190.458 103.032 190.198 102.844 190.006 102.604C189.814 102.364 189.718 102.056 189.718 101.68C189.718 101.12 189.926 100.688 190.342 100.384C190.758 100.072 191.31 99.916 191.998 99.916C192.662 99.916 193.206 100.068 193.63 100.372C194.062 100.668 194.342 101.072 194.47 101.584L193.318 101.908C193.246 101.548 193.094 101.296 192.862 101.152C192.63 101 192.342 100.924 191.998 100.924C191.662 100.924 191.398 100.988 191.206 101.116C191.014 101.236 190.918 101.408 190.918 101.632C190.918 101.872 191.01 102.048 191.194 102.16C191.386 102.272 191.642 102.356 191.962 102.412L192.382 102.484C192.806 102.556 193.194 102.656 193.546 102.784C193.898 102.912 194.174 103.096 194.374 103.336C194.582 103.576 194.686 103.896 194.686 104.296C194.686 104.888 194.466 105.348 194.026 105.676C193.586 106.004 192.994 106.168 192.25 106.168ZM196.131 106V100.084H197.367V106H196.131ZM196.755 99.28C196.515 99.28 196.311 99.204 196.143 99.052C195.983 98.892 195.903 98.688 195.903 98.44C195.903 98.192 195.983 97.992 196.143 97.84C196.311 97.68 196.515 97.6 196.755 97.6C197.003 97.6 197.207 97.68 197.367 97.84C197.527 97.992 197.607 98.192 197.607 98.44C197.607 98.688 197.527 98.892 197.367 99.052C197.207 99.204 197.003 99.28 196.755 99.28ZM198.913 103.072V102.892C198.913 102.268 199.037 101.736 199.285 101.296C199.541 100.856 199.877 100.516 200.293 100.276C200.709 100.036 201.165 99.916 201.661 99.916C202.237 99.916 202.677 100.024 202.981 100.24C203.293 100.456 203.521 100.688 203.665 100.936H203.857V100.084H205.057V107.212C205.057 107.572 204.949 107.86 204.733 108.076C204.525 108.292 204.237 108.4 203.869 108.4H199.885V107.32H203.485C203.717 107.32 203.833 107.2 203.833 106.96V105.076H203.641C203.553 105.22 203.429 105.368 203.269 105.52C203.109 105.672 202.897 105.796 202.633 105.892C202.377 105.988 202.053 106.036 201.661 106.036C201.165 106.036 200.705 105.92 200.281 105.688C199.865 105.448 199.533 105.108 199.285 104.668C199.037 104.22 198.913 103.688 198.913 103.072ZM201.997 104.956C202.533 104.956 202.973 104.788 203.317 104.452C203.669 104.108 203.845 103.636 203.845 103.036V102.928C203.845 102.312 203.673 101.84 203.329 101.512C202.985 101.176 202.541 101.008 201.997 101.008C201.469 101.008 201.029 101.176 200.677 101.512C200.333 101.84 200.161 102.312 200.161 102.928V103.036C200.161 103.636 200.333 104.108 200.677 104.452C201.029 104.788 201.469 104.956 201.997 104.956ZM206.877 106V100.084H208.089V100.972H208.281C208.393 100.732 208.593 100.508 208.881 100.3C209.169 100.092 209.597 99.988 210.165 99.988C210.613 99.988 211.009 100.088 211.353 100.288C211.705 100.488 211.981 100.772 212.181 101.14C212.381 101.5 212.481 101.936 212.481 102.448V106H211.245V102.544C211.245 102.032 211.117 101.656 210.861 101.416C210.605 101.168 210.253 101.044 209.805 101.044C209.293 101.044 208.881 101.212 208.569 101.548C208.265 101.884 208.113 102.372 208.113 103.012V106H206.877ZM216.506 106L218.906 97.6H221.186L223.574 106H222.242L221.69 104.02H218.402L217.85 106H216.506ZM218.726 102.82H221.366L220.142 98.404H219.95L218.726 102.82ZM224.46 103.072V102.892C224.46 102.268 224.584 101.736 224.832 101.296C225.088 100.856 225.424 100.516 225.84 100.276C226.256 100.036 226.712 99.916 227.208 99.916C227.784 99.916 228.224 100.024 228.528 100.24C228.84 100.456 229.068 100.688 229.212 100.936H229.404V100.084H230.604V107.212C230.604 107.572 230.496 107.86 230.28 108.076C230.072 108.292 229.784 108.4 229.416 108.4H225.432V107.32H229.032C229.264 107.32 229.38 107.2 229.38 106.96V105.076H229.188C229.1 105.22 228.976 105.368 228.816 105.52C228.656 105.672 228.444 105.796 228.18 105.892C227.924 105.988 227.6 106.036 227.208 106.036C226.712 106.036 226.252 105.92 225.828 105.688C225.412 105.448 225.08 105.108 224.832 104.668C224.584 104.22 224.46 103.688 224.46 103.072ZM227.544 104.956C228.08 104.956 228.52 104.788 228.864 104.452C229.216 104.108 229.392 103.636 229.392 103.036V102.928C229.392 102.312 229.22 101.84 228.876 101.512C228.532 101.176 228.088 101.008 227.544 101.008C227.016 101.008 226.576 101.176 226.224 101.512C225.88 101.84 225.708 102.312 225.708 102.928V103.036C225.708 103.636 225.88 104.108 226.224 104.452C226.576 104.788 227.016 104.956 227.544 104.956ZM235.136 106.168C234.536 106.168 234.012 106.044 233.564 105.796C233.116 105.54 232.764 105.184 232.508 104.728C232.26 104.264 232.136 103.728 232.136 103.12V102.976C232.136 102.36 232.26 101.824 232.508 101.368C232.756 100.904 233.1 100.548 233.54 100.3C233.988 100.044 234.504 99.916 235.088 99.916C235.656 99.916 236.152 100.044 236.576 100.3C237.008 100.548 237.344 100.896 237.584 101.344C237.824 101.792 237.944 102.316 237.944 102.916V103.384H233.396C233.412 103.904 233.584 104.32 233.912 104.632C234.248 104.936 234.664 105.088 235.16 105.088C235.624 105.088 235.972 104.984 236.204 104.776C236.444 104.568 236.628 104.328 236.756 104.056L237.776 104.584C237.664 104.808 237.5 105.044 237.284 105.292C237.076 105.54 236.8 105.748 236.456 105.916C236.112 106.084 235.672 106.168 235.136 106.168ZM233.408 102.436H236.684C236.652 101.988 236.492 101.64 236.204 101.392C235.916 101.136 235.54 101.008 235.076 101.008C234.612 101.008 234.232 101.136 233.936 101.392C233.648 101.64 233.472 101.988 233.408 102.436ZM239.432 106V100.084H240.644V100.972H240.836C240.948 100.732 241.148 100.508 241.436 100.3C241.724 100.092 242.152 99.988 242.72 99.988C243.168 99.988 243.564 100.088 243.908 100.288C244.26 100.488 244.536 100.772 244.736 101.14C244.936 101.5 245.036 101.936 245.036 102.448V106H243.8V102.544C243.8 102.032 243.672 101.656 243.416 101.416C243.16 101.168 242.808 101.044 242.36 101.044C241.848 101.044 241.436 101.212 241.124 101.548C240.82 101.884 240.668 102.372 240.668 103.012V106H239.432ZM248.87 106C248.51 106 248.222 105.892 248.006 105.676C247.798 105.46 247.694 105.172 247.694 104.812V101.128H246.062V100.084H247.694V98.128H248.93V100.084H250.694V101.128H248.93V104.596C248.93 104.836 249.042 104.956 249.266 104.956H250.502V106H248.87ZM254.414 106.108C253.966 106.108 253.566 106.008 253.214 105.808C252.862 105.608 252.586 105.324 252.386 104.956C252.186 104.588 252.086 104.148 252.086 103.636V100.084H253.322V103.552C253.322 104.064 253.45 104.444 253.706 104.692C253.962 104.932 254.318 105.052 254.774 105.052C255.278 105.052 255.682 104.884 255.986 104.548C256.298 104.204 256.454 103.712 256.454 103.072V100.084H257.69V106H256.478V105.112H256.286C256.174 105.352 255.974 105.58 255.686 105.796C255.398 106.004 254.974 106.108 254.414 106.108ZM259.517 106V100.084H260.729V100.78H260.921C261.017 100.532 261.169 100.352 261.377 100.24C261.593 100.12 261.857 100.06 262.169 100.06H262.877V101.176H262.121C261.721 101.176 261.393 101.288 261.137 101.512C260.881 101.728 260.753 102.064 260.753 102.52V106H259.517Z" fill="#889FB7"/>
<g clip-path="url(#clip1_11812_72907)">
<path d="M315.999 108.176L312.346 104.523C313.295 103.362 313.762 101.881 313.649 100.387C313.537 98.8918 312.855 97.4973 311.743 96.4917C310.631 95.486 309.176 94.946 307.677 94.9835C306.179 95.021 304.752 95.633 303.692 96.693C302.632 97.7529 302.02 99.1798 301.982 100.678C301.945 102.177 302.485 103.633 303.49 104.744C304.496 105.856 305.891 106.538 307.385 106.651C308.88 106.763 310.361 106.296 311.521 105.348L315.174 109L315.999 108.176ZM307.832 105.5C306.909 105.5 306.007 105.227 305.24 104.714C304.472 104.201 303.874 103.472 303.521 102.62C303.168 101.767 303.075 100.829 303.255 99.9233C303.436 99.018 303.88 98.1865 304.533 97.5339C305.185 96.8812 306.017 96.4368 306.922 96.2567C307.827 96.0766 308.766 96.169 309.618 96.5223C310.471 96.8755 311.2 97.4736 311.713 98.241C312.225 99.0085 312.499 99.9107 312.499 100.834C312.498 102.071 312.006 103.257 311.131 104.132C310.256 105.007 309.07 105.499 307.832 105.5Z" fill="#889FB7"/>
</g>
<rect x="344" y="79" width="1" height="312" fill="#EDF1F4"/>
<rect x="360" y="79" width="110" height="64" rx="8" fill="#F3F6F8"/>
<rect x="360" y="346" width="81" height="5" rx="2.5" fill="#EDF1F4"/>
<rect x="360" y="358" width="58" height="5" rx="2.5" fill="#EDF1F4"/>
<rect x="360" y="263" width="110" height="64" rx="8" fill="#F3F6F8"/>
<defs>
<filter id="filter0_d_11812_72907" x="0" y="15" width="565" height="489" filterUnits="userSpaceOnUse" color-interpolation-filters="sRGB">
<feFlood flood-opacity="0" result="BackgroundImageFix"/>
<feColorMatrix in="SourceAlpha" type="matrix" values="0 0 0 0 0 0 0 0 0 0 0 0 0 0 0 0 0 0 127 0" result="hardAlpha"/>
<feOffset dx="15" dy="30"/>
<feGaussianBlur stdDeviation="30"/>
<feComposite in2="hardAlpha" operator="out"/>
<feColorMatrix type="matrix" values="0 0 0 0 0 0 0 0 0 0.141176 0 0 0 0 0.282353 0 0 0 0.1 0"/>
<feBlend mode="normal" in2="BackgroundImageFix" result="effect1_dropShadow_11812_72907"/>
<feBlend mode="normal" in="SourceGraphic" in2="effect1_dropShadow_11812_72907" result="shape"/>
</filter>
<linearGradient id="paint0_linear_11812_72907" x1="87" y1="-2.5928e-06" x2="87" y2="174" gradientUnits="userSpaceOnUse">
<stop stop-color="#D2DBE2"/>
<stop offset="1" stop-color="#D2DBE2" stop-opacity="0"/>
</linearGradient>
<linearGradient id="paint1_linear_11812_72907" x1="146" y1="73" x2="0" y2="73" gradientUnits="userSpaceOnUse">
<stop stop-color="#00F5EB"/>
<stop offset="1" stop-color="#00F5EB" stop-opacity="0"/>
</linearGradient>
<linearGradient id="paint2_linear_11812_72907" x1="0" y1="43" x2="86" y2="43" gradientUnits="userSpaceOnUse">
<stop stop-color="#D1BCE3"/>
<stop offset="1" stop-color="#D1BCE3" stop-opacity="0"/>
</linearGradient>
<clipPath id="clip0_11812_72907">
<rect width="58" height="20" fill="white" transform="translate(65 92)"/>
</clipPath>
<clipPath id="clip1_11812_72907">
<rect width="14" height="14" fill="white" transform="translate(302 95)"/>
</clipPath>
</defs>
</svg>
