<svg width="50" height="50" viewBox="0 0 50 50" fill="none" xmlns="http://www.w3.org/2000/svg">
<path d="M45.3694 30.0815C42.5639 41.3343 31.1666 48.1827 19.9124 45.3765C8.66285 42.571 1.81452 31.1731 4.62133 19.9209C7.42552 8.6667 18.8228 1.8177 30.0737 4.62321C41.3272 7.42871 48.1749 18.8279 45.3694 30.0815Z" fill="#F7931A"/>
<path d="M34.2538 22.0076C34.6719 19.2126 32.5438 17.71 29.634 16.7077L30.5779 12.9215L28.2732 12.3472L27.3543 16.0336C26.7484 15.8826 26.1261 15.7401 25.5078 15.599L26.4333 11.8883L24.13 11.314L23.1854 15.0988C22.6839 14.9846 22.1916 14.8717 21.7137 14.7529L21.7163 14.7411L18.538 13.9475L17.9249 16.409C17.9249 16.409 19.6349 16.8009 19.5988 16.8252C20.5322 17.0582 20.7009 17.6759 20.6726 18.1656L19.5974 22.4789C19.6618 22.4953 19.7451 22.5189 19.837 22.5557C19.7602 22.5366 19.6782 22.5156 19.5935 22.4953L18.0864 28.5375C17.9722 28.8211 17.6827 29.2465 17.0302 29.085C17.0532 29.1185 15.3551 28.6668 15.3551 28.6668L14.2109 31.305L17.2101 32.0526C17.768 32.1924 18.3148 32.3388 18.8531 32.4767L17.8993 36.3062L20.2013 36.8805L21.1459 33.0917C21.7748 33.2624 22.3852 33.4199 22.9826 33.5683L22.0413 37.3394L24.3459 37.9137L25.2997 34.0914C29.2296 34.8351 32.1848 34.5352 33.4287 30.9807C34.431 28.1187 33.3788 26.4679 31.3111 25.3914C32.8169 25.0441 33.9512 24.0536 34.2538 22.0076ZM28.9881 29.3915C28.2759 32.2535 23.4571 30.7063 21.8949 30.3184L23.1604 25.245C24.7227 25.6349 29.7324 26.4068 28.9881 29.3915ZM29.7009 21.9662C29.0511 24.5695 25.0404 23.2469 23.7394 22.9226L24.8868 18.3212C26.1878 18.6454 30.3777 19.2506 29.7009 21.9662Z" fill="white"/>
</svg>
