<svg width="41" height="40" viewBox="0 0 41 40" fill="none" xmlns="http://www.w3.org/2000/svg">
<g clip-path="url(#clip0_11579_38957)">
<path d="M40.5004 4.50005C40.5004 4.81099 40.377 5.10942 40.1574 5.32896L38.4926 6.99302C38.1449 7.34146 37.423 7.86489 35.1879 8.38364C34.4816 8.54771 33.827 8.66411 33.4285 8.72896L25.1434 17.0149L23.4863 15.3571L31.7715 7.07192C31.8363 6.67349 31.9527 6.0188 32.1168 5.31255C32.6355 3.07739 33.159 2.3563 33.5074 2.00786L35.1715 0.343018C35.6293 -0.114014 36.3715 -0.114014 36.8285 0.343018L40.1574 3.67192C40.3769 3.89146 40.5004 4.18982 40.5004 4.50005Z" fill="#00BAEB"/>
<path d="M12.4805 23.7012L14.5254 21.6562L18.8385 25.9693L16.7936 28.0143L12.4805 23.7012Z" fill="#D1BCE3"/>
<path d="M1.39341 34.7927C0.20208 35.9841 0.202236 37.9156 1.39364 39.1067C2.58489 40.2977 4.51606 40.2976 5.70716 39.1065L15.1402 29.6734L10.8265 25.3596L1.39341 34.7927Z" fill="#D1BCE3"/>
<path d="M14.2354 9.42148C15.1106 6.93586 14.5543 4.05852 12.5661 2.07032C10.9249 0.429075 8.67716 -0.236392 6.54443 0.0740761C5.5942 0.212435 5.21443 1.38267 5.89357 2.06149L8.26763 4.43485L7.85287 7.35273L4.93553 7.76695L2.56147 5.39352C1.88249 4.71477 0.712724 5.09453 0.574287 6.04453C0.26335 8.17734 0.928505 10.4251 2.56991 12.0666C4.55819 14.0548 7.43584 14.6107 9.92169 13.7352L35.2928 39.1063C36.4839 40.2974 38.4151 40.2976 39.6063 39.1066C40.7977 37.9154 40.7978 35.9839 39.6066 34.7926L14.2354 9.42148Z" fill="#015EA5"/>
</g>
<defs>
<clipPath id="clip0_11579_38957">
<rect width="40" height="40" fill="white" transform="translate(0.5)"/>
</clipPath>
</defs>
</svg>
