<svg width="20" height="20" viewBox="0 0 20 20" fill="none" xmlns="http://www.w3.org/2000/svg">
<path d="M20.0032 18.8225L14.7849 13.6041C16.1404 11.9463 16.8069 9.83087 16.6464 7.69543C16.486 5.55999 15.5109 3.5679 13.9229 2.13123C12.3349 0.694554 10.2554 -0.0767949 8.1146 -0.0232684C5.97381 0.0302581 3.93549 0.904564 2.42125 2.41881C0.907006 3.93305 0.0326995 5.97137 -0.020827 8.11216C-0.0743535 10.253 0.696995 12.3324 2.13367 13.9204C3.57035 15.5085 5.56243 16.4836 7.69787 16.644C9.83331 16.8044 11.9487 16.138 13.6066 14.7825L18.8249 20.0008L20.0032 18.8225ZM8.33657 15.0008C7.01803 15.0008 5.7291 14.6098 4.63277 13.8773C3.53644 13.1447 2.68196 12.1035 2.17737 10.8854C1.67279 9.66718 1.54077 8.32673 1.798 7.03353C2.05524 5.74032 2.69017 4.55243 3.62252 3.62008C4.55487 2.68773 5.74276 2.05279 7.03597 1.79556C8.32917 1.53832 9.66962 1.67035 10.8878 2.17493C12.106 2.67952 13.1472 3.534 13.8797 4.63033C14.6122 5.72665 15.0032 7.01559 15.0032 8.33413C15.0013 10.1016 14.2982 11.7962 13.0484 13.046C11.7986 14.2958 10.1041 14.9988 8.33657 15.0008Z" fill="#015EA5"/>
</svg>
