<svg width="30" height="24" viewBox="0 0 30 24" fill="none" xmlns="http://www.w3.org/2000/svg">
<path d="M6.49687 20.1375C6.54373 20.1468 6.59065 20.1468 6.63752 20.1468H7.44375V15.8062C7.44375 14.5687 8.40935 13.5468 9.62814 13.4719C9.86252 10.7156 12.1875 8.5406 15 8.5406C17.8125 8.5406 20.1375 10.7156 20.3719 13.4719C21.5907 13.5468 22.5562 14.5687 22.5562 15.8062V20.1468H23.3625C23.4094 20.1468 23.4563 20.1468 23.5031 20.1375C26.6719 19.6687 29.0625 16.8843 29.0625 13.6593C29.0625 10.1999 26.3625 7.35933 22.9594 7.11558C22.7625 5.33436 21.9656 3.67497 20.6625 2.37183C19.1437 0.853076 17.1281 0.0280762 15 0.0280762C10.8938 0.0280762 7.5 3.1312 7.04063 7.11558C3.6375 7.35933 0.9375 10.1999 0.9375 13.6593C0.9375 16.8843 3.32812 19.6687 6.49687 20.1375Z" fill="#015EA5"/>
<path d="M14.9996 9.94678C12.8058 9.94678 11.0152 11.7374 11.0152 13.9312V14.8687H9.78711C9.27149 14.8687 8.84961 15.2905 8.84961 15.8062V23.0342C8.84961 23.5592 9.27149 23.9717 9.78711 23.9717H20.2121C20.7277 23.9717 21.1496 23.5592 21.1496 23.0342V15.8062C21.1496 15.2905 20.7277 14.8687 20.2121 14.8687H18.984V13.9312C18.984 11.7374 17.1934 9.94678 14.9996 9.94678ZM17.109 14.8687H12.8902V13.9312C12.8902 12.7687 13.8371 11.8218 14.9996 11.8218C16.1621 11.8218 17.109 12.7687 17.109 13.9312V14.8687Z" fill="#00BAEB"/>
</svg>
