<svg width="41" height="40" viewBox="0 0 41 40" fill="none" xmlns="http://www.w3.org/2000/svg">
<g clip-path="url(#clip0_11390_50899)">
<path d="M21.125 0.125C20.75 -0.125 20.25 -0.125 20 0.125C15 2.75 11.75 11 11.75 20.625C11.75 24.5 12.375 28.375 13.375 31.75C13.5 32.25 14 32.625 14.625 32.625H26.5C27 32.625 27.5 32.25 27.75 31.75C28.875 28.375 29.375 24.625 29.375 20.625C29.25 11 26 2.75 21.125 0.125ZM24.25 20C24.25 22.125 22.625 23.75 20.5 23.75C18.375 23.75 16.75 22.125 16.75 20V15C16.75 12.875 18.375 11.25 20.5 11.25C22.625 11.25 24.25 12.875 24.25 15V20Z" fill="#015EA5"/>
<path d="M25.8733 35H15.1233L14.2483 38.5C14.1233 38.875 14.2483 39.25 14.4983 39.625C14.7483 40 15.1233 40 15.4983 40H25.4983C25.8733 40 26.2483 39.875 26.4983 39.5C26.7483 39.125 26.8733 38.75 26.7483 38.375L25.8733 35Z" fill="#00BAEB"/>
<path d="M11 32.375C9.875 28.875 9.25 24.75 9.25 20.625C6.75 25 5.5 30.125 5.5 35.25V36.25C5.5 36.75 5.75 37.125 6.25 37.375C6.375 37.5 6.625 37.5 6.75 37.5C7 37.5 7.25 37.375 7.5 37.25L11.875 33.75C11.5 33.375 11.125 32.875 11 32.375Z" fill="#D1BCE3"/>
<path d="M31.75 20.5C31.75 24.75 31.125 28.875 30 32.375C29.875 32.875 29.5 33.375 29.125 33.75L33.375 37.125C33.625 37.25 33.875 37.375 34.125 37.375C34.25 37.375 34.5 37.375 34.625 37.25C35 37 35.375 36.625 35.375 36.125V35.125C35.5 30.125 34.25 25 31.75 20.5Z" fill="#D1BCE3"/>
</g>
<defs>
<clipPath id="clip0_11390_50899">
<rect width="40" height="40" fill="white" transform="translate(0.5)"/>
</clipPath>
</defs>
</svg>
