<svg width="30" height="30" viewBox="0 0 30 30" fill="none" xmlns="http://www.w3.org/2000/svg">
<path d="M13.125 10.0002H10.625C10.28 10.0002 10 10.2803 10 10.6253V18.1252C10 18.4702 10.28 18.7502 10.625 18.7502H13.125C13.47 18.7502 13.75 18.4702 13.75 18.1252V10.6253C13.75 10.2803 13.47 10.0002 13.125 10.0002Z" fill="#00BAEB"/>
<path d="M8.12501 13.7502H5.62501C5.28002 13.7502 5 14.0303 5 14.3753V18.1252C5 18.4702 5.28002 18.7502 5.62501 18.7502H8.12501C8.47001 18.7502 8.75002 18.4702 8.75002 18.1252V14.3753C8.74996 14.0303 8.47001 13.7502 8.12501 13.7502Z" fill="#00BAEB"/>
<path d="M18.125 6.25024H15.625C15.28 6.25024 15 6.53026 15 6.87526V18.1251C15 18.4701 15.28 18.7502 15.625 18.7502H18.125C18.47 18.7502 18.75 18.4701 18.75 18.1251V6.87526C18.75 6.53026 18.47 6.25024 18.125 6.25024Z" fill="#D1BCE3"/>
<path d="M29.6334 27.8662L22.1723 20.405C23.9373 18.25 24.9998 15.4976 24.9998 12.5001C24.9998 5.60767 19.3923 0.000244141 12.4999 0.000244141C5.60748 0.000244141 0 5.60767 0 12.5001C0 19.3925 5.60742 25 12.4999 25C15.4973 25 18.2498 23.9375 20.4048 22.1725L27.866 29.6337C28.1097 29.8774 28.4297 30 28.7497 30C29.0698 30 29.3898 29.8774 29.6335 29.6337C30.1222 29.145 30.1222 28.3549 29.6334 27.8662ZM12.4999 22.5C6.98618 22.5 2.49994 18.0138 2.49994 12.5001C2.49994 6.98637 6.98618 2.50018 12.4999 2.50018C18.0135 2.50018 22.4998 6.98643 22.4998 12.5001C22.4998 18.0138 18.0136 22.5 12.4999 22.5Z" fill="#015EA5"/>
</svg>
