<svg width="40" height="40" viewBox="0 0 40 40" fill="none" xmlns="http://www.w3.org/2000/svg">
<g clip-path="url(#clip0_11141_37964)">
<path d="M17.5007 13.3335H14.1673C13.7073 13.3335 13.334 13.7069 13.334 14.1668V24.1667C13.334 24.6267 13.7073 25.0001 14.1673 25.0001H17.5007C17.9607 25.0001 18.334 24.6267 18.334 24.1667V14.1668C18.334 13.7069 17.9607 13.3335 17.5007 13.3335Z" fill="#00BAEB"/>
<path d="M10.8346 18.3335H7.50132C7.04132 18.3335 6.66797 18.7069 6.66797 19.1668V24.1668C6.66797 24.6268 7.04132 25.0001 7.50132 25.0001H10.8346C11.2946 25.0001 11.668 24.6268 11.668 24.1668V19.1668C11.6679 18.7069 11.2946 18.3335 10.8346 18.3335Z" fill="#00BAEB"/>
<path d="M24.1667 8.3335H20.8334C20.3734 8.3335 20 8.70685 20 9.16685V24.1667C20 24.6267 20.3734 25 20.8334 25H24.1667C24.6267 25 25 24.6267 25 24.1667V9.16685C25 8.70685 24.6267 8.3335 24.1667 8.3335Z" fill="#D1BCE3"/>
<path d="M39.5113 37.1549L29.5631 27.2066C31.9164 24.3333 33.333 20.6633 33.333 16.6667C33.333 7.47681 25.8565 0.000244141 16.6666 0.000244141C7.47664 0.000244141 0 7.47681 0 16.6667C0 25.8566 7.47657 33.3332 16.6665 33.3332C20.6631 33.3332 24.333 31.9166 27.2064 29.5632L37.1546 39.5115C37.4796 39.8365 37.9063 39.9999 38.333 39.9999C38.7597 39.9999 39.1863 39.8365 39.5113 39.5115C40.163 38.8599 40.163 37.8065 39.5113 37.1549ZM16.6665 30C9.31491 30 3.33325 24.0184 3.33325 16.6667C3.33325 9.31507 9.31491 3.33349 16.6665 3.33349C24.018 3.33349 29.9997 9.31515 29.9997 16.6667C29.9997 24.0183 24.0181 30 16.6665 30Z" fill="#015EA5"/>
</g>
<defs>
<clipPath id="clip0_11141_37964">
<rect width="40" height="40" fill="white"/>
</clipPath>
</defs>
</svg>
