<svg width="20" height="20" viewBox="0 0 20 20" fill="none" xmlns="http://www.w3.org/2000/svg">
<path d="M5.34841 8.03792C5.69378 8.03792 5.97487 7.75545 5.97487 7.40801C5.97487 7.06072 5.69378 6.77783 5.34841 6.77783C5.00277 6.77783 4.72168 7.06072 4.72168 7.40801C4.72168 7.75545 5.00277 8.03792 5.34841 8.03792Z" fill="#00BAEB"/>
<path d="M1.85938 14.3599C1.85938 15.1535 2.50156 15.7993 3.29076 15.7993H8.95702L7.37046 18.2546C7.21102 18.5014 7.28053 18.8314 7.52576 18.9918C7.615 19.0502 7.715 19.0779 7.81389 19.0779C7.98726 19.0779 8.15705 18.9925 8.25856 18.8354L9.40334 17.0636V18.528C9.40334 18.8223 9.64044 19.0608 9.93298 19.0608C10.2255 19.0608 10.4626 18.8223 10.4626 18.528V17.0636L11.6074 18.8354C11.7668 19.0822 12.095 19.1522 12.3402 18.9918C12.5854 18.8314 12.6549 18.5014 12.4955 18.2546L10.9089 15.7993H16.5751C17.3645 15.7993 18.0064 15.1534 18.0064 14.3599V4.0061H1.85938V14.3599ZM16.3861 11.9349C16.593 12.143 16.593 12.4805 16.3861 12.6882L15.9144 13.1628L16.3861 13.6374C16.593 13.8456 16.593 14.1827 16.3861 14.3908C16.2831 14.4949 16.1475 14.5471 16.0119 14.5471C15.8763 14.5471 15.7407 14.4949 15.6373 14.3912L15.1652 13.9162L14.6931 14.3912C14.59 14.4949 14.4544 14.5471 14.3189 14.5471C14.1831 14.5471 14.0476 14.4949 13.9441 14.3908C13.7372 14.1827 13.7376 13.8456 13.9441 13.6374L14.4162 13.1628L13.9441 12.6882C13.7376 12.4805 13.7372 12.143 13.9441 11.9349C14.1511 11.7268 14.4866 11.7268 14.6931 11.9349L15.1652 12.4095L15.6373 11.9349C15.8442 11.7266 16.1796 11.7266 16.3861 11.9349ZM8.2707 9.25361C8.60227 8.97487 9.09591 9.00176 9.39493 9.31582L11.1982 11.208L13.4566 8.40758C13.184 8.40855 12.952 8.19862 12.928 7.92084C12.9029 7.62775 13.1186 7.36914 13.4099 7.34404L14.4873 7.24983C14.6634 7.23425 14.8411 7.29218 14.9744 7.40859C15.1079 7.52513 15.1903 7.69354 15.2005 7.87119L15.2562 8.86935C15.2729 9.16314 15.0493 9.41499 14.7573 9.43126C14.7471 9.43195 14.7372 9.43237 14.727 9.43237C14.5151 9.43237 14.3298 9.30589 14.2458 9.12079L11.8677 12.0695C11.7232 12.2596 11.5051 12.3771 11.2667 12.3928C11.023 12.4088 10.7869 12.3164 10.6181 12.1392L8.79261 10.2234L5.50364 13.3732C5.40116 13.4712 5.26944 13.5199 5.13855 13.5199C4.9987 13.5199 4.85884 13.4645 4.75471 13.3547C4.55306 13.1412 4.56147 12.8041 4.77333 12.6013L8.25773 9.26479L8.2707 9.25361ZM5.34889 5.7121C6.27864 5.7121 7.03461 6.47304 7.03461 7.4079C7.03461 8.34289 6.27864 9.10341 5.34889 9.10341C4.41927 9.10341 3.66289 8.34289 3.66289 7.4079C3.66289 6.47304 4.41927 5.7121 5.34889 5.7121Z" fill="#00BAEB"/>
<path d="M18.0376 1H1.88432C1.35275 1 0.921875 1.4335 0.921875 1.96824V1.97224C0.921875 2.50697 1.35275 2.94047 1.88432 2.94047H18.0376C18.5692 2.94047 19 2.50697 19 1.97224V1.96824C19 1.4335 18.5692 1 18.0376 1Z" fill="#D1BCE3"/>
</svg>
