<svg width="41" height="41" viewBox="0 0 41 41" fill="none" xmlns="http://www.w3.org/2000/svg">
<g clip-path="url(#clip0_11158_5666)">
<path d="M21.125 0.625C20.75 0.375 20.25 0.375 20 0.625C15 3.25 11.75 11.5 11.75 21.125C11.75 25 12.375 28.875 13.375 32.25C13.5 32.75 14 33.125 14.625 33.125H26.5C27 33.125 27.5 32.75 27.75 32.25C28.875 28.875 29.375 25.125 29.375 21.125C29.25 11.5 26 3.25 21.125 0.625V0.625ZM24.25 20.5C24.25 22.625 22.625 24.25 20.5 24.25C18.375 24.25 16.75 22.625 16.75 20.5V15.5C16.75 13.375 18.375 11.75 20.5 11.75C22.625 11.75 24.25 13.375 24.25 15.5V20.5Z" fill="#015EA5"/>
<path d="M25.8752 35.5H15.1252L14.2502 39C14.1252 39.375 14.2502 39.75 14.5002 40.125C14.7502 40.5 15.1252 40.5 15.5002 40.5H25.5002C25.8752 40.5 26.2502 40.375 26.5002 40C26.7502 39.625 26.8752 39.25 26.7502 38.875L25.8752 35.5Z" fill="#00BAEB"/>
<path d="M11 32.875C9.875 29.375 9.25 25.25 9.25 21.125C6.75 25.5 5.5 30.625 5.5 35.75V36.75C5.5 37.25 5.75 37.625 6.25 37.875C6.375 38 6.625 38 6.75 38C7 38 7.25 37.875 7.5 37.75L11.875 34.25C11.5 33.875 11.125 33.375 11 32.875Z" fill="#D1BCE3"/>
<path d="M31.75 21C31.75 25.25 31.125 29.375 30 32.875C29.875 33.375 29.5 33.875 29.125 34.25L33.375 37.625C33.625 37.75 33.875 37.875 34.125 37.875C34.25 37.875 34.5 37.875 34.625 37.75C35 37.5 35.375 37.125 35.375 36.625V35.625C35.5 30.625 34.25 25.5 31.75 21V21Z" fill="#D1BCE3"/>
</g>
<defs>
<clipPath id="clip0_11158_5666">
<rect width="40" height="40" fill="white" transform="translate(0.5 0.5)"/>
</clipPath>
</defs>
</svg>
