<svg width="20" height="20" viewBox="0 0 20 20" fill="none" xmlns="http://www.w3.org/2000/svg">
<rect width="20" height="20" rx="2" fill="white"/>
<g clip-path="url(#clip0_12622_1882)">
<path d="M15.7127 5.5713C15.7127 5.66014 15.6775 5.74541 15.6147 5.80813L15.1391 6.28358C15.0397 6.38313 14.8335 6.53269 14.1949 6.6809C13.9931 6.72778 13.806 6.76104 13.6922 6.77956L11.325 9.14697L10.8516 8.67331L13.2187 6.30612C13.2373 6.19229 13.2705 6.00523 13.3174 5.80345C13.4656 5.16483 13.6152 4.9588 13.7147 4.85925L14.1902 4.38358C14.321 4.253 14.533 4.253 14.6636 4.38358L15.6147 5.3347C15.6774 5.39742 15.7127 5.48266 15.7127 5.5713Z" fill="#00BAEB"/>
<path d="M7.70703 11.0576L8.2913 10.4733L9.52361 11.7057L8.93934 12.2899L7.70703 11.0576Z" fill="#D1BCE3"/>
<path d="M4.54042 14.2264C4.20004 14.5668 4.20008 15.1187 4.54048 15.459C4.88084 15.7993 5.4326 15.7992 5.77292 15.4589L8.46807 12.7638L7.23559 11.5312L4.54042 14.2264Z" fill="#D1BCE3"/>
<path d="M8.20954 6.9775C8.45961 6.26732 8.30068 5.44522 7.73262 4.87717C7.2637 4.40824 6.62149 4.2181 6.01214 4.30681C5.74064 4.34634 5.63214 4.68069 5.82618 4.87464L6.50448 5.55274L6.38598 6.38643L5.55245 6.50477L4.87415 5.82665C4.68015 5.63272 4.34593 5.74123 4.30638 6.01265C4.21754 6.62203 4.40759 7.26424 4.87656 7.73323C5.44464 8.30131 6.26682 8.46013 6.97707 8.20999L14.226 15.4589C14.5663 15.7992 15.118 15.7992 15.4584 15.459C15.7988 15.1186 15.7988 14.5668 15.4585 14.2264L8.20954 6.9775Z" fill="#015EA5"/>
</g>
<defs>
<clipPath id="clip0_12622_1882">
<rect width="11.4286" height="11.4286" fill="white" transform="translate(4.28516 4.28564)"/>
</clipPath>
</defs>
</svg>
