<svg width="52" height="52" viewBox="0 0 52 52" fill="none" xmlns="http://www.w3.org/2000/svg">
<rect width="52" height="52" rx="16" fill="url(#paint0_linear_11665_75170)"/>
<path d="M41 23.7016V31.6854C41 33.2889 39.7002 34.5887 38.0968 34.5887H35.4869L35.4355 36.6094C35.4218 37.135 34.9901 37.5524 34.4677 37.5524C34.0854 37.5524 34.3647 37.6618 29.4561 34.5887H25.2137C24.4736 34.5887 23.7975 34.3103 23.2845 33.8529C22.6199 33.2604 23.0367 32.1609 23.927 32.1609H32.7316C34.6091 32.1609 36.1311 30.6389 36.1311 28.7615V21.7661C36.1311 21.2316 36.5643 20.7983 37.0988 20.7983H38.0968C39.7002 20.7983 41 22.0981 41 23.7016Z" fill="#D1BCE3"/>
<path d="M31.8064 14.75H13.9032C12.3022 14.75 11 16.0522 11 17.6532V28.0564C11 29.6575 12.3022 30.9597 13.9032 30.9597H16.5089L16.5645 33.581C16.5815 34.3675 17.4844 34.808 18.1147 34.3335C22.8799 30.7408 22.2047 31.2499 22.5899 30.9597H31.8064C33.4075 30.9597 34.7097 29.6575 34.7097 28.0564V17.6532C34.7097 16.0522 33.4075 14.75 31.8064 14.75Z" fill="#015EA5"/>
<rect x="17" y="19.9998" width="12" height="2" rx="1" fill="#00BAEB"/>
<rect x="18" y="23.9998" width="10" height="2" rx="1" fill="#00BAEB"/>
<defs>
<linearGradient id="paint0_linear_11665_75170" x1="26" y1="0" x2="26" y2="52" gradientUnits="userSpaceOnUse">
<stop stop-color="#E0F2FF"/>
<stop offset="1" stop-color="#E0F2FF" stop-opacity="0"/>
</linearGradient>
</defs>
</svg>
