<svg width="52" height="52" viewBox="0 0 52 52" fill="none" xmlns="http://www.w3.org/2000/svg">
<rect width="52" height="52" rx="16" fill="url(#paint0_linear_11816_71415)"/>
<path d="M30.5679 38.5874C30.7096 38.5874 30.8408 38.5769 30.9562 38.5455C32.2625 38.2202 33.4482 37.5224 34.5709 36.4154C34.849 36.1374 35.0064 35.7649 35.0064 35.3714C35.0064 34.9779 34.8542 34.6107 34.5762 34.3326L31.3969 31.1481C30.8408 30.5972 29.8859 30.5867 29.3193 31.1586C28.034 32.4492 27.5146 32.5436 25.8567 31.7934L25.7728 31.7567C24.2881 31.1323 22.9135 30.0411 21.9062 28.6823C21.9009 28.6718 21.8905 28.6665 21.8852 28.656C20.7415 27.2868 20.0647 26.0591 19.7604 24.8C19.6083 24.1914 19.6975 23.7612 20.0542 23.3677C20.2956 23.1054 20.5684 22.7749 20.8359 22.4548C21.3134 21.8672 21.2714 21.0226 20.7363 20.4927L17.5674 17.3239C17.2841 17.0406 16.8854 16.8884 16.4919 16.8937C16.0932 16.9042 15.7207 17.0721 15.4584 17.3711C13.3284 19.711 13.0136 21.4161 14.1678 24.3855C15.1751 26.972 16.8329 29.1807 18.3177 31.0064C19.9178 32.9633 20.5474 33.4775 22.4938 34.9622C24.4612 36.4679 26.6594 37.9264 29.3403 38.4038C29.5344 38.4562 30.0905 38.5874 30.5679 38.5874Z" fill="#015EA5"/>
<path d="M35.2426 16.6627C30.9143 12.3292 23.8684 12.3292 19.5349 16.6627C19.3408 16.8568 19.1572 17.0562 18.9841 17.2608L19.7291 18.0058C19.9022 17.7959 20.0858 17.5966 20.2799 17.4024C24.1989 13.4834 30.5786 13.4834 34.5028 17.4024C38.4219 21.3215 38.4219 27.7063 34.5028 31.6253C34.3087 31.8195 34.1093 32.0031 33.9047 32.1762L34.6497 32.916C34.8543 32.7481 35.0537 32.5592 35.2426 32.3703C39.576 28.0368 39.576 20.991 35.2426 16.6627Z" fill="#00BAEB"/>
<path d="M22.4204 23.4359C22.4204 23.8399 22.8611 24.291 23.627 24.6635C24.0677 24.8734 24.5819 25.0518 25.1537 25.1881C25.0908 24.6216 25.0488 24.034 25.0488 23.4359C25.0488 22.8378 25.0908 22.2502 25.1537 21.6836C24.5819 21.82 24.0625 21.9984 23.627 22.2135C22.8611 22.586 22.4204 23.0319 22.4204 23.4359Z" fill="#D1BCE3"/>
<path d="M25.3268 26.3004C24.5136 26.1378 23.7791 25.9018 23.1705 25.6079C23.0184 25.5345 22.8925 25.461 22.7613 25.3823C23.1023 26.3214 23.6742 27.1661 24.4506 27.8324C24.9857 28.2888 25.5943 28.6351 26.2449 28.8712C26.1714 28.74 26.098 28.6141 26.0245 28.4619C25.7255 27.8534 25.4947 27.1136 25.3268 26.3004Z" fill="#D1BCE3"/>
<path d="M22.7614 21.4894C22.8874 21.416 23.0185 21.3425 23.1654 21.2691C23.774 20.9701 24.5137 20.7392 25.3269 20.5714C25.4948 19.7634 25.7256 19.0237 26.0247 18.4151C26.0981 18.2629 26.1716 18.1318 26.2503 18.0059C25.5945 18.2367 24.9859 18.5882 24.4508 19.0446C23.6743 19.7057 23.0972 20.5556 22.7614 21.4894Z" fill="#D1BCE3"/>
<path d="M26.4392 26.4736C26.5756 27.0455 26.754 27.5648 26.9638 28.0003C27.3416 28.7663 27.7875 29.207 28.1915 29.207C28.5955 29.207 29.0414 28.7663 29.4192 28.0003C29.629 27.5648 29.8074 27.0455 29.9438 26.4736C29.3772 26.5418 28.7896 26.5786 28.1915 26.5786C27.5934 26.5786 27.0058 26.5418 26.4392 26.4736Z" fill="#D1BCE3"/>
<path d="M29.9438 20.3979C29.8074 19.8261 29.629 19.3119 29.4192 18.8765C29.0414 18.1052 28.5955 17.6646 28.1915 17.6646C27.7875 17.6646 27.3416 18.1052 26.9638 18.8765C26.754 19.3119 26.5756 19.8261 26.4392 20.3979C27.0058 20.3349 27.5934 20.2929 28.1915 20.2929C28.7896 20.2929 29.3772 20.3349 29.9438 20.3979Z" fill="#D1BCE3"/>
<path d="M26.0982 23.4356C26.0982 24.1124 26.1454 24.7734 26.2346 25.3925C26.8537 25.4817 27.5147 25.5289 28.1915 25.5289C28.8683 25.5289 29.5293 25.4817 30.1484 25.3925C30.2376 24.7734 30.2848 24.1124 30.2848 23.4356C30.2848 22.7588 30.2376 22.103 30.1484 21.4787C29.5293 21.3895 28.8683 21.3423 28.1915 21.3423C27.5147 21.3423 26.8537 21.3895 26.2346 21.4787C26.1454 22.103 26.0982 22.7588 26.0982 23.4356Z" fill="#D1BCE3"/>
<path d="M33.9625 23.4359C33.9625 23.0319 33.5218 22.5859 32.7558 22.2135C32.3151 21.9984 31.801 21.82 31.2291 21.6836C31.2973 22.2502 31.3341 22.8378 31.3341 23.4359C31.3341 24.0339 31.2973 24.6216 31.2291 25.1882C31.801 25.0518 32.3204 24.8734 32.7558 24.6635C33.5218 24.291 33.9625 23.8398 33.9625 23.4359Z" fill="#D1BCE3"/>
<path d="M30.3634 28.4615C30.2899 28.6084 30.2112 28.7395 30.1378 28.8707C30.7883 28.6346 31.4022 28.2883 31.9373 27.8319C32.7137 27.1656 33.2856 26.321 33.6214 25.3818C33.4955 25.4605 33.3643 25.534 33.2122 25.6074C32.6088 25.9012 31.8691 26.1373 31.0559 26.3C30.888 27.1132 30.6572 27.8529 30.3634 28.4615Z" fill="#D1BCE3"/>
<path d="M31.9321 19.0446C31.4022 18.5882 30.7884 18.2367 30.1378 18.0059C30.2113 18.1318 30.2848 18.2629 30.3582 18.4151C30.6572 19.0237 30.8881 19.7582 31.056 20.5714C31.8691 20.7392 32.6036 20.9701 33.2122 21.2691C33.3643 21.3426 33.4955 21.416 33.6214 21.4895C33.2857 20.5556 32.7138 19.7057 31.9321 19.0446Z" fill="#D1BCE3"/>
<defs>
<linearGradient id="paint0_linear_11816_71415" x1="26" y1="0" x2="26" y2="52" gradientUnits="userSpaceOnUse">
<stop stop-color="#E0F2FF"/>
<stop offset="1" stop-color="#E0F2FF" stop-opacity="0"/>
</linearGradient>
</defs>
</svg>
