<svg width="52" height="52" viewBox="0 0 52 52" fill="none" xmlns="http://www.w3.org/2000/svg">
<rect width="52" height="52" rx="16" fill="url(#paint0_linear_11816_71414)"/>
<g clip-path="url(#clip0_11816_71414)">
<path d="M25.8995 33.7888C25.8999 32.4894 26.2485 31.2141 26.9087 30.0971C27.5689 28.9801 28.5162 28.0627 29.651 27.4414C30.7858 26.8201 32.0661 26.5178 33.3573 26.5664C34.6485 26.615 35.9028 27.0127 36.9883 27.7176C36.9959 27.182 37 26.6105 37 25.9938C37 22.8232 36.8928 20.8443 36.6809 18.7945H36.711C36.5938 17.6523 36.1601 16.5661 35.4592 15.6597C34.7582 14.7533 33.8183 14.063 32.7464 13.6675C32.6897 13.6459 32.633 13.6254 32.5758 13.6059C32.1522 13.4627 31.7142 13.3668 31.2698 13.3199L31.2274 13.3153C29.5318 13.1402 29.2596 13 25.6841 13C22.1085 13 21.53 13.1402 19.8359 13.3178L19.7935 13.3225C19.3269 13.3717 18.8676 13.4751 18.4247 13.6305V13.6074C17.3202 13.9851 16.3466 14.6733 15.6192 15.5904C14.8918 16.5076 14.4411 17.6153 14.3206 18.7822C14.1082 20.836 14 22.817 14 25.9938C14 29.1707 14.1082 31.1516 14.3206 33.2055C14.4657 34.6071 15.0856 35.9158 16.0764 36.9121C17.0673 37.9085 18.3687 38.5318 19.7624 38.6775L19.8048 38.6822C21.5004 38.8598 21.772 39 25.3476 39C26.5321 39 27.3899 38.9846 28.0633 38.9574C27.3775 38.285 26.8327 37.4812 26.461 36.5934C26.0894 35.7057 25.8984 34.752 25.8995 33.7888Z" fill="#015EA5"/>
<path d="M32.7717 28.1196C31.6957 28.1196 30.6439 28.4387 29.7493 29.0365C28.8546 29.6342 28.1574 30.4839 27.7456 31.478C27.3338 32.472 27.2261 33.5659 27.436 34.6212C27.6459 35.6764 28.1641 36.6458 28.9249 37.4066C29.6857 38.1674 30.6551 38.6856 31.7104 38.8955C32.7656 39.1054 33.8595 38.9977 34.8536 38.5859C35.8476 38.1742 36.6973 37.4769 37.295 36.5822C37.8928 35.6876 38.2119 34.6358 38.2119 33.5598C38.2119 32.117 37.6387 30.7333 36.6185 29.713C35.5982 28.6928 34.2145 28.1196 32.7717 28.1196ZM34.9279 34.3561H32.6635C32.4918 34.3561 32.3271 34.2879 32.2057 34.1664C32.0843 34.045 32.0161 33.8803 32.0161 33.7086V30.2301C32.0161 30.0584 32.0843 29.8937 32.2057 29.7723C32.3271 29.6509 32.4918 29.5826 32.6635 29.5826C32.8352 29.5826 32.9999 29.6509 33.1213 29.7723C33.2428 29.8937 33.311 30.0584 33.311 30.2301V33.0612H34.9279C35.0996 33.0612 35.2643 33.1294 35.3857 33.2508C35.5071 33.3722 35.5753 33.5369 35.5753 33.7086C35.5753 33.8803 35.5071 34.045 35.3857 34.1664C35.2643 34.2879 35.0996 34.3561 34.9279 34.3561Z" fill="#D1BCE3"/>
<rect x="19" y="19" width="13" height="2" rx="1" fill="#00BAEB"/>
<rect x="19" y="24" width="7" height="2" rx="1" fill="#00BAEB"/>
</g>
<defs>
<linearGradient id="paint0_linear_11816_71414" x1="26" y1="0" x2="26" y2="52" gradientUnits="userSpaceOnUse">
<stop stop-color="#E0F2FF"/>
<stop offset="1" stop-color="#E0F2FF" stop-opacity="0"/>
</linearGradient>
<clipPath id="clip0_11816_71414">
<rect width="26" height="26" fill="white" transform="translate(13 13)"/>
</clipPath>
</defs>
</svg>
