<svg width="24" height="24" viewBox="0 0 24 24" fill="none" xmlns="http://www.w3.org/2000/svg">
<path d="M11.8543 11.6341C13.1778 11.6341 14.3239 11.1594 15.2603 10.2228C16.1968 9.28635 16.6715 8.14057 16.6715 6.81688C16.6715 5.49364 16.1968 4.34771 15.2602 3.41097C14.3236 2.4747 13.1777 2 11.8543 2C10.5306 2 9.38482 2.4747 8.44839 3.41113C7.51196 4.34756 7.03711 5.49349 7.03711 6.81688C7.03711 8.14057 7.51196 9.2865 8.44854 10.2229C9.38512 11.1592 10.5311 11.6341 11.8543 11.6341Z" fill="#D1BCE3"/>
<path d="M20.2833 17.3789C20.2563 16.9891 20.2017 16.564 20.1212 16.1151C20.0401 15.6629 19.9355 15.2353 19.8104 14.8445C19.6812 14.4406 19.5054 14.0418 19.2881 13.6595C19.0626 13.2628 18.7977 12.9174 18.5005 12.6331C18.1896 12.3357 17.8091 12.0966 17.369 11.9222C16.9305 11.7487 16.4445 11.6608 15.9246 11.6608C15.7205 11.6608 15.523 11.7446 15.1417 11.9928C14.907 12.1459 14.6325 12.3229 14.3261 12.5186C14.0641 12.6856 13.7092 12.842 13.2708 12.9836C12.8431 13.122 12.4089 13.1922 11.9803 13.1922C11.5516 13.1922 11.1175 13.122 10.6894 12.9836C10.2514 12.8421 9.89652 12.6857 9.63483 12.5188C9.33134 12.3249 9.05668 12.1479 8.81849 11.9927C8.43763 11.7444 8.24003 11.6606 8.03587 11.6606C7.51585 11.6606 7.03002 11.7487 6.59163 11.9223C6.15188 12.0964 5.77117 12.3355 5.46005 12.6332C5.16296 12.9177 4.89791 13.263 4.67269 13.6595C4.45556 14.0418 4.27978 14.4405 4.15039 14.8447C4.02542 15.2355 3.9209 15.6629 3.83972 16.1151C3.75931 16.5634 3.70468 16.9887 3.67767 17.3793C3.65112 17.762 3.6377 18.1592 3.6377 18.5603C3.6377 19.6043 3.96957 20.4495 4.62402 21.0728C5.27038 21.6879 6.12563 22 7.16567 22H16.7958C17.8358 22 18.6907 21.6881 19.3372 21.0728C19.9918 20.45 20.3237 19.6046 20.3237 18.5602C20.3236 18.1572 20.31 17.7597 20.2833 17.3789Z" fill="#00BAEB"/>
</svg>
