<svg width="558" height="439" viewBox="0 0 558 439" fill="none" xmlns="http://www.w3.org/2000/svg">
<mask id="mask0_11559_46226" style="mask-type:alpha" maskUnits="userSpaceOnUse" x="0" y="0" width="558" height="439">
<rect width="558" height="439" fill="#D9D9D9"/>
</mask>
<g mask="url(#mask0_11559_46226)">
<path d="M557.035 -874C191.002 -874 5.76466e-06 -816.293 0 -646.725C-5.76466e-06 -477.156 180.198 -436.378 557.035 -436.378C926.312 -436.378 1110 -403.162 1110 -231.609C1110 -60.0553 925.004 0.666626 557.035 0.666626" stroke="#889FB7" stroke-dasharray="10 10"/>
<path d="M557.035 0.666748C191.002 0.666748 5.76466e-06 58.3739 0 227.942C-5.76466e-06 397.51 180.198 438.289 557.035 438.289C926.312 438.289 1110 471.504 1110 643.058C1110 814.611 925.004 875.333 557.035 875.333" stroke="#889FB7" stroke-dasharray="10 10"/>
</g>
</svg>
