<svg width="291" height="200" viewBox="0 0 291 200" fill="none" xmlns="http://www.w3.org/2000/svg">
<path d="M130.679 26.8474C130.717 26.5106 130.737 26.1694 130.737 25.8225C130.737 25.4757 130.717 25.1344 130.679 24.7976L129.368 24.4116C129.244 23.7291 129.031 23.0768 128.74 22.4693L129.573 21.3862C129.234 20.7876 128.829 20.2327 128.369 19.7292L127.085 20.1868C126.592 19.7169 126.036 19.3107 125.433 18.9829L125.471 17.6201C124.856 17.3393 124.204 17.1244 123.525 16.9879L122.755 18.1124C122.42 18.0688 122.078 18.0453 121.732 18.0453C121.385 18.0453 121.045 18.0688 120.709 18.1124L119.939 16.9868C119.26 17.1244 118.608 17.3381 117.993 17.619L118.031 18.9818C117.428 19.3096 116.872 19.7157 116.379 20.1857L115.095 19.728C114.633 20.2315 114.229 20.7865 113.891 21.3851L114.724 22.4682C114.433 23.0757 114.22 23.728 114.096 24.4105L112.785 24.7965C112.747 25.1333 112.727 25.4746 112.727 25.8214C112.727 26.1683 112.747 26.5095 112.785 26.8463L114.098 27.2334C114.223 27.9137 114.438 28.5638 114.727 29.1702L113.891 30.2577C114.23 30.8563 114.634 31.4113 115.095 31.9148L116.389 31.4538C116.88 31.9204 117.431 32.322 118.031 32.6487L117.993 34.0261C118.608 34.3069 119.26 34.5217 119.939 34.6582L120.718 33.5203C121.05 33.564 121.389 33.5864 121.732 33.5864C122.075 33.5864 122.414 33.564 122.746 33.5203L123.525 34.6582C124.204 34.5206 124.856 34.3069 125.471 34.0261L125.433 32.6487C126.032 32.3231 126.584 31.9204 127.075 31.4538L128.369 31.9148C128.83 31.4113 129.235 30.8563 129.573 30.2577L128.737 29.1702C129.027 28.5638 129.241 27.9148 129.366 27.2334L130.679 26.8474ZM121.855 29.5987C119.673 29.6681 117.889 27.8835 117.96 25.6994C118.022 23.7213 119.632 22.1101 121.608 22.0475C123.79 21.9781 125.573 23.7627 125.503 25.9467C125.44 27.9249 123.831 29.536 121.855 29.5987Z" fill="url(#paint0_linear_11608_47292)"/>
<path d="M94.0965 120.924C94.2877 119.23 94.3894 117.509 94.3894 115.764C94.3894 114.019 94.2877 112.298 94.0965 110.604L87.4965 108.657C86.8695 105.217 85.7942 101.935 84.3323 98.8724L88.5248 93.4201C86.8203 90.4081 84.7827 87.6099 82.4601 85.0767L75.9942 87.3794C73.5095 85.0107 70.7141 82.9665 67.6751 81.314L67.8651 74.4486C64.769 73.0332 61.4875 71.9546 58.065 71.2632L54.1877 76.928C52.5022 76.7065 50.7843 76.5901 49.0384 76.5901C47.2926 76.5901 45.5736 76.7065 43.8892 76.928L40.0118 71.2632C36.5894 71.9546 33.3078 73.0332 30.2118 74.4486L30.4018 81.314C27.3628 82.9665 24.5674 85.0107 22.0827 87.3794L15.6168 85.0767C13.2942 87.6099 11.2566 90.4081 9.55211 93.4201L13.7446 98.8724C12.2827 101.935 11.2063 105.217 10.5804 108.657L3.98034 110.604C3.78921 112.298 3.6875 114.019 3.6875 115.764C3.6875 117.509 3.78921 119.23 3.98034 120.924L10.5949 122.874C11.2264 126.303 12.3039 129.575 13.7659 132.628L9.55322 138.107C11.2577 141.119 13.2953 143.917 15.6179 146.45L22.1386 144.127C24.6098 146.475 27.3873 148.502 30.4052 150.143L30.214 157.077C33.3101 158.494 36.5917 159.571 40.0141 160.262L43.935 154.534C45.606 154.752 47.3105 154.866 49.0407 154.866C50.7709 154.866 52.4754 154.752 54.1464 154.534L58.0673 160.262C61.4897 159.571 64.7713 158.492 67.8673 157.077L67.6762 150.143C70.694 148.502 73.4715 146.475 75.9428 144.127L82.4635 146.45C84.786 143.917 86.8236 141.119 88.5281 138.107L84.3155 132.628C85.7775 129.575 86.8549 126.303 87.4864 122.874L94.0965 120.924ZM49.6588 134.781C38.6695 135.133 29.6887 126.143 30.0397 115.142C30.3571 105.179 38.4627 97.0654 48.4148 96.7477C59.4041 96.3963 68.3848 105.386 68.0339 116.387C67.7164 126.35 59.6108 134.464 49.6588 134.781Z" fill="url(#paint1_linear_11608_47292)"/>
<path d="M49.0342 146.775C31.9522 146.775 18.0547 132.863 18.0547 115.764C18.0547 98.664 31.9522 84.752 49.0342 84.752C66.1161 84.752 80.0136 98.664 80.0136 115.764C80.0136 132.864 66.1161 146.775 49.0342 146.775ZM49.0342 86.9729C33.175 86.9729 20.2722 99.8891 20.2722 115.765C20.2722 131.64 33.175 144.557 49.0342 144.557C64.8933 144.557 77.7961 131.641 77.7961 115.765C77.7961 99.888 64.8933 86.9729 49.0342 86.9729Z" fill="white"/>
<path d="M289.812 155.658C289.904 154.842 289.952 154.013 289.952 153.171C289.952 152.33 289.903 151.501 289.812 150.684L286.631 149.745C286.329 148.087 285.81 146.505 285.105 145.029L287.126 142.401C286.304 140.949 285.322 139.6 284.203 138.38L281.087 139.49C279.889 138.348 278.542 137.363 277.076 136.566L277.168 133.258C275.676 132.575 274.094 132.056 272.445 131.722L270.576 134.452C269.763 134.345 268.935 134.289 268.093 134.289C267.252 134.289 266.423 134.345 265.611 134.452L263.742 131.722C262.092 132.056 260.511 132.575 259.019 133.258L259.11 136.566C257.645 137.363 256.298 138.348 255.1 139.49L251.984 138.38C250.865 139.6 249.883 140.95 249.061 142.401L251.082 145.029C250.378 146.505 249.859 148.087 249.556 149.745L246.375 150.684C246.282 151.501 246.234 152.33 246.234 153.171C246.234 154.013 246.284 154.842 246.375 155.658L249.564 156.598C249.868 158.251 250.388 159.828 251.092 161.3L249.061 163.94C249.883 165.393 250.865 166.741 251.984 167.961L255.127 166.843C256.318 167.974 257.657 168.952 259.111 169.743L259.019 173.085C260.511 173.767 262.092 174.286 263.742 174.62L265.632 171.858C266.438 171.964 267.26 172.018 268.093 172.018C268.927 172.018 269.749 171.964 270.555 171.858L272.445 174.62C274.094 174.286 275.676 173.767 277.168 173.085L277.075 169.743C278.529 168.952 279.868 167.974 281.06 166.843L284.203 167.961C285.322 166.741 286.304 165.391 287.126 163.94L285.095 161.3C285.8 159.828 286.319 158.251 286.623 156.598L289.812 155.658ZM268.393 162.338C263.096 162.507 258.767 158.174 258.936 152.871C259.089 148.069 262.995 144.159 267.793 144.005C273.089 143.836 277.418 148.17 277.25 153.472C277.096 158.273 273.189 162.185 268.393 162.338Z" fill="url(#paint2_linear_11608_47292)"/>
<path d="M268.089 168.119C259.855 168.119 253.156 161.414 253.156 153.171C253.156 144.929 259.855 138.223 268.089 138.223C276.322 138.223 283.021 144.929 283.021 153.171C283.02 161.414 276.322 168.119 268.089 168.119ZM268.089 139.294C260.445 139.294 254.226 145.519 254.226 153.171C254.226 160.823 260.445 167.049 268.089 167.049C275.733 167.049 281.952 160.823 281.952 153.171C281.952 145.519 275.733 139.294 268.089 139.294Z" fill="white"/>
<path d="M261.216 156.073H228.148C227.898 156.073 227.695 155.87 227.695 155.619V107.495C227.695 107.244 227.898 107.042 228.148 107.042H261.216C261.467 107.042 261.669 107.244 261.669 107.495V155.619C261.669 155.87 261.466 156.073 261.216 156.073Z" fill="#EDF1F4"/>
<path d="M260.545 108.018H228.773V154.908H260.545V108.018Z" fill="white"/>
<path fill-rule="evenodd" clip-rule="evenodd" d="M251.581 138.087H237.729C236.459 138.087 235.43 139.116 235.43 140.388C235.43 141.658 236.459 142.69 237.729 142.69H251.581C252.85 142.69 253.88 141.658 253.88 140.388C253.88 139.117 252.85 138.087 251.581 138.087Z" fill="#EDF1F4"/>
<path fill-rule="evenodd" clip-rule="evenodd" d="M239.141 140.024L238.545 139.936L238.279 139.396C238.269 139.376 238.25 139.365 238.227 139.365C238.205 139.365 238.186 139.377 238.176 139.396L237.91 139.936L237.314 140.024C237.292 140.027 237.275 140.041 237.268 140.063C237.262 140.084 237.267 140.105 237.283 140.121L237.714 140.542L237.613 141.136C237.609 141.158 237.617 141.178 237.635 141.192C237.653 141.205 237.675 141.206 237.695 141.196L238.229 140.915L238.762 141.196C238.782 141.206 238.804 141.205 238.822 141.192C238.84 141.178 238.849 141.158 238.844 141.136L238.743 140.542L239.174 140.121C239.19 140.105 239.195 140.084 239.189 140.063C239.18 140.041 239.163 140.027 239.141 140.024ZM242.356 140.024L241.76 139.936L241.494 139.396C241.484 139.376 241.465 139.365 241.443 139.365C241.421 139.365 241.402 139.377 241.392 139.396L241.126 139.936L240.53 140.024C240.508 140.027 240.491 140.041 240.484 140.063C240.477 140.084 240.483 140.105 240.499 140.121L240.93 140.542L240.828 141.136C240.825 141.158 240.833 141.178 240.851 141.192C240.869 141.205 240.891 141.206 240.91 141.196L241.443 140.915L241.976 141.196C241.996 141.206 242.019 141.205 242.037 141.192C242.054 141.178 242.063 141.158 242.059 141.136L241.957 140.542L242.389 140.121C242.404 140.105 242.41 140.084 242.403 140.063C242.395 140.041 242.379 140.027 242.356 140.024ZM245.573 140.024L244.977 139.936L244.711 139.396C244.701 139.376 244.682 139.365 244.66 139.365C244.637 139.365 244.618 139.377 244.608 139.396L244.342 139.936L243.747 140.024C243.724 140.027 243.708 140.041 243.701 140.063C243.694 140.084 243.7 140.105 243.715 140.121L244.147 140.542L244.045 141.136C244.042 141.158 244.05 141.178 244.067 141.192C244.085 141.205 244.108 141.206 244.127 141.196L244.66 140.915L245.193 141.196C245.213 141.206 245.234 141.205 245.253 141.192C245.271 141.178 245.28 141.158 245.276 141.136L245.174 140.542L245.605 140.121C245.621 140.105 245.627 140.084 245.62 140.063C245.612 140.041 245.594 140.027 245.573 140.024ZM248.789 140.024L248.193 139.936L247.927 139.396C247.917 139.376 247.898 139.365 247.875 139.365C247.853 139.365 247.834 139.377 247.824 139.396L247.558 139.936L246.962 140.024C246.94 140.027 246.923 140.041 246.916 140.063C246.91 140.084 246.915 140.105 246.931 140.121L247.362 140.542L247.261 141.136C247.257 141.158 247.265 141.178 247.283 141.192C247.301 141.205 247.323 141.206 247.343 141.196L247.877 140.915L248.41 141.196C248.43 141.206 248.452 141.205 248.47 141.192C248.488 141.178 248.497 141.158 248.492 141.136L248.391 140.542L248.822 140.121C248.838 140.105 248.843 140.084 248.837 140.063C248.828 140.041 248.811 140.027 248.789 140.024ZM252.05 140.063C252.043 140.041 252.027 140.027 252.004 140.024L251.409 139.936L251.143 139.396C251.132 139.376 251.113 139.365 251.091 139.365C251.069 139.365 251.05 139.377 251.04 139.396L250.774 139.936L250.178 140.024C250.156 140.027 250.139 140.041 250.132 140.063C250.125 140.084 250.131 140.105 250.147 140.121L250.578 140.542L250.476 141.136C250.473 141.158 250.481 141.178 250.499 141.192C250.517 141.205 250.539 141.206 250.559 141.196L251.092 140.915L251.625 141.196C251.645 141.206 251.667 141.205 251.685 141.192C251.702 141.178 251.711 141.158 251.707 141.136L251.605 140.542L252.037 140.121C252.051 140.105 252.057 140.084 252.05 140.063Z" fill="white"/>
<path fill-rule="evenodd" clip-rule="evenodd" d="M244.666 114.158C242.821 114.158 241.153 114.907 239.944 116.116C238.736 117.326 237.988 118.997 237.988 120.843C237.988 122.3 238.454 123.65 239.247 124.748C240.662 123.415 242.569 122.597 244.666 122.597C246.762 122.597 248.669 123.415 250.084 124.748C250.876 123.65 251.343 122.3 251.343 120.843C251.343 118.996 250.595 117.326 249.387 116.116C248.179 114.907 246.51 114.158 244.666 114.158ZM242.546 117.829C242.121 115.526 247.211 115.526 246.785 117.829C246.566 119.013 246.054 120.246 245.081 121.004C244.833 121.197 244.498 121.197 244.25 121.004C243.276 120.246 242.764 119.013 242.546 117.829ZM244.666 112.927C249.034 112.927 252.573 116.471 252.573 120.843C252.573 125.215 249.032 128.759 244.666 128.759C240.299 128.759 236.758 125.214 236.758 120.843C236.758 116.471 240.298 112.927 244.666 112.927Z" fill="#EDF1F4"/>
<path fill-rule="evenodd" clip-rule="evenodd" d="M254.126 133.19H235.202C234.784 133.19 234.445 132.851 234.445 132.432C234.445 132.013 234.784 131.673 235.202 131.673H254.126C254.544 131.673 254.883 132.012 254.883 132.431C254.883 132.851 254.544 133.19 254.126 133.19Z" fill="#EDF1F4"/>
<path fill-rule="evenodd" clip-rule="evenodd" d="M251.644 145.925H237.709C237.465 145.925 237.266 145.726 237.266 145.481C237.266 145.236 237.465 145.037 237.709 145.037H251.644C251.889 145.037 252.088 145.236 252.088 145.481C252.089 145.726 251.89 145.925 251.644 145.925Z" fill="#EDF1F4"/>
<path fill-rule="evenodd" clip-rule="evenodd" d="M251.644 135.399H237.709C237.465 135.399 237.266 135.2 237.266 134.955C237.266 134.71 237.465 134.51 237.709 134.51H251.644C251.889 134.51 252.088 134.71 252.088 134.955C252.089 135.2 251.89 135.399 251.644 135.399Z" fill="#EDF1F4"/>
<path fill-rule="evenodd" clip-rule="evenodd" d="M251.636 147.962H237.702C237.457 147.962 237.258 147.762 237.258 147.517C237.258 147.272 237.457 147.073 237.702 147.073H251.636C251.881 147.073 252.08 147.272 252.08 147.517C252.08 147.762 251.881 147.962 251.636 147.962Z" fill="#EDF1F4"/>
<path fill-rule="evenodd" clip-rule="evenodd" d="M249.214 149.998H240.123C239.879 149.998 239.68 149.799 239.68 149.554C239.68 149.309 239.879 149.11 240.123 149.11H249.214C249.459 149.11 249.657 149.309 249.657 149.554C249.659 149.799 249.46 149.998 249.214 149.998Z" fill="#EDF1F4"/>
<path fill-rule="evenodd" clip-rule="evenodd" d="M181.999 29.7222C181.999 29.7222 127.367 54.7155 148.541 93.2448H186.473C186.473 93.2448 145.843 69.6568 181.999 29.7222Z" fill="url(#paint3_linear_11608_47292)"/>
<path fill-rule="evenodd" clip-rule="evenodd" d="M78.1151 5.104C78.1151 5.104 107.371 18.4879 96.0319 39.121H75.7188C75.7188 39.1221 97.4783 26.4901 78.1151 5.104Z" fill="url(#paint4_linear_11608_47292)"/>
<path d="M72.7778 4.87827L70.8106 6.66958L61.4219 0L72.7778 4.87827Z" fill="#D2DBE2"/>
<path d="M75.8626 3.71464L77.4721 7.56467L61.4219 0L83.016 2.372L75.8626 3.71464Z" fill="#F3F6F8"/>
<path d="M83.0202 2.37176L68.4453 1.70044L75.8669 3.7144L83.0202 2.37176Z" fill="#D2DBE2"/>
<path fill-rule="evenodd" clip-rule="evenodd" d="M0 43.9014H72.3648C72.3648 43.9014 66.9339 43.5668 63.336 40.4418C59.7369 37.3168 57.971 32.9655 54.5027 33.4679C51.0345 33.9703 52.8016 38.2108 52.8016 38.2108C52.8016 38.2108 46.8788 30.7793 35.5285 31.0523C24.1782 31.3253 28.9855 38.6572 28.9855 38.6572C28.9855 38.6572 24.7896 35.4707 20.9514 37.4735C17.1132 39.4762 20.9413 42.2253 24.898 41.5573C24.898 41.5562 24.2084 42.8966 0 43.9014Z" fill="url(#paint5_linear_11608_47292)"/>
<path fill-rule="evenodd" clip-rule="evenodd" d="M243.976 59.541H187.094C187.094 59.541 191.362 59.3373 194.191 57.4319C197.02 55.5265 198.408 52.8736 201.134 53.1791C203.86 53.4856 202.471 56.0713 202.471 56.0713C202.471 56.0713 207.126 51.5399 216.049 51.7066C224.972 51.8733 221.192 56.3432 221.192 56.3432C221.192 56.3432 224.49 54.4009 227.507 55.6216C230.523 56.8422 227.514 58.5194 224.404 58.111C224.405 58.111 224.946 58.9278 243.976 59.541Z" fill="url(#paint6_linear_11608_47292)"/>
<path d="M144.286 182.029C208.444 182.029 260.455 181.288 260.455 180.372C260.455 179.457 208.444 178.715 144.286 178.715C80.1277 178.715 28.1172 179.457 28.1172 180.372C28.1172 181.288 80.1277 182.029 144.286 182.029Z" fill="#EDF1F4"/>
<path fill-rule="evenodd" clip-rule="evenodd" d="M126.235 147.709H232.234C236.64 147.709 240.211 144.134 240.211 139.723V77.3049C240.211 72.8944 236.64 69.3196 232.234 69.3196H126.235C121.829 69.3196 118.258 72.8944 118.258 77.3049V139.723C118.258 144.134 121.83 147.709 126.235 147.709Z" fill="#EDF1F4"/>
<path fill-rule="evenodd" clip-rule="evenodd" d="M237.081 77.8346V139.193C237.081 139.683 237.023 140.158 236.911 140.612C236.819 140.988 236.692 141.352 236.531 141.696C235.587 143.744 233.519 145.161 231.12 145.161H127.383C124.09 145.161 121.422 142.491 121.422 139.193V77.8346C121.422 76.9529 121.613 76.116 121.957 75.3641C122.002 75.2645 122.049 75.1661 122.1 75.0698C122.194 74.8908 122.297 74.7174 122.408 74.5507C122.974 73.6903 123.759 72.9854 124.683 72.5166C125.494 72.1026 126.411 71.8699 127.384 71.8699H231.121C233.532 71.8699 235.609 73.3031 236.548 75.3641C236.89 76.1182 237.081 76.954 237.081 77.8346Z" fill="white"/>
<path fill-rule="evenodd" clip-rule="evenodd" d="M118.262 90.669H118.149C117.963 90.669 117.812 90.518 117.812 90.3323V81.058C117.812 80.8722 117.963 80.7212 118.149 80.7212H118.262V90.669Z" fill="#EDF1F4"/>
<path fill-rule="evenodd" clip-rule="evenodd" d="M181.882 71.8088C181.882 73.345 180.638 74.5892 179.105 74.5892C177.572 74.5892 176.328 73.3439 176.328 71.8088H181.882Z" fill="#EDF1F4"/>
<path fill-rule="evenodd" clip-rule="evenodd" d="M179.799 72.025C179.799 72.4143 179.484 72.7298 179.095 72.7298C178.706 72.7298 178.391 72.4143 178.391 72.025C178.391 71.6356 178.706 71.3201 179.095 71.3201C179.484 71.3201 179.799 71.6356 179.799 72.025Z" fill="#EDF1F4"/>
<path fill-rule="evenodd" clip-rule="evenodd" d="M207.798 82.6606C204.104 82.6606 200.758 84.1599 198.337 86.5822C195.917 89.0057 194.419 92.3545 194.419 96.0523C194.419 98.9737 195.353 101.677 196.939 103.879C199.775 101.206 203.594 99.5678 207.797 99.5678C211.999 99.5678 215.818 101.206 218.654 103.879C220.24 101.677 221.176 98.9737 221.176 96.0523C221.176 92.3545 219.678 89.0057 217.258 86.5822C214.837 84.1599 211.493 82.6606 207.798 82.6606ZM203.552 90.0149C202.699 85.3985 212.897 85.3985 212.045 90.0149C211.607 92.3869 210.581 94.8574 208.632 96.3757C208.135 96.7628 207.461 96.7628 206.965 96.3757C205.016 94.8574 203.99 92.3869 203.552 90.0149ZM207.798 80.1924C216.548 80.1924 223.642 87.2927 223.642 96.0523C223.642 104.812 216.548 111.913 207.798 111.913C199.047 111.913 191.953 104.813 191.953 96.0523C191.954 87.2938 199.047 80.1924 207.798 80.1924Z" fill="#EDF1F4"/>
<path fill-rule="evenodd" clip-rule="evenodd" d="M222.705 119.738H193.138C192.618 119.738 192.195 119.316 192.195 118.795C192.195 118.274 192.617 117.851 193.138 117.851H222.705C223.225 117.851 223.648 118.273 223.648 118.795C223.648 119.315 223.226 119.738 222.705 119.738Z" fill="#EDF1F4"/>
<path fill-rule="evenodd" clip-rule="evenodd" d="M220.66 136.838H194.646C192.261 136.838 190.328 134.901 190.328 132.514C190.328 130.125 192.262 128.191 194.646 128.191H220.66C223.046 128.191 224.978 130.125 224.978 132.514C224.978 134.901 223.045 136.838 220.66 136.838ZM194.645 136.303H220.659C221.704 136.303 222.65 135.879 223.335 135.193C224.02 134.507 224.444 133.559 224.444 132.514C224.444 131.467 224.02 130.52 223.336 129.835C222.651 129.149 221.705 128.725 220.659 128.725H194.645C193.6 128.725 192.653 129.149 191.968 129.835C191.284 130.52 190.86 131.467 190.86 132.514C190.86 133.56 191.284 134.507 191.969 135.193C192.654 135.879 193.6 136.303 194.645 136.303Z" fill="#EDF1F4"/>
<path fill-rule="evenodd" clip-rule="evenodd" d="M195.676 130.651L196.176 131.666L197.294 131.83C197.336 131.835 197.368 131.863 197.381 131.902C197.393 131.942 197.383 131.983 197.354 132.012L196.544 132.802L196.736 133.917C196.742 133.959 196.727 133.997 196.693 134.022C196.66 134.046 196.617 134.049 196.58 134.029L195.58 133.502L194.58 134.029C194.543 134.048 194.501 134.046 194.467 134.022C194.433 133.997 194.417 133.958 194.424 133.917L194.615 132.802L193.806 132.013C193.776 131.984 193.766 131.944 193.779 131.903C193.792 131.864 193.824 131.836 193.865 131.831L194.984 131.667L195.484 130.653C195.502 130.616 195.537 130.593 195.58 130.593C195.621 130.592 195.657 130.613 195.676 130.651Z" fill="#EDF1F4"/>
<path fill-rule="evenodd" clip-rule="evenodd" d="M201.699 130.651L202.199 131.666L203.318 131.83C203.359 131.835 203.392 131.863 203.404 131.902C203.416 131.942 203.406 131.983 203.377 132.012L202.568 132.802L202.759 133.917C202.766 133.959 202.75 133.997 202.717 134.022C202.683 134.046 202.641 134.049 202.604 134.029L201.603 133.502L200.603 134.029C200.566 134.048 200.525 134.046 200.49 134.022C200.457 133.997 200.441 133.958 200.448 133.917L200.639 132.802L199.83 132.013C199.799 131.984 199.789 131.944 199.803 131.903C199.815 131.864 199.847 131.836 199.889 131.831L201.008 131.667L201.507 130.653C201.525 130.616 201.561 130.593 201.603 130.593C201.645 130.592 201.68 130.613 201.699 130.651Z" fill="#EDF1F4"/>
<path fill-rule="evenodd" clip-rule="evenodd" d="M207.754 130.651L208.254 131.666L209.373 131.83C209.414 131.835 209.446 131.863 209.459 131.902C209.471 131.942 209.461 131.983 209.432 132.012L208.623 132.802L208.814 133.917C208.82 133.959 208.805 133.997 208.771 134.022C208.738 134.046 208.695 134.049 208.658 134.029L207.658 133.502L206.658 134.029C206.621 134.048 206.579 134.046 206.545 134.022C206.511 133.997 206.496 133.958 206.502 133.917L206.693 132.802L205.884 132.013C205.854 131.984 205.844 131.944 205.857 131.903C205.87 131.864 205.902 131.836 205.943 131.831L207.062 131.667L207.562 130.653C207.58 130.616 207.616 130.593 207.658 130.593C207.699 130.592 207.735 130.613 207.754 130.651Z" fill="#EDF1F4"/>
<path fill-rule="evenodd" clip-rule="evenodd" d="M213.793 130.651L214.293 131.666L215.412 131.83C215.453 131.835 215.485 131.863 215.498 131.902C215.51 131.942 215.5 131.983 215.471 132.012L214.662 132.802L214.853 133.917C214.859 133.959 214.844 133.997 214.81 134.022C214.777 134.046 214.734 134.049 214.697 134.029L213.697 133.502L212.697 134.029C212.66 134.048 212.618 134.046 212.584 134.022C212.55 133.997 212.535 133.958 212.541 133.917L212.732 132.802L211.923 132.013C211.893 131.984 211.883 131.944 211.896 131.903C211.909 131.864 211.941 131.836 211.983 131.831L213.101 131.667L213.601 130.653C213.619 130.616 213.655 130.593 213.697 130.593C213.74 130.592 213.775 130.613 213.793 130.651Z" fill="#EDF1F4"/>
<path fill-rule="evenodd" clip-rule="evenodd" d="M219.824 130.651L220.324 131.666L221.443 131.83C221.484 131.835 221.517 131.863 221.529 131.902C221.541 131.942 221.531 131.983 221.502 132.012L220.693 132.802L220.884 133.917C220.891 133.959 220.875 133.997 220.842 134.022C220.808 134.046 220.766 134.049 220.729 134.029L219.728 133.502L218.728 134.029C218.691 134.048 218.65 134.046 218.615 134.022C218.582 133.997 218.566 133.958 218.573 133.917L218.764 132.802L217.955 132.013C217.924 131.984 217.914 131.944 217.928 131.903C217.94 131.864 217.972 131.836 218.014 131.831L219.133 131.667L219.632 130.653C219.65 130.616 219.686 130.593 219.728 130.593C219.771 130.592 219.807 130.613 219.824 130.651Z" fill="#EDF1F4"/>
<path fill-rule="evenodd" clip-rule="evenodd" d="M214.462 123.454H201.417C201.027 123.454 200.711 123.137 200.711 122.746V122.274C200.711 121.884 201.027 121.567 201.417 121.567H214.462C214.852 121.567 215.168 121.884 215.168 122.274V122.746C215.167 123.138 214.851 123.454 214.462 123.454Z" fill="#EDF1F4"/>
<path fill-rule="evenodd" clip-rule="evenodd" d="M135.971 85.4744H178.51C179.875 85.4744 180.981 84.2918 180.981 82.8339C180.981 81.376 179.875 80.1934 178.51 80.1934H135.971C134.607 80.1934 133.5 81.376 133.5 82.8339C133.5 84.2918 134.605 85.4744 135.971 85.4744Z" fill="#EDF1F4"/>
<path fill-rule="evenodd" clip-rule="evenodd" d="M134.736 92.3466H179.746C180.429 92.3466 180.982 91.7558 180.982 91.0263C180.982 90.2968 180.429 89.7061 179.746 89.7061H134.736C134.053 89.7061 133.5 90.2968 133.5 91.0263C133.501 91.7558 134.053 92.3466 134.736 92.3466Z" fill="#EDF1F4"/>
<path fill-rule="evenodd" clip-rule="evenodd" d="M134.736 98.3517H179.746C180.429 98.3517 180.982 97.7609 180.982 97.0314C180.982 96.3019 180.429 95.7112 179.746 95.7112H134.736C134.053 95.7112 133.5 96.3019 133.5 97.0314C133.501 97.7609 134.053 98.3517 134.736 98.3517Z" fill="#EDF1F4"/>
<path fill-rule="evenodd" clip-rule="evenodd" d="M134.736 116.365H150.699C151.382 116.365 151.935 115.774 151.935 115.045C151.935 114.315 151.382 113.725 150.699 113.725H134.736C134.053 113.725 133.5 114.315 133.5 115.045C133.501 115.774 134.053 116.365 134.736 116.365Z" fill="#EDF1F4"/>
<path fill-rule="evenodd" clip-rule="evenodd" d="M134.736 104.356H179.746C180.429 104.356 180.982 103.766 180.982 103.036C180.982 102.307 180.429 101.716 179.746 101.716H134.736C134.053 101.716 133.5 102.307 133.5 103.036C133.501 103.764 134.053 104.356 134.736 104.356Z" fill="#EDF1F4"/>
<path fill-rule="evenodd" clip-rule="evenodd" d="M134.736 110.361H179.746C180.429 110.361 180.982 109.771 180.982 109.041C180.982 108.312 180.429 107.721 179.746 107.721H134.736C134.053 107.721 133.5 108.312 133.5 109.041C133.501 109.77 134.053 110.361 134.736 110.361Z" fill="#EDF1F4"/>
<path fill-rule="evenodd" clip-rule="evenodd" d="M136.815 129.143C136.474 128.802 136.474 128.248 136.815 127.905C137.156 127.564 137.709 127.564 138.051 127.905L140.492 130.349L145.993 124.843C146.334 124.502 146.887 124.502 147.229 124.843C147.57 125.184 147.57 125.738 147.229 126.081L141.11 132.205C140.77 132.547 140.216 132.547 139.874 132.205L136.815 129.143ZM140.492 122.838C136.631 122.838 133.5 125.972 133.5 129.838C133.5 133.703 136.631 136.837 140.492 136.837C144.354 136.837 147.485 133.703 147.485 129.838C147.485 129.134 147.381 128.456 147.189 127.815C147.166 127.739 147.109 127.685 147.032 127.666C146.955 127.647 146.88 127.667 146.824 127.723L146.107 128.441C146.053 128.495 146.032 128.567 146.047 128.642C146.13 129.027 146.174 129.427 146.174 129.837C146.174 132.977 143.63 135.524 140.492 135.524C137.355 135.524 134.811 132.977 134.811 129.837C134.811 126.696 137.355 124.149 140.492 124.149C141.808 124.149 143.018 124.597 143.982 125.348C144.069 125.416 144.192 125.408 144.27 125.33L144.893 124.707C144.939 124.661 144.96 124.605 144.956 124.54C144.953 124.476 144.925 124.421 144.875 124.381C143.676 123.417 142.151 122.838 140.492 122.838Z" fill="#EDF1F4"/>
<path fill-rule="evenodd" clip-rule="evenodd" d="M154.611 129.047H180.162C180.612 129.047 180.976 128.682 180.976 128.232C180.976 127.782 180.612 127.418 180.162 127.418H154.611C154.161 127.418 153.797 127.782 153.797 128.232C153.797 128.681 154.16 129.047 154.611 129.047Z" fill="#EDF1F4"/>
<path fill-rule="evenodd" clip-rule="evenodd" d="M154.407 132.258H165.679C166.017 132.258 166.289 131.985 166.289 131.647V131.239C166.289 130.901 166.017 130.628 165.679 130.628H154.407C154.07 130.628 153.797 130.901 153.797 131.239V131.647C153.798 131.985 154.071 132.258 154.407 132.258Z" fill="#EDF1F4"/>
<path fill-rule="evenodd" clip-rule="evenodd" d="M49.9745 155.813H77.2052C80.3538 155.813 82.2226 153.257 81.3787 150.105L66.0248 92.7376C65.1809 89.5858 61.944 87.0303 58.7955 87.0303H31.5637C28.4151 87.0303 26.5463 89.5858 27.3901 92.7376L42.7452 150.105C43.5891 153.257 46.8259 155.813 49.9745 155.813Z" fill="#EDF1F4"/>
<path fill-rule="evenodd" clip-rule="evenodd" d="M51.9131 155.813H79.1438C82.2924 155.813 84.1612 153.257 83.3173 150.105L67.9623 92.7376C67.1184 89.5858 63.8815 87.0303 60.733 87.0303H33.5012C30.3526 87.0303 28.4838 89.5858 29.3276 92.7376L44.6827 150.105C45.5266 153.257 48.7634 155.813 51.9131 155.813Z" fill="#EDF1F4"/>
<path fill-rule="evenodd" clip-rule="evenodd" d="M33.8209 88.2434C31.3451 88.2434 29.8709 90.2596 30.5337 92.7379L45.8887 150.106C46.5515 152.584 49.1055 154.6 51.5812 154.6H78.8119C81.2876 154.6 82.7619 152.584 82.0991 150.106L66.744 92.7379C66.0812 90.2596 63.5273 88.2434 61.0516 88.2434H33.8209Z" fill="#EDF1F4"/>
<path fill-rule="evenodd" clip-rule="evenodd" d="M78.631 153.872H51.4003C49.3225 153.872 47.1866 152.185 46.6289 150.105L36.6723 112.906L34.8628 106.147L33.9585 102.767L31.2738 92.7366C30.7183 90.6577 31.9511 88.9705 34.029 88.9705H39.1145C39.2945 88.9705 39.4755 89.032 39.632 89.1383C39.8164 89.258 39.9696 89.437 40.0467 89.6407C40.059 89.6709 40.069 89.7011 40.0769 89.7313L40.1685 90.077C40.3809 90.8658 41.056 91.5394 41.8238 91.8012C42.0451 91.8773 42.2743 91.9187 42.5023 91.9187H54.3623C55.3794 91.9187 55.9818 91.093 55.7091 90.077L55.6175 89.7313C55.5057 89.3117 55.7549 88.9705 56.173 88.9705H61.2596C63.3363 88.9705 65.4723 90.6577 66.0289 92.7366L75.5137 128.171L77.3222 134.93L78.2264 138.31L81.3839 150.105C81.9428 152.185 80.7088 153.872 78.631 153.872Z" fill="white"/>
<path fill-rule="evenodd" clip-rule="evenodd" d="M52.6715 89.5679H42.9385C42.64 89.5679 42.4623 89.8107 42.5428 90.1094C42.6233 90.4081 42.9295 90.6509 43.228 90.6509H52.9609C53.2594 90.6509 53.4371 90.4081 53.3566 90.1094C53.2761 89.8095 52.9699 89.5679 52.6715 89.5679Z" fill="#EDF1F4"/>
<path fill-rule="evenodd" clip-rule="evenodd" d="M66.0305 92.738C65.4739 90.6581 63.3379 88.9719 61.2601 88.9719H56.1745C55.7554 88.9719 55.5061 89.3121 55.619 89.7316L55.7118 90.0762C55.9845 91.0933 55.381 91.919 54.365 91.919H42.5027C41.4868 91.919 40.4417 91.0944 40.169 90.0762L40.0762 89.7316C39.9633 89.3121 39.533 88.9719 39.1139 88.9719H34.0283C31.9505 88.9719 30.7177 90.6581 31.2743 92.738L31.5079 93.6108H66.263L66.0305 92.738Z" fill="#EDF1F4"/>
<path fill-rule="evenodd" clip-rule="evenodd" d="M59.4252 91.3088H59.3179L59.2744 91.1455C59.2677 91.1197 59.2419 91.0996 59.2162 91.0996H57.5039C57.4782 91.0996 57.4637 91.1197 57.4704 91.1455L57.6827 91.9399C57.6894 91.9656 57.7152 91.9858 57.7409 91.9858H59.4532C59.4789 91.9858 59.4934 91.9656 59.4867 91.9399L59.4431 91.7765H59.5504C59.5761 91.7765 59.5907 91.7564 59.584 91.7307L59.4834 91.3547C59.4767 91.329 59.451 91.3088 59.4252 91.3088ZM59.2766 91.8258H58.8027L58.6507 91.2585H59.1246C59.1358 91.2585 59.1481 91.2674 59.1514 91.2797L59.2922 91.8056C59.2945 91.8168 59.2878 91.8258 59.2766 91.8258Z" fill="#EDF1F4"/>
<path fill-rule="evenodd" clip-rule="evenodd" d="M61.1727 91.4004H60.9112C60.8855 91.4004 60.8698 91.4216 60.8766 91.4474L61.0207 91.9856H61.3773L61.2331 91.4474C61.2253 91.4216 61.1985 91.4004 61.1727 91.4004Z" fill="#EDF1F4"/>
<path fill-rule="evenodd" clip-rule="evenodd" d="M61.579 91.1643H61.3175C61.2917 91.1643 61.2761 91.1856 61.2828 91.2113L61.4896 91.9856H61.8461L61.6394 91.2113C61.6315 91.1856 61.6047 91.1643 61.579 91.1643Z" fill="#EDF1F4"/>
<path fill-rule="evenodd" clip-rule="evenodd" d="M62.0009 90.928H61.7393C61.7136 90.928 61.698 90.9492 61.7047 90.975L61.9752 91.9842H62.3317L62.0612 90.975C62.0534 90.9492 62.0266 90.928 62.0009 90.928Z" fill="#EDF1F4"/>
<path fill-rule="evenodd" clip-rule="evenodd" d="M62.4227 90.6921H62.1612C62.1355 90.6921 62.1198 90.7134 62.1266 90.7391L62.4596 91.9844H62.8162L62.4831 90.7391C62.4753 90.7134 62.4484 90.6921 62.4227 90.6921Z" fill="#EDF1F4"/>
<path fill-rule="evenodd" clip-rule="evenodd" d="M37.2913 90.3794C36.9828 90.2239 36.6553 90.1411 36.3457 90.1411C36.035 90.1411 35.7522 90.2239 35.5275 90.3794C35.4906 90.4052 35.4906 90.4611 35.5286 90.5047C35.5532 90.5338 35.5879 90.5506 35.6203 90.5506C35.6359 90.5506 35.6505 90.5461 35.6628 90.5383C35.864 90.3985 36.1177 90.3246 36.396 90.3246C36.6743 90.3246 36.9671 90.3985 37.2432 90.5383C37.2935 90.564 37.346 90.5495 37.3594 90.5059C37.3717 90.4611 37.3427 90.4052 37.2913 90.3794Z" fill="#EDF1F4"/>
<path fill-rule="evenodd" clip-rule="evenodd" d="M37.1532 90.8213C36.9342 90.7105 36.7028 90.6523 36.4826 90.6523C36.2635 90.6523 36.0624 90.7105 35.9025 90.8213C35.8656 90.847 35.8656 90.903 35.9036 90.9466C35.9405 90.9902 36.0009 91.0048 36.0378 90.9791C36.1741 90.8851 36.3451 90.8347 36.5318 90.8347C36.7196 90.8347 36.9163 90.8851 37.1029 90.9791C37.1197 90.988 37.1365 90.9914 37.1521 90.9914C37.1834 90.9914 37.2102 90.9746 37.2192 90.9455C37.2337 90.903 37.2035 90.847 37.1532 90.8213Z" fill="#EDF1F4"/>
<path fill-rule="evenodd" clip-rule="evenodd" d="M37.0052 91.2619C36.8766 91.197 36.7403 91.1624 36.6106 91.1624C36.481 91.1624 36.3636 91.197 36.2697 91.2619C36.2328 91.2877 36.2328 91.3436 36.2708 91.3872C36.3077 91.4309 36.3681 91.4454 36.405 91.4197C36.4754 91.3705 36.5637 91.3447 36.6609 91.3447C36.7581 91.3447 36.8599 91.3705 36.9571 91.4197C36.9739 91.4286 36.9906 91.432 37.0063 91.432C37.0376 91.432 37.0644 91.4163 37.0733 91.3861C37.0856 91.3436 37.0555 91.2877 37.0052 91.2619Z" fill="#EDF1F4"/>
<path fill-rule="evenodd" clip-rule="evenodd" d="M36.9167 91.7011C36.8664 91.6407 36.7927 91.6038 36.7245 91.6038C36.6563 91.6038 36.6026 91.6407 36.5848 91.7C36.5836 91.7022 36.5836 91.7056 36.5825 91.7078C36.5758 91.7347 36.5769 91.7638 36.5848 91.7928C36.6127 91.8958 36.7155 91.9786 36.8184 91.9831C36.8217 91.9831 36.824 91.9831 36.8273 91.9831C36.8307 91.9831 36.8329 91.9831 36.8351 91.9831C36.9357 91.9786 36.9938 91.8947 36.967 91.7928C36.9592 91.7638 36.9435 91.7335 36.9234 91.7078C36.9212 91.7067 36.919 91.7045 36.9167 91.7011Z" fill="#EDF1F4"/>
<path fill-rule="evenodd" clip-rule="evenodd" d="M34.4682 116.034C34.3419 116.034 34.2123 115.932 34.1787 115.805L32.0327 107.786C31.9992 107.66 32.0741 107.558 32.1993 107.558H32.4653C32.5916 107.558 32.7212 107.66 32.7548 107.786L34.9008 115.805C34.9343 115.932 34.8594 116.034 34.7342 116.034H34.4682ZM31.9467 105.617C32.073 105.617 32.1479 105.515 32.1132 105.389L31.4258 102.82C31.3923 102.693 31.2626 102.592 31.1363 102.592H30.8703C30.744 102.592 30.6691 102.693 30.7038 102.82L31.3912 105.389C31.4247 105.515 31.5544 105.617 31.6807 105.617H31.9467ZM37.4994 126.365C37.6257 126.365 37.7006 126.263 37.666 126.137L35.52 118.118C35.4864 117.992 35.3568 117.89 35.2305 117.89H34.9645C34.8382 117.89 34.7633 117.992 34.7979 118.118L36.9439 126.137C36.9775 126.263 37.1071 126.365 37.2334 126.365H37.4994Z" fill="#EDF1F4"/>
<path fill-rule="evenodd" clip-rule="evenodd" d="M68.732 147.6H58.971C57.8477 147.6 56.6931 146.688 56.3925 145.565C56.0918 144.441 56.758 143.53 57.8813 143.53H67.6422C68.7655 143.53 69.919 144.441 70.2207 145.565C70.5214 146.688 69.8553 147.6 68.732 147.6Z" fill="#EDF1F4"/>
<path fill-rule="evenodd" clip-rule="evenodd" d="M50.6164 98.9856C50.1011 98.9856 49.6249 99.0472 49.1924 99.1635C48.2468 99.4175 47.4857 99.9311 46.9659 100.626C46.4428 101.326 46.1522 102.229 46.1522 103.257C46.1522 103.768 46.2238 104.306 46.3713 104.86C46.8463 106.633 48.0054 108.248 49.4964 109.425C50.9796 110.595 52.7735 111.32 54.5272 111.32C55.0425 111.32 55.5186 111.259 55.9512 111.142C56.8967 110.888 57.6579 110.375 58.1776 109.68C58.7007 108.979 58.9913 108.075 58.9913 107.048C58.9913 106.538 58.9209 106 58.7723 105.446C58.2972 103.673 57.1382 102.058 55.6471 100.881C54.1651 99.7096 52.37 98.9856 50.6164 98.9856ZM50.6164 97.8489C46.587 97.8489 44.1951 101.119 45.2748 105.153C46.3545 109.186 50.4968 112.457 54.5261 112.457C58.5554 112.457 60.9473 109.186 59.8676 105.153C58.7879 101.118 54.6468 97.8489 50.6164 97.8489Z" fill="#EDF1F4"/>
<path fill-rule="evenodd" clip-rule="evenodd" d="M44.1557 120.252C43.9992 120.252 43.8539 120.271 43.7231 120.305C43.4359 120.383 43.2045 120.538 43.0458 120.75C42.8871 120.962 42.7988 121.237 42.7988 121.55C42.7988 121.705 42.82 121.869 42.8659 122.036C43.01 122.576 43.3621 123.067 43.8159 123.424C44.2663 123.78 44.8118 124 45.3449 124C45.5014 124 45.6467 123.981 45.7775 123.946C46.0647 123.869 46.2961 123.714 46.4548 123.502C46.6135 123.289 46.7018 123.014 46.7018 122.702C46.7018 122.547 46.6806 122.383 46.6348 122.215C46.4906 121.676 46.1385 121.185 45.6847 120.828C45.2343 120.472 44.6888 120.252 44.1557 120.252ZM44.1557 119.906C42.9307 119.906 42.2042 120.9 42.5317 122.126C42.8603 123.352 44.1188 124.347 45.3438 124.347C46.5688 124.347 47.2953 123.352 46.9678 122.126C46.6404 120.901 45.3807 119.906 44.1557 119.906Z" fill="#EDF1F4"/>
<path fill-rule="evenodd" clip-rule="evenodd" d="M46.0932 126.847C45.9367 126.847 45.7914 126.866 45.6606 126.901C45.3734 126.978 45.142 127.134 44.9833 127.345C44.8246 127.558 44.7363 127.833 44.7363 128.145C44.7363 128.301 44.7575 128.464 44.8034 128.632C44.9475 129.171 45.2996 129.662 45.7534 130.019C46.2038 130.375 46.7493 130.595 47.2824 130.595C47.4389 130.595 47.5842 130.576 47.715 130.542C48.0022 130.464 48.2336 130.309 48.3923 130.098C48.551 129.885 48.6393 129.61 48.6393 129.298C48.6393 129.142 48.6181 128.979 48.5723 128.811C48.4281 128.272 48.076 127.78 47.6222 127.423C47.1718 127.068 46.6263 126.847 46.0932 126.847ZM46.0932 126.501C44.8682 126.501 44.1417 127.495 44.4692 128.721C44.7978 129.948 46.0563 130.942 47.2813 130.942C48.5063 130.942 49.2328 129.949 48.9053 128.721C48.5779 127.496 47.3182 126.501 46.0932 126.501Z" fill="#EDF1F4"/>
<path fill-rule="evenodd" clip-rule="evenodd" d="M48.0463 133.443C47.8898 133.443 47.7445 133.462 47.6138 133.497C47.3265 133.574 47.0951 133.73 46.9364 133.941C46.7777 134.154 46.6894 134.429 46.6894 134.741C46.6894 134.897 46.7107 135.06 46.7565 135.228C46.9007 135.767 47.2527 136.258 47.7065 136.615C48.157 136.971 48.7024 137.191 49.2356 137.191C49.392 137.191 49.5373 137.172 49.6681 137.138C49.9554 137.061 50.1867 136.905 50.3454 136.694C50.5042 136.481 50.5925 136.206 50.5925 135.894C50.5925 135.738 50.5712 135.575 50.5254 135.407C50.3812 134.868 50.0291 134.376 49.5753 134.019C49.1249 133.664 48.5795 133.443 48.0463 133.443ZM48.0463 133.099C46.8213 133.099 46.0948 134.092 46.4223 135.318C46.7509 136.545 48.0094 137.539 49.2344 137.539C50.4594 137.539 51.186 136.546 50.8585 135.318C50.5299 134.092 49.2713 133.099 48.0463 133.099Z" fill="#EDF1F4"/>
<path fill-rule="evenodd" clip-rule="evenodd" d="M49.872 102.371C50.3661 103.463 51.1429 104.601 52.2282 105.3C52.5042 105.478 52.815 105.478 52.996 105.3C53.7069 104.601 53.8745 103.463 53.784 102.371C53.6063 100.245 48.9097 100.245 49.872 102.371Z" fill="#EDF1F4"/>
<path fill-rule="evenodd" clip-rule="evenodd" d="M53.0006 106.771C50.6903 106.771 48.9198 107.846 48.0312 109.523C49.8173 111.2 52.1634 112.274 54.4726 112.274C56.7829 112.274 58.5533 111.199 59.4419 109.523C57.6569 107.846 55.3109 106.771 53.0006 106.771Z" fill="#EDF1F4"/>
<path fill-rule="evenodd" clip-rule="evenodd" d="M63.2135 117.971H50.6784C50.5331 117.971 50.3845 117.854 50.3454 117.708C50.3063 117.563 50.3923 117.446 50.5376 117.446H63.0727C63.218 117.446 63.3667 117.563 63.4058 117.708C63.4449 117.854 63.3588 117.971 63.2135 117.971Z" fill="#EDF1F4"/>
<path fill-rule="evenodd" clip-rule="evenodd" d="M65.0485 115.787H46.7293C46.4074 115.787 46.0754 115.525 45.9894 115.202C45.9033 114.88 46.0944 114.618 46.4163 114.618H64.7355C65.0574 114.618 65.3894 114.88 65.4755 115.202C65.5626 115.525 65.3715 115.787 65.0485 115.787Z" fill="#EDF1F4"/>
<path fill-rule="evenodd" clip-rule="evenodd" d="M68.358 121.674H49.3972C49.2519 121.674 49.1032 121.556 49.0641 121.411C49.025 121.265 49.1111 121.148 49.2564 121.148H68.2171C68.3624 121.148 68.5111 121.265 68.5502 121.411C68.5893 121.556 68.5033 121.674 68.358 121.674Z" fill="#EDF1F4"/>
<path fill-rule="evenodd" clip-rule="evenodd" d="M68.7486 123.106H49.7878C49.6425 123.106 49.4939 122.988 49.4547 122.843C49.4156 122.697 49.5017 122.58 49.647 122.58H68.6089C68.7542 122.58 68.9028 122.697 68.942 122.843C68.98 122.987 68.8939 123.106 68.7486 123.106Z" fill="#EDF1F4"/>
<path fill-rule="evenodd" clip-rule="evenodd" d="M70.2408 128.27H51.28C51.1347 128.27 50.9861 128.152 50.9469 128.007C50.9078 127.861 50.9939 127.744 51.1392 127.744H70.1C70.2453 127.744 70.3939 127.861 70.433 128.007C70.4721 128.152 70.3861 128.27 70.2408 128.27Z" fill="#EDF1F4"/>
<path fill-rule="evenodd" clip-rule="evenodd" d="M70.6314 129.701H51.6706C51.5253 129.701 51.3767 129.584 51.3376 129.438C51.2984 129.293 51.3845 129.176 51.5298 129.176H70.4906C70.6359 129.176 70.7845 129.293 70.8237 129.438C70.8628 129.583 70.7767 129.701 70.6314 129.701Z" fill="#EDF1F4"/>
<path fill-rule="evenodd" clip-rule="evenodd" d="M72.2877 134.865H53.3269C53.1816 134.865 53.0329 134.748 52.9938 134.603C52.9547 134.457 53.0408 134.34 53.1861 134.34H72.1479C72.2932 134.34 72.4419 134.457 72.481 134.603C72.519 134.748 72.433 134.865 72.2877 134.865Z" fill="#EDF1F4"/>
<path fill-rule="evenodd" clip-rule="evenodd" d="M72.6939 136.297H53.7331C53.5878 136.297 53.4392 136.18 53.4001 136.034C53.3609 135.889 53.447 135.771 53.5923 135.771H72.5531C72.6984 135.771 72.847 135.889 72.8862 136.034C72.9253 136.18 72.8392 136.297 72.6939 136.297Z" fill="#EDF1F4"/>
<path fill-rule="evenodd" clip-rule="evenodd" d="M57.2539 151.098C57.0315 151.098 56.8996 151.278 56.9599 151.5C57.0192 151.723 57.2483 151.903 57.4696 151.903C57.6909 151.903 57.8239 151.723 57.7636 151.5C57.7043 151.278 57.4752 151.098 57.2539 151.098ZM72.3373 151.098C72.1149 151.098 71.983 151.278 72.0434 151.5C72.1026 151.723 72.3318 151.903 72.5531 151.903C72.7755 151.903 72.9074 151.723 72.847 151.5C72.7878 151.278 72.5598 151.098 72.3373 151.098ZM68.5662 151.098C68.3438 151.098 68.2119 151.278 68.2723 151.5C68.3315 151.723 68.5606 151.903 68.7819 151.903C69.0044 151.903 69.1362 151.723 69.0759 151.5C69.0166 151.278 68.7886 151.098 68.5662 151.098ZM64.7951 151.098C64.5726 151.098 64.4408 151.278 64.5011 151.5C64.5604 151.723 64.7895 151.903 65.0108 151.903C65.2332 151.903 65.3651 151.723 65.3047 151.5C65.2455 151.278 65.0175 151.098 64.7951 151.098ZM61.025 151.098C60.8026 151.098 60.6707 151.278 60.7311 151.5C60.7903 151.723 61.0195 151.903 61.2408 151.903C61.4632 151.903 61.5951 151.723 61.5347 151.5C61.4755 151.278 61.2463 151.098 61.025 151.098Z" fill="#EDF1F4"/>
<path d="M44.995 123.181C44.9502 123.175 44.9089 123.155 44.8754 123.123L43.6381 121.889C43.5587 121.809 43.5576 121.679 43.6381 121.6C43.7174 121.519 43.8471 121.519 43.9264 121.6L44.929 122.6L46.002 119.335C46.0367 119.228 46.1529 119.17 46.2602 119.206C46.3675 119.241 46.4256 119.357 46.3899 119.464L45.2129 123.044C45.1906 123.112 45.1358 123.163 45.0665 123.18C45.043 123.183 45.0184 123.184 44.995 123.181Z" fill="#EDF1F4"/>
<path d="M47.0418 129.737C46.9971 129.731 46.9558 129.711 46.9222 129.679L45.6849 128.445C45.6056 128.365 45.6045 128.235 45.6849 128.156C45.7643 128.075 45.894 128.075 45.9733 128.156L46.9759 129.156L48.0489 125.891C48.0835 125.784 48.1998 125.726 48.3071 125.762C48.4144 125.797 48.4725 125.913 48.4367 126.02L47.2598 129.6C47.2374 129.668 47.1827 129.719 47.1134 129.736C47.091 129.739 47.0664 129.74 47.0418 129.737Z" fill="#EDF1F4"/>
<path d="M49.0028 136.293C48.9581 136.287 48.9167 136.267 48.8832 136.235L47.6459 135.001C47.5665 134.921 47.5654 134.792 47.6459 134.712C47.7252 134.632 47.8549 134.632 47.9342 134.712L48.9368 135.712L50.0098 132.447C50.0445 132.34 50.1607 132.282 50.268 132.318C50.3753 132.353 50.4334 132.469 50.3977 132.576L49.2207 136.157C49.1984 136.224 49.1436 136.275 49.0743 136.292C49.0508 136.294 49.0262 136.295 49.0028 136.293Z" fill="#EDF1F4"/>
<path fill-rule="evenodd" clip-rule="evenodd" d="M15.4716 137.29C18.1809 137.29 20.6342 138.39 22.4092 140.167C24.1841 141.943 25.2828 144.399 25.2828 147.111C25.2828 149.823 24.1841 152.279 22.4092 154.056C20.6342 155.833 18.1809 156.933 15.4716 156.933C12.7622 156.933 10.3089 155.833 8.53396 154.056C6.75904 152.279 5.66033 149.823 5.66033 147.111C5.66033 144.399 6.75904 141.943 8.53396 140.167C10.3089 138.39 12.7622 137.29 15.4716 137.29ZM18.5397 147.112C18.5397 145.777 17.6857 144.639 16.4943 144.217V140.849C16.4943 140.286 16.0338 139.825 15.4716 139.825C14.9094 139.825 14.4489 140.286 14.4489 140.849V144.217C13.5782 144.526 12.8874 145.217 12.5789 146.089H9.21464C8.65243 146.089 8.19194 146.55 8.19194 147.112C8.19194 147.675 8.65243 148.136 9.21464 148.136H12.5789C13.0003 149.329 14.1359 150.184 15.4716 150.184C17.1649 150.183 18.5397 148.808 18.5397 147.112ZM16.4943 147.112C16.4943 146.547 16.036 146.089 15.4716 146.089C14.9071 146.089 14.4489 146.547 14.4489 147.112C14.4489 147.677 14.9071 148.136 15.4716 148.136C16.0371 148.135 16.4943 147.677 16.4943 147.112ZM27.3125 147.112C27.3125 140.566 22.0113 135.26 15.4727 135.26C8.93298 135.26 3.63281 140.567 3.63281 147.112C3.63281 153.659 8.93409 158.965 15.4727 158.965C22.0113 158.965 27.3125 153.658 27.3125 147.112Z" fill="#EDF1F4"/>
<path fill-rule="evenodd" clip-rule="evenodd" d="M69.1941 167.488L72.9474 168.648L69.1941 169.808L68.0362 173.565L66.8771 169.808L63.125 168.648L66.8771 167.488L68.0362 163.732L69.1941 167.488Z" fill="#EDF1F4"/>
<path fill-rule="evenodd" clip-rule="evenodd" d="M200.354 163.017H227.015C227.558 163.017 228.002 163.461 228.002 164.005C228.002 164.548 227.558 164.993 227.015 164.993H200.354C199.811 164.993 199.367 164.547 199.367 164.005C199.366 163.462 199.811 163.017 200.354 163.017ZM213.869 167.404H221.892C222.436 167.404 222.879 167.848 222.879 168.392C222.879 168.935 222.434 169.38 221.892 169.38H213.869C213.326 169.38 212.883 168.934 212.883 168.392C212.883 167.848 213.326 167.404 213.869 167.404ZM200.354 167.404H208.377C208.92 167.404 209.364 167.848 209.364 168.392C209.364 168.935 208.919 169.38 208.377 169.38H200.354C199.811 169.38 199.367 168.934 199.367 168.392C199.366 167.848 199.811 167.404 200.354 167.404Z" fill="#EDF1F4"/>
<path d="M119.531 130.217L135.749 135.688L151.186 89.5312L140.923 90.2435L119.531 130.217Z" fill="url(#paint7_linear_11608_47292)"/>
<path d="M202.667 37.0643C202.667 37.0643 204.275 35.3143 198.606 32.0255C192.704 28.6028 191.279 30.9484 191.279 30.9484C191.279 30.9484 189.807 33.6281 191.361 35.7687C192.916 37.9092 199.749 39.1091 200.358 38.8966C200.968 38.6829 202.667 37.0643 202.667 37.0643Z" fill="url(#paint8_linear_11608_47292)"/>
<path d="M208.642 26.7966C207.285 26.6935 204.511 26.8507 203.951 26.9035C203.951 26.9035 207.805 26.0413 208.492 25.9382C210.131 25.6938 209.6 24.7568 208.202 24.8661C207.253 24.941 203.537 25.797 203.336 25.6594C203.336 25.6594 206.229 24.855 208.012 24.5148C209.092 24.3085 209.092 23.1689 207.544 23.4231C205.502 23.7583 200.803 25.598 199.634 25.1547C198.336 24.6622 203.408 23.1136 202.315 21.6816C201.2 22.2613 195.196 23.9204 195.432 27.1405C195.079 27.7251 194.269 28.7812 194.396 29.5082C194.528 30.2598 197.215 34.2904 197.546 34.2351C198.221 34.1234 199.837 30.6319 200.726 30.5742C201.124 30.5484 204.361 29.1902 208.019 29.3621C209.297 29.4223 209.085 28.5442 208.403 28.4656C208.042 28.4238 205.374 28.3649 204.398 28.3035C205.118 28.0898 207.739 27.9424 208.47 27.8798C210.348 27.7177 209.4 26.8543 208.642 26.7966Z" fill="url(#paint9_linear_11608_47292)"/>
<path d="M195.104 27.6646C193.675 29.7805 197.93 33.3076 199.579 31.9837L195.874 38.1868L190.688 33.0951L195.104 27.6646Z" fill="url(#paint10_linear_11608_47292)"/>
<path d="M191.264 30.949C183.179 40.6914 170.699 52.0352 153.406 59.8483C157.522 62.2431 156.83 71.1762 156.23 80.9296C180.293 67.2794 202.654 37.0648 202.654 37.0648C200.257 39.7138 190.735 35.9903 191.264 30.949Z" fill="url(#paint11_linear_11608_47292)"/>
<path d="M131.77 63.908C131.77 63.908 142.749 58.9428 151.824 65.9847C151.824 65.9847 154.708 74.6918 153.17 82.3342C151.511 90.5771 138.789 104.177 131.414 119.402C126.797 122.263 126.666 125.883 126.666 125.883C123.141 127.698 114.891 126.962 111.633 125.085C111.633 125.085 129.474 88.7227 129.25 80.734C129.025 72.7453 131.77 63.908 131.77 63.908Z" fill="url(#paint12_linear_11608_47292)"/>
<path d="M143.695 78.0703C143.695 78.0703 146.03 63.8651 145.408 63.1122C146.446 61.2591 148.015 58.8729 148.015 58.8729L142.575 56.9509C142.575 56.9509 140.99 60.4092 139.947 62.1887C138.142 65.2651 143.695 78.0703 143.695 78.0703Z" fill="url(#paint13_linear_11608_47292)"/>
<path d="M142.57 56.9511C142.57 56.9511 143.111 56.4832 142.748 57.2459C143.265 58.2492 143.159 61.6142 145.714 62.577C146.608 61.0947 148.011 58.8743 148.011 58.8743L142.57 56.9511Z" fill="url(#paint14_linear_11608_47292)"/>
<path d="M151.169 54.4407C151.053 53.5356 150.657 53.2949 150.23 52.7681C149.487 51.8495 149.819 51.5989 149.571 51.0954C148.221 48.3691 146.002 47.222 142.675 47.2945C140.277 47.3473 141.042 50.3942 141.095 53.8058C141.119 55.3863 141.3 58.8152 142.761 57.2444C143.746 58.7255 145.35 60.4448 147.64 60.8194C150.912 61.3548 151.541 57.3427 151.169 54.4407Z" fill="url(#paint15_linear_11608_47292)"/>
<path opacity="0.5" d="M148.548 60.1417C147.39 58.582 146.887 57.0248 145.037 56.633C143.553 56.3186 141.89 52.7314 141.031 52.2537C141.059 52.7559 141.085 53.2767 141.093 53.806C141.117 55.3865 141.298 58.8153 142.759 57.2446C143.744 58.7257 145.348 60.445 147.638 60.8196C148.722 60.9964 149.515 60.6746 150.079 60.0594C149.778 60.1601 149.089 60.8687 148.548 60.1417Z" fill="url(#paint16_linear_11608_47292)"/>
<path opacity="0.5" d="M144.664 53.7605C144.664 53.7605 145.782 51.6789 147.576 52.1628C148.046 52.2893 148.833 55.1618 149.406 55.4234C149.978 55.6837 148.68 55.9392 148.68 55.9392C148.68 55.9392 147.198 55.2625 145.863 55.1949C144.772 55.1397 144.664 53.7605 144.664 53.7605Z" fill="url(#paint17_linear_11608_47292)"/>
<path d="M140.707 49.8821C140.207 46.9052 138.441 42.9716 135.409 41.9057C134.657 41.6416 133.842 41.6146 133.046 41.7939C133.016 41.7951 132.985 41.7964 132.954 41.7976C132.78 41.8074 132.607 41.8246 132.433 41.8492C132.198 41.7865 131.956 41.7436 131.711 41.7264C131.41 41.7043 131.106 41.719 130.81 41.773C130.514 41.8271 130.224 41.9143 129.954 42.0432C129.92 42.0592 129.885 42.0727 129.852 42.0899L129.754 42.1427L129.655 42.1955C129.622 42.2139 129.589 42.2299 129.558 42.2508L129.371 42.3711L129.324 42.4018C129.308 42.4116 129.294 42.4239 129.278 42.435L129.189 42.5025C128.712 42.8599 128.307 43.2995 127.958 43.776C128.325 43.3143 128.747 42.8918 129.228 42.559L129.318 42.4964C129.332 42.4865 129.347 42.4755 129.363 42.4657L129.411 42.4374L129.6 42.3257C129.631 42.306 129.664 42.2913 129.697 42.2753L129.795 42.2274L129.894 42.1795C129.927 42.1648 129.961 42.1525 129.994 42.1378C130.262 42.0236 130.546 41.9486 130.832 41.9081C131.118 41.8676 131.409 41.8639 131.695 41.8971C131.783 41.9069 131.868 41.9204 131.953 41.9364C131.827 41.9646 131.701 41.9965 131.577 42.0322C131.13 42.1623 130.699 42.3502 130.301 42.5872C129.904 42.8243 129.531 43.1092 129.211 43.4408C129.17 43.4813 129.127 43.5206 129.088 43.5623L128.974 43.6925L128.86 43.8227C128.822 43.8657 128.782 43.9087 128.75 43.9553L128.544 44.2317L128.492 44.3004C128.475 44.3238 128.462 44.3483 128.446 44.3729L128.354 44.5178C127.86 45.2915 127.511 46.1462 127.266 47.0219C127.546 46.1561 127.925 45.3185 128.441 44.5755L128.537 44.4367C128.553 44.4134 128.569 44.3901 128.586 44.368L128.639 44.3017L128.851 44.0388C128.885 43.9934 128.925 43.9541 128.964 43.9136L129.08 43.7908L129.195 43.668C129.234 43.6274 129.277 43.5918 129.319 43.5538C129.643 43.243 130.013 42.9827 130.405 42.7702C130.796 42.5565 131.214 42.3944 131.646 42.2864C131.701 42.2729 131.758 42.2593 131.813 42.2471C129.64 43.3781 127.993 46.1155 128.873 49.7494C130.472 56.348 141.339 53.6498 140.707 49.8821Z" fill="url(#paint18_linear_11608_47292)"/>
<path d="M139.996 47.3114C139.4 47.304 138.837 47.6491 138.474 48.1232C138.111 48.5972 137.927 49.1842 137.825 49.7725C137.593 51.1209 137.774 52.5369 138.337 53.7846C138.49 54.1224 138.698 54.4724 139.046 54.5989C139.419 54.7339 139.842 54.562 140.141 54.3017C140.927 53.6188 141.07 52.4595 141.034 51.4193C141.005 50.5597 140.921 49.7148 141.072 48.8612C141.216 48.0532 141.086 47.3261 139.996 47.3114Z" fill="url(#paint19_linear_11608_47292)"/>
<path d="M146.859 48.8469C146.82 48.8272 146.78 48.8088 146.741 48.7904C147.538 48.8174 148.123 48.9856 148.123 48.9856C148.123 48.9856 146.558 46.6068 143.656 46.7665C136.916 47.1374 137.609 53.7199 139.601 56.2927C141.007 58.1091 142.26 57.6608 142.26 57.6608L142.283 57.6117C140.842 56.9559 140.935 53.4313 142.606 54.2701C143.16 54.5476 144.625 53.7285 145.175 51.7218C145.673 49.9079 145.232 48.9414 145.232 48.9414C145.395 48.8997 145.557 48.869 145.718 48.8456C145.777 48.8518 145.84 48.8579 145.906 48.8616C147.79 48.9918 148.885 50.5072 148.885 50.5072C148.885 50.5072 148.282 49.5542 146.859 48.8469Z" fill="url(#paint20_linear_11608_47292)"/>
<path d="M144.494 47.981C145.053 49.9852 144.798 52.5494 142.586 53.3624C143.037 53.1291 143.448 52.8159 143.735 52.4107C144.612 51.1887 144.41 49.521 143.916 48.1885L144.494 47.981Z" fill="url(#paint21_linear_11608_47292)"/>
<path d="M144.186 48.1077C144.421 50.1745 143.766 52.6663 141.453 53.1207C141.935 52.9611 142.39 52.7167 142.738 52.3618C143.796 51.2933 143.859 49.6145 143.581 48.2206C143.583 48.2219 144.186 48.1077 144.186 48.1077Z" fill="url(#paint22_linear_11608_47292)"/>
<path d="M143.836 48.0435C144.04 49.7837 143.472 51.9107 141.523 52.2865C141.931 52.1514 142.317 51.9451 142.612 51.6442C143.508 50.7403 143.561 49.3194 143.326 48.1405C143.325 48.1405 143.836 48.0435 143.836 48.0435Z" fill="url(#paint23_linear_11608_47292)"/>
<path d="M147.645 52.1882C147.565 51.8332 145.503 51.1811 144.664 53.7613C145.585 52.155 147.724 52.5418 147.645 52.1882Z" fill="url(#paint24_linear_11608_47292)"/>
<path d="M148.451 51.787C148.293 51.4591 149.606 51.2208 149.686 51.5782C149.766 51.9356 148.608 52.1149 148.451 51.787Z" fill="url(#paint25_linear_11608_47292)"/>
<path opacity="0.68" d="M148.547 55.9112C148.547 55.9112 149.052 55.711 149.451 55.4457C149.85 55.1805 150.157 55.0527 150.157 55.0527C150.157 55.0527 150.358 55.587 149.932 55.8313C148.874 56.4356 148.547 55.9112 148.547 55.9112Z" fill="url(#paint26_linear_11608_47292)"/>
<path d="M149.105 53.1437C149.205 53.3721 149.425 53.4974 149.595 53.4224C149.764 53.3475 149.821 53.1019 149.72 52.8723C149.619 52.6438 149.399 52.5186 149.23 52.5935C149.06 52.6684 149.004 52.9152 149.105 53.1437Z" fill="#063B75"/>
<path d="M147.915 53.6705C148.105 54.0856 147.84 54.6149 147.322 54.8531C146.803 55.0914 146.229 54.9477 146.038 54.5326C145.848 54.1175 146.113 53.5882 146.631 53.3499C147.15 53.1117 147.723 53.2554 147.915 53.6705Z" fill="url(#paint27_linear_11608_47292)"/>
<path d="M146.69 54.1454C146.824 54.4487 147.15 54.5985 147.419 54.4794C147.688 54.3615 147.799 54.0189 147.665 53.7155C147.531 53.4122 147.204 53.2624 146.936 53.3815C146.665 53.4994 146.556 53.842 146.69 54.1454Z" fill="url(#paint28_linear_11608_47292)"/>
<path d="M147.74 53.4408C147.165 52.6929 145.494 53.2554 145.954 54.4159C146.186 53.8534 146.826 53.3094 147.74 53.4408Z" fill="url(#paint29_linear_11608_47292)"/>
<path d="M146.944 53.9012C147.014 54.0596 147.185 54.1382 147.326 54.0768C147.467 54.0142 147.523 53.8361 147.455 53.6777C147.385 53.5193 147.214 53.4407 147.073 53.5021C146.932 53.5635 146.874 53.7428 146.944 53.9012Z" fill="black"/>
<path d="M146.833 54.5191C146.882 54.6309 147.003 54.6862 147.101 54.6419C147.201 54.5977 147.241 54.4725 147.192 54.3607C147.143 54.249 147.022 54.1937 146.924 54.2379C146.825 54.2821 146.784 54.4074 146.833 54.5191Z" fill="white"/>
<path d="M147.734 53.441C147.551 52.9006 145.902 53.635 145.797 54.7661C145.797 54.7661 146.639 53.2052 147.734 53.441Z" fill="black"/>
<path d="M149 56.1195C149 56.1195 149.418 55.589 149.553 55.7425C149.688 55.896 149.623 55.9893 149.623 55.9893L149 56.1195Z" fill="url(#paint30_linear_11608_47292)"/>
<path d="M150.209 52.5949C150.358 52.9179 150.212 53.2692 149.809 53.4546C149.406 53.64 148.899 53.5885 148.751 53.2655C148.603 52.9425 148.809 52.5311 149.212 52.3456C149.613 52.1614 150.06 52.2719 150.209 52.5949Z" fill="url(#paint31_linear_11608_47292)"/>
<path d="M149.255 52.9648C149.36 53.2006 149.613 53.3172 149.823 53.2251C150.032 53.133 150.117 52.8677 150.013 52.632C149.909 52.3962 149.656 52.2795 149.446 52.3716C149.237 52.4625 149.151 52.729 149.255 52.9648Z" fill="url(#paint32_linear_11608_47292)"/>
<path d="M150.065 52.4166C149.618 51.8357 148.329 52.2176 148.687 53.1203C148.869 52.6819 149.355 52.3147 150.065 52.4166Z" fill="url(#paint33_linear_11608_47292)"/>
<path d="M149.445 52.7738C149.499 52.8966 149.631 52.958 149.742 52.9101C149.851 52.8622 149.897 52.7222 149.841 52.5994C149.787 52.4766 149.655 52.4152 149.544 52.4631C149.436 52.511 149.391 52.651 149.445 52.7738Z" fill="black"/>
<path d="M149.36 53.2541C149.398 53.3413 149.491 53.3843 149.569 53.3499C149.646 53.3155 149.677 53.2185 149.639 53.1313C149.601 53.0441 149.507 53.0011 149.43 53.0355C149.353 53.0699 149.322 53.1682 149.36 53.2541Z" fill="white"/>
<path d="M150.066 52.4168C149.943 52.0545 148.989 52.3996 148.672 53.0726L148.717 53.2003C148.96 52.8565 149.464 52.2866 150.066 52.4168Z" fill="black"/>
<path opacity="0.5" d="M142.576 55.0508C142.576 55.0508 141.742 54.2415 141.705 55.2265C141.64 56.9507 143.026 56.6044 143.026 56.6044L142.576 55.0508Z" fill="url(#paint34_linear_11608_47292)"/>
<path d="M151.011 54.3438C151.851 54.0577 152.26 53.0175 151.922 52.0252C151.584 51.0329 150.627 50.4569 149.787 50.7431C148.946 51.0292 148.539 52.0694 148.876 53.0617C149.213 54.054 150.171 54.6288 151.011 54.3438ZM149.874 50.9985C150.572 50.7615 151.376 51.2601 151.665 52.1112C151.955 52.9622 151.622 53.8489 150.924 54.0859C150.225 54.323 149.422 53.8244 149.132 52.9733C148.842 52.1222 149.175 51.2368 149.874 50.9985Z" fill="#015EA5"/>
<path d="M147.339 56.2069C148.311 55.8753 148.785 54.6706 148.394 53.5199C148.002 52.3692 146.892 51.7035 145.919 52.0339C144.946 52.3655 144.472 53.5702 144.864 54.7209C145.256 55.8717 146.365 56.5385 147.339 56.2069ZM146.02 52.3323C146.829 52.0572 147.76 52.6357 148.096 53.6218C148.432 54.608 148.046 55.6346 147.237 55.9097C146.427 56.1848 145.497 55.6064 145.16 54.6202C144.826 53.6341 145.21 52.6074 146.02 52.3323Z" fill="#015EA5"/>
<path d="M144.918 54.4335L144.939 54.1204L142.328 54.1462L142.783 54.3402L144.918 54.4335Z" fill="#015EA5"/>
<path d="M148.95 52.8646L148.102 53.1533L148.202 53.4498L149.051 53.161L148.95 52.8646Z" fill="#015EA5"/>
<path d="M147.336 58.0144C150.342 57.9567 150.779 57.0688 150.779 57.0688C150.691 56.8232 150.423 56.6697 150.159 56.8564C150.03 56.9472 149.959 57.1265 149.959 57.1265C149.959 57.1265 149.501 56.892 149.248 57.1732C148.369 58.1495 147.336 58.0144 147.336 58.0144Z" fill="#E5928A"/>
<path d="M148.852 58.2949C149.485 58.3465 150.121 58.1844 150.759 57.8098C150.759 57.8098 150.715 58.1537 149.99 58.4398C149.267 58.7247 148.852 58.2949 148.852 58.2949Z" fill="#E5928A"/>
<path d="M145.415 63.1124L143.641 77.928C143.68 78.0201 143.701 78.0692 143.701 78.0692C143.701 78.0692 146.038 63.8652 145.415 63.1124C145.544 62.8815 145.415 63.1124 145.415 63.1124Z" fill="url(#paint35_linear_11608_47292)"/>
<path d="M145.418 63.1123L149.626 66.1592L146.354 73.4589L148.606 76.2946C148.606 76.2946 146.534 85.2044 140.531 89.9742C143.447 81.8517 144.907 72.7884 145.418 63.1123Z" fill="url(#paint36_linear_11608_47292)"/>
<path d="M121.386 126.966L121.289 126.891C129.057 116.771 135.513 104.344 140.475 89.9548L140.592 89.9954C135.625 104.396 129.162 116.835 121.386 126.966Z" fill="#015EA5"/>
<path d="M139.193 62.8728C139.193 62.8728 142.922 68.9383 143.035 76.0747C143.148 83.2111 140.536 89.9754 140.536 89.9754C140.513 84.3582 139.487 79.1327 137.91 74.7951L140.596 73.4454L136.164 66.729L139.193 62.8728Z" fill="url(#paint37_linear_11608_47292)"/>
<path d="M140.109 61.9036C139.268 65.0045 143.43 68.938 143.543 76.0745C143.656 83.2109 140.519 89.9752 140.519 89.9752C140.496 84.3579 139.995 79.1324 138.418 74.7948L141.104 73.4451L136.672 66.7287C136.673 66.7287 138.882 62.8983 140.109 61.9036Z" fill="url(#paint38_linear_11608_47292)"/>
<path d="M138.909 135.625C138.909 135.625 148.708 105.243 158.621 81.2008C163.089 70.3629 155.486 58.8754 153.425 59.848C151.35 60.828 150.926 60.6217 147.356 61.8928C147.275 61.4654 146.083 61.91 146.083 61.91L145.388 63.1135C145.388 63.1135 153.933 71.1047 149.472 85.9571C144.977 100.923 132.665 126.011 131.327 129.214C129.989 132.417 134.658 137.677 138.909 135.625Z" fill="url(#paint39_linear_11608_47292)"/>
<path d="M131.724 129.195C133.079 126 145.533 100.981 150.112 86.0415C154.656 71.2136 146.156 63.1746 146.156 63.1746L146.858 61.9747C146.858 61.9747 147.078 61.8949 147.335 61.8359C147.161 61.5056 146.082 61.9084 146.082 61.9084L145.387 63.1119C145.387 63.1119 153.932 71.1031 149.472 85.9556C144.977 100.921 132.664 126.01 131.327 129.212C130.195 131.925 133.368 136.111 136.949 136.085C133.519 135.823 130.615 131.81 131.724 129.195Z" fill="#004072"/>
<path d="M98.6123 159.578L91.7891 190.453L94.088 193.794L109.65 159.488L98.6123 159.578Z" fill="url(#paint40_linear_11608_47292)"/>
<path opacity="0.62" d="M98.6169 159.578L96.6016 168.884C99.016 169.762 104.191 169.861 105.949 167.509L109.654 159.489L98.6169 159.578Z" fill="url(#paint41_linear_11608_47292)"/>
<path d="M90.2188 192.073L91.1631 192.789L91.3105 191.432L90.9556 191.188L90.2188 192.073Z" fill="url(#paint42_linear_11608_47292)"/>
<path d="M92.6462 186.566C92.4104 187.633 92.1979 192.092 94.7511 192.411C92.6401 200.753 97.0059 196.415 96.1831 199.486C91.1086 200.027 90.9097 196.938 90.6272 193.515C91.7411 191.918 90.4258 191.741 90.2342 192.086C89.7811 191.338 89.6484 189.913 89.6484 189.913C89.6484 189.913 90.9711 187.215 92.6462 186.566Z" fill="url(#paint43_linear_11608_47292)"/>
<path d="M85.1457 151.267L65.5393 169.35L61.0703 172.083L62.9726 175.427C66.1546 174.292 82.2855 164.519 94.2274 157.539L85.1457 151.267Z" fill="url(#paint44_linear_11608_47292)"/>
<path opacity="0.62" d="M81.0077 155.087C80.7105 156.668 83.3005 162.376 86.1534 162.221L94.233 157.536L85.1525 151.266L81.0077 155.087Z" fill="url(#paint45_linear_11608_47292)"/>
<path d="M60.2266 172.555L60.536 173.878L61.6585 172.909L61.5861 172.372L60.8824 172.29L60.2266 172.555Z" fill="url(#paint46_linear_11608_47292)"/>
<path d="M65.5387 169.35C64.5599 169.822 62.7202 172.348 62.9707 175.425C57.114 177.817 59.1317 181.111 55.671 180.462C55.418 178.859 56.1438 174.741 59.4842 173.36C59.9103 173.429 60.8977 173.333 61.0119 173.034C61.0881 172.736 60.6374 172.5 60.2223 172.555C60.571 171.695 61.5007 170.756 61.5007 170.756C61.5007 170.756 63.6904 169.92 65.5387 169.35Z" fill="url(#paint47_linear_11608_47292)"/>
<path d="M100.91 108.43C89.9286 118.677 89.1598 139.965 81.7471 154.179C81.3578 157.579 104.123 169.11 109.444 162.36C116.205 151.102 121.979 135.321 131.437 119.42C120.767 122.117 112.04 115.969 100.91 108.43Z" fill="url(#paint48_linear_11608_47292)"/>
<path d="M100.91 108.43C89.9286 118.677 89.1598 139.965 81.7471 154.179C81.3578 157.579 104.123 169.11 109.444 162.36C116.205 151.102 121.979 135.321 131.437 119.42C120.767 122.117 112.04 115.969 100.91 108.43Z" fill="url(#paint49_linear_11608_47292)"/>
<path d="M117.485 68.4398C121.242 62.5327 131.376 62.4382 138.721 61.9347C139.645 61.8708 138.854 60.7975 140.447 61.2887C140.447 61.2887 140.089 62.0992 139.701 62.8729C135.446 71.3504 134.713 110.19 117.775 130.209C112.3 136.68 86.4453 125.965 86.4453 125.965C86.4453 125.965 94.0472 105.297 117.485 68.4398Z" fill="url(#paint50_radial_11608_47292)"/>
<path d="M138.933 61.9002C138.841 62.0992 138.742 62.3116 138.639 62.5204C134.469 71.0409 134.13 109.885 117.396 130.075C115.763 132.045 112.257 132.467 108.156 132.098C112.412 132.57 116.087 132.222 117.791 130.209C134.728 110.19 135.462 71.3503 139.717 62.8729C140.105 62.0992 140.462 61.2886 140.462 61.2886C139.001 60.8379 139.547 61.7049 138.933 61.9002Z" fill="#004072"/>
<path d="M102.127 114.731L116.492 116.078C116.492 116.078 115.836 122.888 105.307 120.374C97.6546 118.547 102.127 114.731 102.127 114.731Z" fill="url(#paint51_linear_11608_47292)"/>
<path d="M102.127 113.65L116.492 116.08C116.492 116.08 115.836 121.809 105.307 119.293C97.6546 117.465 102.127 113.65 102.127 113.65Z" fill="url(#paint52_linear_11608_47292)"/>
<path d="M137.468 93.3501C137.392 93.7075 137.614 93.9777 137.964 93.9519C138.314 93.9261 138.661 93.6166 138.737 93.258C138.813 92.9006 138.591 92.6305 138.241 92.6562C137.889 92.682 137.544 92.9927 137.468 93.3501Z" fill="#00F5EB"/>
<path d="M137.893 93.5293C137.955 93.5293 138.006 93.4791 138.006 93.4171C138.006 93.3552 137.955 93.3049 137.893 93.3049C137.831 93.3049 137.781 93.3552 137.781 93.4171C137.781 93.4791 137.831 93.5293 137.893 93.5293Z" fill="#CDE8F7"/>
<path d="M138.3 93.2098C138.362 93.2098 138.412 93.1595 138.412 93.0976C138.412 93.0356 138.362 92.9854 138.3 92.9854C138.238 92.9854 138.188 93.0356 138.188 93.0976C138.188 93.1595 138.238 93.2098 138.3 93.2098Z" fill="#CDE8F7"/>
<path d="M133.798 103.464C133.997 103.771 134.345 103.804 134.576 103.539C134.805 103.273 134.831 102.809 134.632 102.502C134.433 102.195 134.086 102.162 133.855 102.427C133.624 102.692 133.599 103.157 133.798 103.464Z" fill="#00F5EB"/>
<path d="M134.136 103.327C134.198 103.327 134.248 103.276 134.248 103.215C134.248 103.153 134.198 103.102 134.136 103.102C134.074 103.102 134.023 103.153 134.023 103.215C134.023 103.276 134.074 103.327 134.136 103.327Z" fill="#CDE8F7"/>
<path d="M134.214 102.804C134.276 102.804 134.326 102.754 134.326 102.692C134.326 102.63 134.276 102.58 134.214 102.58C134.152 102.58 134.102 102.63 134.102 102.692C134.102 102.754 134.152 102.804 134.214 102.804Z" fill="#CDE8F7"/>
<path d="M128.809 111.814C128.502 112.013 128.468 112.36 128.734 112.591C128.999 112.822 129.463 112.846 129.77 112.647C130.077 112.448 130.11 112.101 129.845 111.87C129.579 111.639 129.114 111.615 128.809 111.814Z" fill="#00F5EB"/>
<path d="M129.13 112.237C129.086 112.281 129.016 112.281 128.97 112.237C128.927 112.193 128.927 112.121 128.97 112.077C129.014 112.033 129.085 112.033 129.13 112.077C129.174 112.121 129.174 112.192 129.13 112.237Z" fill="#CDE8F7"/>
<path d="M129.654 112.309C129.61 112.353 129.538 112.353 129.494 112.309C129.45 112.265 129.45 112.194 129.494 112.15C129.538 112.106 129.61 112.106 129.654 112.15C129.698 112.194 129.698 112.265 129.654 112.309Z" fill="#CDE8F7"/>
<path d="M69.9255 98.2571C69.6922 97.7818 69.5681 97.2906 69.5129 96.7932C66.3285 97.9046 62.821 100.658 60.468 101.299C57.2959 102.164 56.1145 102.143 55.886 102.955C55.633 103.855 59.5236 102.482 59.628 102.769C59.7828 103.19 54.0955 104.358 54.5757 105.452C54.9232 106.245 59.655 104.191 59.7864 104.358C60.0677 104.716 55.2118 105.234 55.0939 106.785C55.0215 107.735 60.4717 105.207 60.5331 105.579C60.6043 106.01 55.2794 107.099 55.8074 107.658C57.092 109.019 63.3589 105.428 63.774 105.685C64.1891 105.941 61.8816 108.024 61.69 108.557C61.4051 109.345 62.8149 109.575 65.9121 106.253C66.9253 105.168 66.0841 105.142 67.225 104.388C67.5185 104.194 69.3655 103.316 72.4136 102.204C71.5699 100.902 70.639 99.6878 69.9255 98.2571Z" fill="url(#paint53_linear_11608_47292)"/>
<path d="M68.7312 104.428C70.8017 103.855 73.0368 102.895 74.8102 102.312C74.8102 102.312 72.0138 93.9983 70.6777 95.0962C68.6894 96.7296 66.2394 98.1382 66.2394 98.1382C65.9532 100.701 66.318 102.993 68.7312 104.428Z" fill="url(#paint54_linear_11608_47292)"/>
<path d="M119.156 84.5939C125.537 83.114 133.159 62.4748 125.541 63.5248C107.031 66.0768 67.4636 96.9288 67.4636 96.9288C66.3927 99.7951 73.7797 108.416 80.0478 104.712C80.0478 104.712 97.036 89.7236 119.156 84.5939Z" fill="url(#paint55_linear_11608_47292)"/>
<path d="M232.617 22.7762L235.254 33.2198L290.011 13.5447L232.617 22.7762Z" fill="url(#paint56_linear_11608_47292)"/>
<path d="M231.821 19.4235L230.32 15.0479L290.009 13.5447L231.821 19.4235Z" fill="url(#paint57_linear_11608_47292)"/>
<path d="M215 26.9566L231.503 17.2068L290.007 13.5447L215 26.9566Z" fill="url(#paint58_linear_11608_47292)"/>
<path d="M230.306 15.048L219.82 11.1292L289.994 13.5448L230.306 15.048Z" fill="url(#paint59_linear_11608_47292)"/>
<defs>
<linearGradient id="paint0_linear_11608_47292" x1="121.732" y1="16.9868" x2="121.732" y2="34.6582" gradientUnits="userSpaceOnUse">
<stop stop-color="#EDF1F4"/>
<stop offset="1" stop-color="#EDF1F4" stop-opacity="0"/>
</linearGradient>
<linearGradient id="paint1_linear_11608_47292" x1="49.0383" y1="63.0572" x2="49.0386" y2="165.101" gradientUnits="userSpaceOnUse">
<stop stop-color="#EDF1F4"/>
<stop offset="0.7765" stop-color="white"/>
</linearGradient>
<linearGradient id="paint2_linear_11608_47292" x1="268.093" y1="127.767" x2="268.093" y2="176.952" gradientUnits="userSpaceOnUse">
<stop stop-color="#EDF1F4"/>
<stop offset="0.7765" stop-color="white"/>
</linearGradient>
<linearGradient id="paint3_linear_11608_47292" x1="165.069" y1="23.8652" x2="165.069" y2="96.6982" gradientUnits="userSpaceOnUse">
<stop stop-color="#EDF1F4"/>
<stop offset="0.7765" stop-color="white"/>
</linearGradient>
<linearGradient id="paint4_linear_11608_47292" x1="87.1811" y1="1.96755" x2="87.1813" y2="40.9703" gradientUnits="userSpaceOnUse">
<stop stop-color="#EDF1F4"/>
<stop offset="0.7765" stop-color="white"/>
</linearGradient>
<linearGradient id="paint5_linear_11608_47292" x1="36.1824" y1="31.0449" x2="36.1824" y2="43.9014" gradientUnits="userSpaceOnUse">
<stop stop-color="#EDF1F4"/>
<stop offset="1" stop-color="#EDF1F4" stop-opacity="0"/>
</linearGradient>
<linearGradient id="paint6_linear_11608_47292" x1="215.535" y1="51.7021" x2="215.535" y2="59.541" gradientUnits="userSpaceOnUse">
<stop stop-color="#EDF1F4"/>
<stop offset="1" stop-color="#EDF1F4" stop-opacity="0"/>
</linearGradient>
<linearGradient id="paint7_linear_11608_47292" x1="139.924" y1="85.3913" x2="121.388" y2="184.794" gradientUnits="userSpaceOnUse">
<stop offset="0.4493" stop-color="#003D5D"/>
<stop offset="0.5579" stop-color="#014363"/>
<stop offset="0.7032" stop-color="#055274"/>
<stop offset="0.8688" stop-color="#0B6C90"/>
<stop offset="0.9154" stop-color="#0D7499"/>
</linearGradient>
<linearGradient id="paint8_linear_11608_47292" x1="201.195" y1="33.8378" x2="189.11" y2="37.317" gradientUnits="userSpaceOnUse">
<stop offset="0.1951" stop-color="#003258"/>
<stop offset="0.7989" stop-color="#015EA5"/>
</linearGradient>
<linearGradient id="paint9_linear_11608_47292" x1="194.604" y1="27.3503" x2="209.378" y2="29.0425" gradientUnits="userSpaceOnUse">
<stop offset="0.4899" stop-color="#F2B8B8"/>
<stop offset="0.6947" stop-color="#F3C0C0"/>
<stop offset="0.9987" stop-color="#F7D5D5"/>
</linearGradient>
<linearGradient id="paint10_linear_11608_47292" x1="193.609" y1="29.0794" x2="198.606" y2="40.4205" gradientUnits="userSpaceOnUse">
<stop stop-color="#CDE8F7"/>
<stop offset="0.1698" stop-color="#CAE6F5"/>
<stop offset="0.3143" stop-color="#BFDFF0"/>
<stop offset="0.4495" stop-color="#AED3E7"/>
<stop offset="0.579" stop-color="#95C3DA"/>
<stop offset="0.7045" stop-color="#75ADCA"/>
<stop offset="0.8254" stop-color="#4E94B6"/>
<stop offset="0.87" stop-color="#3E89AE"/>
</linearGradient>
<linearGradient id="paint11_linear_11608_47292" x1="178" y1="46.2749" x2="176.733" y2="88.4014" gradientUnits="userSpaceOnUse">
<stop offset="0.1327" stop-color="#015EA5"/>
<stop offset="0.7066" stop-color="#00487E"/>
</linearGradient>
<linearGradient id="paint12_linear_11608_47292" x1="132.627" y1="62.2083" x2="132.627" y2="126.927" gradientUnits="userSpaceOnUse">
<stop stop-color="#DAEFFF"/>
<stop offset="1" stop-color="#BCD7EB"/>
</linearGradient>
<linearGradient id="paint13_linear_11608_47292" x1="141.896" y1="77.8642" x2="144.27" y2="57.145" gradientUnits="userSpaceOnUse">
<stop offset="0.4076" stop-color="#F7D5D5"/>
<stop offset="0.5819" stop-color="#F6D0D0"/>
<stop offset="0.7766" stop-color="#F4C3C3"/>
<stop offset="0.8862" stop-color="#F2B8B8"/>
</linearGradient>
<linearGradient id="paint14_linear_11608_47292" x1="142.091" y1="61.3298" x2="147.366" y2="57.2998" gradientUnits="userSpaceOnUse">
<stop stop-color="white"/>
<stop offset="0.1429" stop-color="#FEFAFA"/>
<stop offset="0.3029" stop-color="#FCEDED"/>
<stop offset="0.4712" stop-color="#F8D7D7"/>
<stop offset="0.6412" stop-color="#F2B8B8"/>
</linearGradient>
<linearGradient id="paint15_linear_11608_47292" x1="148.671" y1="60.9183" x2="142.607" y2="47.1459" gradientUnits="userSpaceOnUse">
<stop offset="0.001302" stop-color="#F7D5D5"/>
<stop offset="0.3216" stop-color="#F6D0D0"/>
<stop offset="0.6797" stop-color="#F4C3C3"/>
<stop offset="0.8812" stop-color="#F2B8B8"/>
</linearGradient>
<linearGradient id="paint16_linear_11608_47292" x1="147.127" y1="61.5969" x2="142.69" y2="51.5226" gradientUnits="userSpaceOnUse">
<stop offset="0.001302" stop-color="#F2B8B8"/>
<stop offset="0.0443" stop-color="#F3BEBE"/>
<stop offset="0.2854" stop-color="#F8DADA"/>
<stop offset="0.5265" stop-color="#FCEFEF"/>
<stop offset="0.7655" stop-color="#FEFBFB"/>
<stop offset="1" stop-color="white"/>
</linearGradient>
<linearGradient id="paint17_linear_11608_47292" x1="144.664" y1="54.0147" x2="149.553" y2="54.0147" gradientUnits="userSpaceOnUse">
<stop stop-color="#E5928A"/>
<stop offset="0.3518" stop-color="#EAA09B"/>
<stop offset="0.9987" stop-color="#F2B8B8"/>
</linearGradient>
<linearGradient id="paint18_linear_11608_47292" x1="140.016" y1="41.8824" x2="132.447" y2="54.2063" gradientUnits="userSpaceOnUse">
<stop stop-color="#E45959"/>
<stop offset="1" stop-color="#E45959" stop-opacity="0"/>
</linearGradient>
<linearGradient id="paint19_linear_11608_47292" x1="140.939" y1="47.4345" x2="136.159" y2="50.6648" gradientUnits="userSpaceOnUse">
<stop stop-color="#E45959"/>
<stop offset="1" stop-color="#E45959" stop-opacity="0"/>
</linearGradient>
<linearGradient id="paint20_linear_11608_47292" x1="148.318" y1="46.9427" x2="141.078" y2="57.2346" gradientUnits="userSpaceOnUse">
<stop stop-color="#E45959"/>
<stop offset="1" stop-color="#E45959" stop-opacity="0"/>
</linearGradient>
<linearGradient id="paint21_linear_11608_47292" x1="144.632" y1="48.0714" x2="141.333" y2="50.0068" gradientUnits="userSpaceOnUse">
<stop stop-color="#E45959"/>
<stop offset="1" stop-color="#E45959" stop-opacity="0"/>
</linearGradient>
<linearGradient id="paint22_linear_11608_47292" x1="144.083" y1="48.1919" x2="140.639" y2="50.9789" gradientUnits="userSpaceOnUse">
<stop stop-color="#E45959"/>
<stop offset="1" stop-color="#E45959" stop-opacity="0"/>
</linearGradient>
<linearGradient id="paint23_linear_11608_47292" x1="143.75" y1="48.1147" x2="140.835" y2="50.4744" gradientUnits="userSpaceOnUse">
<stop stop-color="#E45959"/>
<stop offset="1" stop-color="#E45959" stop-opacity="0"/>
</linearGradient>
<linearGradient id="paint24_linear_11608_47292" x1="147.488" y1="51.8772" x2="146.496" y2="54.1329" gradientUnits="userSpaceOnUse">
<stop stop-color="#E45959"/>
<stop offset="1" stop-color="#E45959" stop-opacity="0"/>
</linearGradient>
<linearGradient id="paint25_linear_11608_47292" x1="149.623" y1="51.4095" x2="149.404" y2="52.128" gradientUnits="userSpaceOnUse">
<stop stop-color="#E45959"/>
<stop offset="1" stop-color="#E45959" stop-opacity="0"/>
</linearGradient>
<linearGradient id="paint26_linear_11608_47292" x1="149.52" y1="55.5868" x2="151.177" y2="55.5868" gradientUnits="userSpaceOnUse">
<stop stop-color="#E5928A"/>
<stop offset="0.3518" stop-color="#EAA09B"/>
<stop offset="0.9987" stop-color="#F2B8B8"/>
</linearGradient>
<linearGradient id="paint27_linear_11608_47292" x1="146.038" y1="54.5327" x2="147.914" y2="53.6706" gradientUnits="userSpaceOnUse">
<stop stop-color="#ECF6FC"/>
<stop offset="0.2495" stop-color="#E3F2FB"/>
<stop offset="1" stop-color="#CDE8F7"/>
</linearGradient>
<linearGradient id="paint28_linear_11608_47292" x1="146.633" y1="53.9303" x2="147.721" y2="53.9303" gradientUnits="userSpaceOnUse">
<stop stop-color="#0D7499"/>
<stop offset="0.6463" stop-color="#3E89AE"/>
<stop offset="0.9471" stop-color="#6AA4C1"/>
</linearGradient>
<linearGradient id="paint29_linear_11608_47292" x1="145.875" y1="53.759" x2="147.74" y2="53.759" gradientUnits="userSpaceOnUse">
<stop offset="0.001302" stop-color="#F7D5D5"/>
<stop offset="0.3216" stop-color="#F6D0D0"/>
<stop offset="0.6797" stop-color="#F4C3C3"/>
<stop offset="0.8812" stop-color="#F2B8B8"/>
</linearGradient>
<linearGradient id="paint30_linear_11608_47292" x1="149.374" y1="55.9172" x2="150.012" y2="55.9172" gradientUnits="userSpaceOnUse">
<stop stop-color="#E5928A"/>
<stop offset="0.0853" stop-color="#DB8B80"/>
<stop offset="0.7102" stop-color="#925E3E"/>
<stop offset="1" stop-color="#754C24"/>
</linearGradient>
<linearGradient id="paint31_linear_11608_47292" x1="148.744" y1="53.2519" x2="150.203" y2="52.5817" gradientUnits="userSpaceOnUse">
<stop stop-color="#ECF6FC"/>
<stop offset="0.2495" stop-color="#E3F2FB"/>
<stop offset="1" stop-color="#CDE8F7"/>
</linearGradient>
<linearGradient id="paint32_linear_11608_47292" x1="149.211" y1="52.7975" x2="150.057" y2="52.7975" gradientUnits="userSpaceOnUse">
<stop stop-color="#0D7499"/>
<stop offset="0.6463" stop-color="#3E89AE"/>
<stop offset="0.9471" stop-color="#6AA4C1"/>
</linearGradient>
<linearGradient id="paint33_linear_11608_47292" x1="148.626" y1="52.6294" x2="150.065" y2="52.6294" gradientUnits="userSpaceOnUse">
<stop offset="0.001302" stop-color="#F7D5D5"/>
<stop offset="0.3216" stop-color="#F6D0D0"/>
<stop offset="0.6797" stop-color="#F4C3C3"/>
<stop offset="0.8812" stop-color="#F2B8B8"/>
</linearGradient>
<linearGradient id="paint34_linear_11608_47292" x1="141.703" y1="55.6856" x2="143.025" y2="55.6856" gradientUnits="userSpaceOnUse">
<stop stop-color="#E5928A"/>
<stop offset="0.3518" stop-color="#EAA09B"/>
<stop offset="0.9987" stop-color="#F2B8B8"/>
</linearGradient>
<linearGradient id="paint35_linear_11608_47292" x1="143.819" y1="78.0837" x2="145.545" y2="63.0183" gradientUnits="userSpaceOnUse">
<stop offset="0.001302" stop-color="#F7D5D5"/>
<stop offset="0.3235" stop-color="#F6D0D0"/>
<stop offset="0.6836" stop-color="#F4C3C3"/>
<stop offset="0.8862" stop-color="#F2B8B8"/>
</linearGradient>
<linearGradient id="paint36_linear_11608_47292" x1="143.473" y1="92.7008" x2="146.573" y2="65.6341" gradientUnits="userSpaceOnUse">
<stop stop-color="#ECF6FC"/>
<stop offset="0.2495" stop-color="#E3F2FB"/>
<stop offset="1" stop-color="#CDE8F7"/>
</linearGradient>
<linearGradient id="paint37_linear_11608_47292" x1="140.352" y1="62.2723" x2="138.374" y2="88.4553" gradientUnits="userSpaceOnUse">
<stop offset="0.00297492" stop-color="#3E89AE"/>
<stop offset="0.00765429" stop-color="#408AAF"/>
<stop offset="0.1637" stop-color="#72ABC8"/>
<stop offset="0.3108" stop-color="#99C6DD"/>
<stop offset="0.4449" stop-color="#B6D8EB"/>
<stop offset="0.5616" stop-color="#C7E4F4"/>
<stop offset="0.6479" stop-color="#CDE8F7"/>
<stop offset="0.7792" stop-color="#CAE6F6"/>
<stop offset="0.8575" stop-color="#C2E1F1"/>
<stop offset="0.9219" stop-color="#B4D7EA"/>
<stop offset="0.9785" stop-color="#A0CAE0"/>
<stop offset="1" stop-color="#96C3DB"/>
</linearGradient>
<linearGradient id="paint38_linear_11608_47292" x1="140.927" y1="61.2506" x2="138.872" y2="88.4417" gradientUnits="userSpaceOnUse">
<stop stop-color="#CDE8F7"/>
<stop offset="0.7505" stop-color="#E3F2FB"/>
<stop offset="1" stop-color="#ECF6FC"/>
</linearGradient>
<linearGradient id="paint39_linear_11608_47292" x1="132.058" y1="147.962" x2="148.396" y2="71.2397" gradientUnits="userSpaceOnUse">
<stop offset="0.00640264" stop-color="#00345B"/>
<stop offset="0.1907" stop-color="#003863"/>
<stop offset="0.4432" stop-color="#004275"/>
<stop offset="0.7339" stop-color="#005392"/>
<stop offset="1" stop-color="#0066B4"/>
</linearGradient>
<linearGradient id="paint40_linear_11608_47292" x1="93.4812" y1="175.68" x2="107.61" y2="177.299" gradientUnits="userSpaceOnUse">
<stop offset="0.001302" stop-color="#F7D5D5"/>
<stop offset="0.3235" stop-color="#F6D0D0"/>
<stop offset="0.6836" stop-color="#F4C3C3"/>
<stop offset="0.8862" stop-color="#F2B8B8"/>
</linearGradient>
<linearGradient id="paint41_linear_11608_47292" x1="97.2044" y1="163.622" x2="109.026" y2="164.977" gradientUnits="userSpaceOnUse">
<stop stop-color="#E5928A"/>
<stop offset="0.7989" stop-color="white"/>
</linearGradient>
<linearGradient id="paint42_linear_11608_47292" x1="91.3951" y1="192.535" x2="92.2586" y2="193.607" gradientUnits="userSpaceOnUse">
<stop offset="0.1951" stop-color="#003D5D"/>
<stop offset="0.7989" stop-color="#0D7499"/>
</linearGradient>
<linearGradient id="paint43_linear_11608_47292" x1="95.8599" y1="195.419" x2="89.8587" y2="194.801" gradientUnits="userSpaceOnUse">
<stop stop-color="#003359"/>
<stop offset="0.9987" stop-color="#015EA5"/>
</linearGradient>
<linearGradient id="paint44_linear_11608_47292" x1="71.5868" y1="160.249" x2="82.8885" y2="170.294" gradientUnits="userSpaceOnUse">
<stop offset="0.001302" stop-color="#F7D5D5"/>
<stop offset="0.3235" stop-color="#F6D0D0"/>
<stop offset="0.6836" stop-color="#F4C3C3"/>
<stop offset="0.8862" stop-color="#F2B8B8"/>
</linearGradient>
<linearGradient id="paint45_linear_11608_47292" x1="83.5435" y1="160.899" x2="89.9302" y2="153.714" gradientUnits="userSpaceOnUse">
<stop stop-color="#E5928A"/>
<stop offset="0.7989" stop-color="white"/>
</linearGradient>
<linearGradient id="paint46_linear_11608_47292" x1="60.7674" y1="172.882" x2="62.5836" y2="174.389" gradientUnits="userSpaceOnUse">
<stop offset="0.1951" stop-color="#003D5D"/>
<stop offset="0.7989" stop-color="#0D7499"/>
</linearGradient>
<linearGradient id="paint47_linear_11608_47292" x1="64.8998" y1="176.985" x2="56.1231" y2="175.419" gradientUnits="userSpaceOnUse">
<stop stop-color="#003359"/>
<stop offset="0.9987" stop-color="#015EA5"/>
</linearGradient>
<linearGradient id="paint48_linear_11608_47292" x1="84.0144" y1="134.386" x2="129.131" y2="139.554" gradientUnits="userSpaceOnUse">
<stop stop-color="#003D5D"/>
<stop offset="0.7989" stop-color="#0D7499"/>
</linearGradient>
<linearGradient id="paint49_linear_11608_47292" x1="127.007" y1="157.989" x2="114.833" y2="111.832" gradientUnits="userSpaceOnUse">
<stop offset="0.2011" stop-color="#015EA5"/>
<stop offset="0.8259" stop-color="#00335A"/>
</linearGradient>
<radialGradient id="paint50_radial_11608_47292" cx="0" cy="0" r="1" gradientUnits="userSpaceOnUse" gradientTransform="translate(97.8863 92.1194) scale(64.6389 56.5141)">
<stop offset="0.1951" stop-color="#003D6C"/>
<stop offset="0.3354" stop-color="#004E89"/>
<stop offset="0.4861" stop-color="#005393"/>
<stop offset="0.6396" stop-color="#005596"/>
<stop offset="0.7989" stop-color="#0066B5"/>
</radialGradient>
<linearGradient id="paint51_linear_11608_47292" x1="103.15" y1="109.853" x2="106.71" y2="124.212" gradientUnits="userSpaceOnUse">
<stop offset="0.1327" stop-color="#015EA5"/>
<stop offset="0.7066" stop-color="#003D6B"/>
</linearGradient>
<linearGradient id="paint52_linear_11608_47292" x1="103.046" y1="108.085" x2="107.102" y2="123.344" gradientUnits="userSpaceOnUse">
<stop offset="0.2934" stop-color="#003359"/>
<stop offset="0.8673" stop-color="#015EA5"/>
</linearGradient>
<linearGradient id="paint53_linear_11608_47292" x1="57.8369" y1="109.496" x2="69.4115" y2="96.6998" gradientUnits="userSpaceOnUse">
<stop offset="0.001302" stop-color="#F7D5D5"/>
<stop offset="0.2006" stop-color="#F6D0D0"/>
<stop offset="0.4234" stop-color="#F4C3C3"/>
<stop offset="0.5488" stop-color="#F2B8B8"/>
</linearGradient>
<linearGradient id="paint54_linear_11608_47292" x1="70.3576" y1="96.9851" x2="70.665" y2="106.801" gradientUnits="userSpaceOnUse">
<stop stop-color="#CDE8F7"/>
<stop offset="0.87" stop-color="#3E89AE"/>
</linearGradient>
<linearGradient id="paint55_linear_11608_47292" x1="102.597" y1="104.15" x2="98.0138" y2="78.2412" gradientUnits="userSpaceOnUse">
<stop offset="0.2934" stop-color="#00487E"/>
<stop offset="0.8673" stop-color="#015EA5"/>
</linearGradient>
<linearGradient id="paint56_linear_11608_47292" x1="232.645" y1="20.5575" x2="289.397" y2="23.9164" gradientUnits="userSpaceOnUse">
<stop stop-color="#00345C"/>
<stop offset="0.9987" stop-color="#1567A6"/>
</linearGradient>
<linearGradient id="paint57_linear_11608_47292" x1="230.256" y1="14.6845" x2="289.891" y2="18.0081" gradientUnits="userSpaceOnUse">
<stop stop-color="#003359"/>
<stop offset="0.9987" stop-color="#12609B"/>
</linearGradient>
<linearGradient id="paint58_linear_11608_47292" x1="215.539" y1="16.2872" x2="289.679" y2="20.0331" gradientUnits="userSpaceOnUse">
<stop offset="0.001302" stop-color="#3D7DAE"/>
<stop offset="1" stop-color="#CCE5F9"/>
</linearGradient>
<linearGradient id="paint59_linear_11608_47292" x1="219.683" y1="12.2924" x2="289.351" y2="20.5071" gradientUnits="userSpaceOnUse">
<stop offset="0.001302" stop-color="#4080B0"/>
<stop offset="1" stop-color="#D1E8F9"/>
</linearGradient>
</defs>
</svg>
