<svg width="39" height="36" viewBox="0 0 39 36" fill="none" xmlns="http://www.w3.org/2000/svg">
<path d="M18.2191 16.4329L18.6859 15.6172C21.266 11.1099 18.0397 4.35846 11.4805 0.538773L1.6715 17.6753C-0.908521 22.1826 2.31857 28.9326 8.87777 32.7523C15.437 36.572 22.8461 36.0159 25.4261 31.5085C28.004 27.0018 24.7783 20.2525 18.2191 16.4329Z" fill="url(#paint0_linear_12141_76472)"/>
<path d="M13.5516 24.5899L13.0848 25.4055C17.2296 27.8191 20.0414 31.4031 20.8992 34.8519C22.8728 34.2847 24.4765 33.1635 25.4259 31.5048C28.0056 26.9981 24.779 20.249 18.2207 16.4298L18.6875 15.6143C21.2685 11.1084 18.0427 4.35793 11.4844 0.538773L6.34716 9.51359C12.9047 13.3341 16.1313 20.0832 13.5516 24.5899Z" fill="url(#paint1_linear_12141_76472)"/>
<path d="M38.9879 7.83073C32.4256 4.00949 25.0128 4.56584 22.4316 9.07503L18.6933 15.6055L18.2262 16.4214L13.5529 24.5852C11.8236 27.6061 7.92405 28.8514 3.56548 28.1948C4.91549 29.9068 6.71533 31.4887 8.87956 32.749C15.4419 36.5702 22.8546 36.0139 25.4359 31.5047L38.9879 7.83073Z" fill="url(#paint2_linear_12141_76472)"/>
<defs>
<linearGradient id="paint0_linear_12141_76472" x1="4.23992" y1="13.1882" x2="28.0954" y2="26.8431" gradientUnits="userSpaceOnUse">
<stop stop-color="#1BB2E2"/>
<stop offset="0.00334227" stop-color="#1BB2E2"/>
<stop offset="0.313" stop-color="#3588C0"/>
<stop offset="0.5932" stop-color="#4769A8"/>
<stop offset="0.8316" stop-color="#525799"/>
<stop offset="1" stop-color="#565094"/>
</linearGradient>
<linearGradient id="paint1_linear_12141_76472" x1="27.2524" y1="0.65339" x2="13.0902" y2="24.9729" gradientUnits="userSpaceOnUse">
<stop stop-color="#1BB2E2"/>
<stop offset="0.00334227" stop-color="#1BB2E2"/>
<stop offset="0.313" stop-color="#3588C0"/>
<stop offset="0.5932" stop-color="#4769A8"/>
<stop offset="0.8316" stop-color="#525799"/>
<stop offset="1" stop-color="#565094"/>
</linearGradient>
<linearGradient id="paint2_linear_12141_76472" x1="35.4565" y1="-6.75681" x2="14.0271" y2="30.0448" gradientUnits="userSpaceOnUse">
<stop stop-color="#565094"/>
<stop offset="1" stop-color="#1BB2E2"/>
</linearGradient>
</defs>
</svg>
