<svg width="36" height="36" viewBox="0 0 36 36" fill="none" xmlns="http://www.w3.org/2000/svg">
<path d="M17.1667 18.4066C22.2293 18.4066 26.3333 14.3025 26.3333 9.23991C26.3333 4.1773 22.2293 0.0732422 17.1667 0.0732422C12.1041 0.0732422 8 4.1773 8 9.23991C8 14.3025 12.1041 18.4066 17.1667 18.4066Z" fill="#D1BCE3"/>
<path fill-rule="evenodd" clip-rule="evenodd" d="M27.1662 21.23C23.8895 21.23 21.2295 23.89 21.2295 27.1666C21.2295 30.4433 23.8895 33.105 27.1662 33.105C30.4428 33.105 33.1045 30.4433 33.1045 27.1666C33.1045 23.89 30.4428 21.23 27.1662 21.23ZM27.1662 23.73C29.0628 23.73 30.6045 25.27 30.6045 27.1666C30.6045 29.0633 29.0628 30.605 27.1662 30.605C25.2695 30.605 23.7278 29.0633 23.7278 27.1666C23.7278 25.27 25.2695 23.73 27.1662 23.73Z" fill="#00BAEB"/>
<path fill-rule="evenodd" clip-rule="evenodd" d="M28.416 22.4782V19.6665C28.416 18.9765 27.856 18.4165 27.166 18.4165C26.476 18.4165 25.916 18.9765 25.916 19.6665V22.4798C25.916 23.1682 26.476 23.7298 27.166 23.7298C27.856 23.7282 28.416 23.1682 28.416 22.4782V22.4782Z" fill="#00BAEB"/>
<path fill-rule="evenodd" clip-rule="evenodd" d="M31.3648 24.7367L33.3531 22.7467C33.8414 22.26 33.8414 21.4667 33.3531 20.98C32.8664 20.4917 32.0731 20.4917 31.5864 20.98L29.5964 22.9684C29.1098 23.4567 29.1098 24.2484 29.5964 24.7367C30.0848 25.2234 30.8764 25.2234 31.3648 24.7367V24.7367Z" fill="#00BAEB"/>
<path fill-rule="evenodd" clip-rule="evenodd" d="M31.8528 28.4165H34.6662C35.3562 28.4165 35.9162 27.8565 35.9162 27.1665C35.9162 26.4765 35.3562 25.9165 34.6662 25.9165H31.8528C31.1645 25.9165 30.6045 26.4765 30.6045 27.1665C30.6028 27.8565 31.1645 28.4165 31.8528 28.4165Z" fill="#00BAEB"/>
<path fill-rule="evenodd" clip-rule="evenodd" d="M29.5964 31.365L31.5864 33.3534C32.0731 33.8417 32.8664 33.8417 33.3531 33.3534C33.8414 32.8667 33.8414 32.0734 33.3531 31.5867L31.3648 29.5967C30.8764 29.11 30.0848 29.11 29.5964 29.5967C29.1098 30.085 29.1098 30.8767 29.5964 31.365V31.365Z" fill="#00BAEB"/>
<path fill-rule="evenodd" clip-rule="evenodd" d="M25.916 31.8533V34.6666C25.916 35.3566 26.476 35.9166 27.166 35.9166C27.856 35.9166 28.416 35.3566 28.416 34.6666V31.8533C28.416 31.1649 27.856 30.6049 27.166 30.6033C26.476 30.6033 25.916 31.1649 25.916 31.8533Z" fill="#00BAEB"/>
<path fill-rule="evenodd" clip-rule="evenodd" d="M22.9679 29.5967L20.9795 31.5867C20.4912 32.0734 20.4912 32.8667 20.9795 33.3534C21.4662 33.8417 22.2595 33.8417 22.7462 33.3534L24.7362 31.365C25.2229 30.8767 25.2229 30.085 24.7362 29.5967C24.2479 29.11 23.4562 29.11 22.9679 29.5967V29.5967Z" fill="#00BAEB"/>
<path fill-rule="evenodd" clip-rule="evenodd" d="M22.4777 25.9165H19.666C18.976 25.9165 18.416 26.4765 18.416 27.1665C18.416 27.8565 18.976 28.4165 19.666 28.4165H22.4777C23.1677 28.4165 23.7293 27.8565 23.7277 27.1665C23.7277 26.4765 23.1677 25.9165 22.4777 25.9165Z" fill="#00BAEB"/>
<path fill-rule="evenodd" clip-rule="evenodd" d="M24.7362 22.9684L22.7462 20.98C22.2595 20.4917 21.4662 20.4917 20.9795 20.98C20.4912 21.4667 20.4912 22.26 20.9795 22.7467L22.9679 24.7367C23.4562 25.2234 24.2479 25.2234 24.7362 24.7367C25.2229 24.2484 25.2229 23.4567 24.7362 22.9684V22.9684Z" fill="#00BAEB"/>
<path fill-rule="evenodd" clip-rule="evenodd" d="M19.5597 34.2599C18.6697 33.1166 18.7497 31.4583 19.8013 30.4083L20.1247 30.0833H19.6663C18.0563 30.0833 16.7497 28.7766 16.7497 27.1666C16.7497 25.5566 18.0563 24.2499 19.6663 24.2499H20.1247L19.8013 23.9249C18.708 22.8333 18.6647 21.0849 19.6713 19.9399C18.8547 19.8766 18.018 19.8433 17.1663 19.8433C11.6297 19.8433 6.72801 21.2283 3.68467 23.3033C1.36301 24.8866 0.0830078 26.8983 0.0830078 29.0099V31.4266C0.0830078 32.1783 0.381341 32.8999 0.913008 33.4299C1.44467 33.9616 2.16467 34.2599 2.91634 34.2599H19.5597Z" fill="#015EA5"/>
</svg>
