<svg width="28" height="28" viewBox="0 0 28 28" fill="none" xmlns="http://www.w3.org/2000/svg">
<path d="M13.375 14.3049C17.172 14.3049 20.25 11.2269 20.25 7.42993C20.25 3.63297 17.172 0.554932 13.375 0.554932C9.57804 0.554932 6.5 3.63297 6.5 7.42993C6.5 11.2269 9.57804 14.3049 13.375 14.3049Z" fill="#D1BCE3"/>
<path fill-rule="evenodd" clip-rule="evenodd" d="M20.8754 16.4226C18.4179 16.4226 16.4229 18.4176 16.4229 20.8751C16.4229 23.3326 18.4179 25.3289 20.8754 25.3289C23.3329 25.3289 25.3291 23.3326 25.3291 20.8751C25.3291 18.4176 23.3329 16.4226 20.8754 16.4226ZM20.8754 18.2976C22.2979 18.2976 23.4541 19.4526 23.4541 20.8751C23.4541 22.2976 22.2979 23.4539 20.8754 23.4539C19.4529 23.4539 18.2966 22.2976 18.2966 20.8751C18.2966 19.4526 19.4529 18.2976 20.8754 18.2976Z" fill="#00BAEB"/>
<path fill-rule="evenodd" clip-rule="evenodd" d="M21.8125 17.3588V15.25C21.8125 14.7325 21.3925 14.3125 20.875 14.3125C20.3575 14.3125 19.9375 14.7325 19.9375 15.25V17.36C19.9375 17.8763 20.3575 18.2975 20.875 18.2975C21.3925 18.2963 21.8125 17.8763 21.8125 17.3588Z" fill="#00BAEB"/>
<path fill-rule="evenodd" clip-rule="evenodd" d="M24.0238 19.0526L25.5151 17.5601C25.8813 17.1951 25.8813 16.6001 25.5151 16.2351C25.1501 15.8689 24.5551 15.8689 24.1901 16.2351L22.6976 17.7264C22.3326 18.0926 22.3326 18.6864 22.6976 19.0526C23.0638 19.4176 23.6576 19.4176 24.0238 19.0526Z" fill="#00BAEB"/>
<path fill-rule="evenodd" clip-rule="evenodd" d="M24.3904 21.8125H26.5004C27.0179 21.8125 27.4379 21.3925 27.4379 20.875C27.4379 20.3575 27.0179 19.9375 26.5004 19.9375H24.3904C23.8741 19.9375 23.4541 20.3575 23.4541 20.875C23.4529 21.3925 23.8741 21.8125 24.3904 21.8125Z" fill="#00BAEB"/>
<path fill-rule="evenodd" clip-rule="evenodd" d="M22.6976 24.0238L24.1901 25.5151C24.5551 25.8813 25.1501 25.8813 25.5151 25.5151C25.8813 25.1501 25.8813 24.5551 25.5151 24.1901L24.0238 22.6976C23.6576 22.3326 23.0638 22.3326 22.6976 22.6976C22.3326 23.0638 22.3326 23.6576 22.6976 24.0238Z" fill="#00BAEB"/>
<path fill-rule="evenodd" clip-rule="evenodd" d="M19.9375 24.3901V26.5001C19.9375 27.0176 20.3575 27.4376 20.875 27.4376C21.3925 27.4376 21.8125 27.0176 21.8125 26.5001V24.3901C21.8125 23.8739 21.3925 23.4539 20.875 23.4526C20.3575 23.4526 19.9375 23.8739 19.9375 24.3901Z" fill="#00BAEB"/>
<path fill-rule="evenodd" clip-rule="evenodd" d="M17.7269 22.6976L16.2356 24.1901C15.8694 24.5551 15.8694 25.1501 16.2356 25.5151C16.6006 25.8813 17.1956 25.8813 17.5606 25.5151L19.0531 24.0238C19.4181 23.6576 19.4181 23.0638 19.0531 22.6976C18.6869 22.3326 18.0931 22.3326 17.7269 22.6976Z" fill="#00BAEB"/>
<path fill-rule="evenodd" clip-rule="evenodd" d="M17.3588 19.9375H15.25C14.7325 19.9375 14.3125 20.3575 14.3125 20.875C14.3125 21.3925 14.7325 21.8125 15.25 21.8125H17.3588C17.8763 21.8125 18.2975 21.3925 18.2963 20.875C18.2963 20.3575 17.8763 19.9375 17.3588 19.9375Z" fill="#00BAEB"/>
<path fill-rule="evenodd" clip-rule="evenodd" d="M19.0531 17.7264L17.5606 16.2351C17.1956 15.8689 16.6006 15.8689 16.2356 16.2351C15.8694 16.6001 15.8694 17.1951 16.2356 17.5601L17.7269 19.0526C18.0931 19.4176 18.6869 19.4176 19.0531 19.0526C19.4181 18.6864 19.4181 18.0926 19.0531 17.7264Z" fill="#00BAEB"/>
<path fill-rule="evenodd" clip-rule="evenodd" d="M15.17 26.1948C14.5025 25.3373 14.5625 24.0936 15.3513 23.3061L15.5938 23.0623H15.25C14.0425 23.0623 13.0625 22.0823 13.0625 20.8748C13.0625 19.6673 14.0425 18.6873 15.25 18.6873H15.5938L15.3513 18.4436C14.5312 17.6248 14.4988 16.3136 15.2537 15.4548C14.6413 15.4073 14.0138 15.3823 13.375 15.3823C9.2225 15.3823 5.54625 16.4211 3.26375 17.9773C1.5225 19.1648 0.5625 20.6736 0.5625 22.2573V24.0698C0.5625 24.6336 0.78625 25.1748 1.185 25.5723C1.58375 25.9711 2.12375 26.1948 2.6875 26.1948H15.17Z" fill="#015EA5"/>
</svg>
