<svg width="20" height="20" viewBox="0 0 20 20" fill="none" xmlns="http://www.w3.org/2000/svg">
<path d="M7.14316 9.99995C7.84964 9.99995 8.54025 9.79045 9.12766 9.39794C9.71506 9.00543 10.1729 8.44754 10.4432 7.79483C10.7135 7.14212 10.7842 6.4239 10.6464 5.73101C10.5085 5.03812 10.1682 4.40167 9.66864 3.90216C9.16904 3.40265 8.53254 3.06251 7.83962 2.92476C7.1467 2.78701 6.4285 2.85783 5.77583 3.12827C5.12317 3.39872 4.56536 3.85663 4.17295 4.44411C3.78055 5.03158 3.57117 5.72223 3.57129 6.4287C3.57228 7.37566 3.94894 8.28354 4.6186 8.95308C5.28826 9.62262 6.19621 9.99913 7.14316 9.99995Z" fill="#D1BCE3"/>
<path d="M11.8156 12.9506C10.9105 12.0222 9.7492 11.3847 8.48003 11.1195C7.21086 10.8544 5.89145 10.9735 4.69033 11.4618C3.48921 11.9501 2.46091 12.7854 1.73679 13.8609C1.01266 14.9364 0.625586 16.2034 0.625 17.5C0.625 17.6658 0.690848 17.8247 0.808058 17.9419C0.925268 18.0591 1.08424 18.125 1.25 18.125H13.0375C13.2033 18.125 13.3622 18.0591 13.4794 17.9419C13.5967 17.8247 13.6625 17.6658 13.6625 17.5C13.6649 16.8373 13.5626 16.1783 13.3594 15.5475C13.0568 14.5723 12.5278 13.6824 11.8156 12.9506Z" fill="#00BAEB"/>
<path d="M14.6875 10.3125C16.1545 10.3125 17.3438 9.12326 17.3438 7.65625C17.3438 6.18924 16.1545 5 14.6875 5C13.2205 5 12.0312 6.18924 12.0312 7.65625C12.0312 9.12326 13.2205 10.3125 14.6875 10.3125Z" fill="#D1BCE3"/>
<path d="M14.6873 11.0437C13.8496 11.0468 13.028 11.275 12.3086 11.7043C12.4442 11.8256 12.5811 11.945 12.7092 12.0762C13.5602 12.9509 14.1924 14.0144 14.5542 15.18C14.6781 15.5637 14.7695 15.9571 14.8273 16.3562H18.7498C18.9156 16.3562 19.0746 16.2904 19.1918 16.1731C19.309 16.0559 19.3748 15.897 19.3748 15.7312C19.3735 14.4884 18.8792 13.2969 18.0004 12.4181C17.1217 11.5393 15.9301 11.045 14.6873 11.0437Z" fill="#00BAEB"/>
</svg>
