<svg width="20" height="20" viewBox="0 0 20 20" fill="none" xmlns="http://www.w3.org/2000/svg">
<g clip-path="url(#clip0_12496_86469)">
<rect x="2" y="3" width="7" height="2" fill="#015EA5"/>
<path d="M11.5535 8.83915C11.8495 8.66159 12.2334 8.75753 12.411 9.05353L13.7501 11.2853L15.0892 9.05353C15.2668 8.75753 15.6507 8.66159 15.9467 8.83915C16.2427 9.01678 16.3386 9.40065 16.161 9.69665L14.479 12.5001L16.161 15.3035C16.3386 15.5995 16.2427 15.9834 15.9467 16.161C15.6507 16.3386 15.2668 16.2426 15.0892 15.9466L13.7501 13.7148L12.411 15.9466C12.2334 16.2426 11.8495 16.3386 11.5535 16.161C11.2575 15.9834 11.1616 15.5995 11.3392 15.3035L13.0212 12.5001L11.3392 9.69665C11.1616 9.40065 11.2575 9.01678 11.5535 8.83915V8.83915Z" fill="#D1BCE3"/>
<path d="M4.375 8.75C4.72018 8.75 5 9.02981 5 9.375V13.125C5 14.1606 5.83947 15 6.875 15C7.91056 15 8.75 14.1606 8.75 13.125V9.375C8.75 9.02981 9.02981 8.75 9.375 8.75C9.72019 8.75 10 9.02981 10 9.375V13.125C10 14.8509 8.60087 16.25 6.875 16.25C5.14911 16.25 3.75 14.8509 3.75 13.125V9.375C3.75 9.02981 4.02982 8.75 4.375 8.75Z" fill="#D1BCE3"/>
<path fill-rule="evenodd" clip-rule="evenodd" d="M3.83875e-05 2.48788C0.00656131 1.45792 0.843512 0.625 1.875 0.625H18.125C19.1606 0.625 20 1.46447 20 2.5V17.5C20 18.5356 19.1606 19.375 18.125 19.375H1.875C0.839469 19.375 0 18.5356 0 17.5V2.5L3.83875e-05 2.48788ZM1.25 6.875V17.5C1.25 17.8452 1.52982 18.125 1.875 18.125H18.125C18.4702 18.125 18.75 17.8452 18.75 17.5V6.875H1.25ZM3.75 3.75C3.75 4.09518 3.47018 4.375 3.125 4.375C2.77982 4.375 2.5 4.09518 2.5 3.75C2.5 3.40482 2.77982 3.125 3.125 3.125C3.47018 3.125 3.75 3.40482 3.75 3.75ZM5 4.375C5.34518 4.375 5.625 4.09518 5.625 3.75C5.625 3.40482 5.34518 3.125 5 3.125C4.65482 3.125 4.375 3.40482 4.375 3.75C4.375 4.09518 4.65482 4.375 5 4.375ZM7.5 3.75C7.5 4.09518 7.22019 4.375 6.875 4.375C6.52981 4.375 6.25 4.09518 6.25 3.75C6.25 3.40482 6.52981 3.125 6.875 3.125C7.22019 3.125 7.5 3.40482 7.5 3.75Z" fill="#00BAEB"/>
</g>
<defs>
<clipPath id="clip0_12496_86469">
<rect width="20" height="20" fill="white"/>
</clipPath>
</defs>
</svg>
