<svg width="16" height="18" viewBox="0 0 16 18" fill="none" xmlns="http://www.w3.org/2000/svg">
<path d="M13.25 6V5.25C13.25 3.85761 12.6969 2.52226 11.7123 1.53769C10.7277 0.553124 9.39239 0 8 0C6.60761 0 5.27225 0.553124 4.28769 1.53769C3.30312 2.52226 2.75 3.85761 2.75 5.25V6H0.5V15.75C0.5 16.3467 0.737053 16.919 1.15901 17.341C1.58097 17.7629 2.15326 18 2.75 18H13.25C13.8467 18 14.419 17.7629 14.841 17.341C15.2629 16.919 15.5 16.3467 15.5 15.75V6H13.25ZM4.25 5.25C4.25 4.25544 4.64509 3.30161 5.34835 2.59835C6.05161 1.89509 7.00544 1.5 8 1.5C8.99456 1.5 9.94839 1.89509 10.6516 2.59835C11.3549 3.30161 11.75 4.25544 11.75 5.25V6H4.25V5.25ZM14 15.75C14 15.9489 13.921 16.1397 13.7803 16.2803C13.6397 16.421 13.4489 16.5 13.25 16.5H2.75C2.55109 16.5 2.36032 16.421 2.21967 16.2803C2.07902 16.1397 2 15.9489 2 15.75V7.5H14V15.75Z" fill="#889FB7"/>
<path d="M8.75001 10.4998H7.25V13.4998H8.75001V10.4998Z" fill="#889FB7"/>
</svg>
