<svg width="20" height="20" viewBox="0 0 20 20" fill="none" xmlns="http://www.w3.org/2000/svg">
<path d="M2.41669 18.3333H8.4173C8.83152 18.3333 9.16699 18.0002 9.16699 17.5888V8.2445C9.16699 7.83315 8.83152 7.5 8.4173 7.5H2.41669C2.00246 7.49899 1.66699 7.83315 1.66699 8.2445V17.5888C1.66699 18.0002 2.00246 18.3333 2.41669 18.3333Z" fill="#00BAEB"/>
<path d="M17.5843 7.5H11.5837C11.1695 7.5 10.834 7.83315 10.834 8.2445V17.5888C10.834 18.0002 11.1695 18.3333 11.5837 18.3333H17.5843C17.9985 18.3343 18.334 18.0012 18.334 17.5898V8.24552C18.334 7.83416 17.9985 7.5 17.5843 7.5Z" fill="#015EA5"/>
<path d="M17.5701 1.6665H2.43053C2.00866 1.6665 1.66699 2.00817 1.66699 2.43005V5.06859C1.66699 5.4915 2.00866 5.83317 2.43053 5.83317H17.5691C17.992 5.83317 18.3337 5.4915 18.3337 5.06963V2.43005C18.3337 2.00817 17.992 1.6665 17.5701 1.6665Z" fill="#D1BCE3"/>
</svg>
