<svg width="20" height="20" viewBox="0 0 20 20" fill="none" xmlns="http://www.w3.org/2000/svg">
<g clip-path="url(#clip0_12504_87345)">
<path d="M19.4138 18.8282H18.7888V7.26586C18.7888 6.94227 18.5265 6.67993 18.2029 6.67993H15.8592C15.5356 6.67993 15.2732 6.94227 15.2732 7.26586V18.8282H14.1014V11.1721C14.1014 10.8485 13.839 10.5861 13.5154 10.5861H11.1717C10.8481 10.5861 10.5858 10.8485 10.5858 11.1721V18.8282H9.41393V13.3205C9.41393 12.9969 9.15159 12.7345 8.828 12.7345H6.48429C6.1607 12.7345 5.89836 12.9969 5.89836 13.3205V18.8282H4.7265V14.7267C4.7265 14.4031 4.46416 14.1408 4.14057 14.1408H1.79685C1.47326 14.1408 1.21092 14.4031 1.21092 14.7267V18.8282H0.58593C0.26234 18.8282 0 19.0905 0 19.4141C0 19.7377 0.26234 20.0001 0.58593 20.0001H19.4138C19.7374 20.0001 19.9997 19.7377 19.9997 19.4141C19.9997 19.0905 19.7374 18.8282 19.4138 18.8282Z" fill="#00BAEB"/>
<path d="M0.585929 12.5899C4.24283 12.5899 8.20848 11.2766 11.7524 8.89184C14.528 7.02409 16.8416 4.63807 18.2788 2.19486L18.8479 4.31854C18.918 4.58033 19.2567 4.8065 19.5655 4.73283C19.8802 4.65775 20.0635 4.3278 19.9798 4.01522L19.0203 0.434412C18.9365 0.121878 18.6154 -0.0636667 18.3027 0.0201212L14.7219 0.9796C14.4093 1.06335 14.2238 1.38463 14.3076 1.69721C14.3914 2.00978 14.7125 2.19533 15.0252 2.1115L17.332 1.49338C15.9912 3.82327 13.7753 6.11808 11.0982 7.91958C7.74556 10.1756 4.01225 11.4181 0.585929 11.4181C0.26234 11.4181 0 11.6804 0 12.004C0 12.3276 0.26234 12.5899 0.585929 12.5899Z" fill="#D1BCE3"/>
</g>
<defs>
<clipPath id="clip0_12504_87345">
<rect width="20" height="20" fill="white"/>
</clipPath>
</defs>
</svg>
