<svg width="20" height="20" viewBox="0 0 20 20" fill="none" xmlns="http://www.w3.org/2000/svg">
<g clip-path="url(#clip0_12496_86460)">
<path d="M5.99981 6.17237H4.89534L7.90642 14.684L9.59211 9.86684L8.28518 6.17237H7.11986V5.36133H12.2802V6.17237H11.0718L14.0828 14.684L15.1652 11.5909C16.585 7.62811 14.0015 6.39369 14.0015 5.50929C14.0015 4.6249 14.7184 3.90799 15.6028 3.90799C15.6506 3.90799 15.6971 3.91059 15.7426 3.91483C14.2442 2.50027 12.2236 1.63281 10.0003 1.63281C7.0952 1.63281 4.53624 3.11362 3.03613 5.36133H5.99972V6.17237H5.99981Z" fill="#00BAEB"/>
<path d="M1.63281 10.0002C1.63281 13.2036 3.43332 15.986 6.07725 17.3921L2.30129 6.71826C1.87116 7.72596 1.63281 8.8352 1.63281 10.0002Z" fill="#00BAEB"/>
<path d="M17.2817 5.87695C17.4014 6.58166 17.3652 7.37371 17.1815 8.16884H17.2148L17.0883 8.53036C17.0133 8.7914 16.9189 9.05842 16.8117 9.3208L13.9326 17.3865C16.571 15.9788 18.3669 13.1993 18.3669 10C18.3669 8.50083 17.9723 7.09395 17.2817 5.87695Z" fill="#00BAEB"/>
<path d="M7.41992 17.9611C8.23279 18.2244 9.09985 18.3673 10.0005 18.3673C10.8595 18.3673 11.6882 18.2376 12.4683 17.9971L10.0208 11.0786L7.41992 17.9611Z" fill="#00BAEB"/>
<path d="M17.071 2.92892C15.1823 1.04018 12.6711 0 9.99996 0C7.32886 0 4.81766 1.04018 2.92892 2.92892C1.04018 4.81766 0 7.32886 0 10C0 12.6711 1.04018 15.1823 2.92892 17.071C4.81766 18.9598 7.3289 20 10 20C12.6711 20 15.1823 18.9598 17.0711 17.071C18.9598 15.1823 20 12.6711 20 10C20 7.32886 18.9598 4.81766 17.071 2.92892ZM9.99996 19.2945C4.87493 19.2945 0.705424 15.125 0.705424 10C0.705424 4.87498 4.87493 0.705424 9.99996 0.705424C15.125 0.705424 19.2945 4.87498 19.2945 10C19.2945 15.125 15.125 19.2945 9.99996 19.2945Z" fill="#015EA5"/>
</g>
<defs>
<clipPath id="clip0_12496_86460">
<rect width="20" height="20" fill="white"/>
</clipPath>
</defs>
</svg>
