<svg width="39" height="52" viewBox="0 0 39 52" fill="none" xmlns="http://www.w3.org/2000/svg">
<path d="M19.1405 25.3336V24.0009C19.1405 16.6365 10.5702 10.6655 0 10.6655V38.6645C0 46.029 8.57023 51.9976 19.1405 51.9976C29.7107 51.9976 38.281 46.029 38.281 38.6645C38.2787 31.3023 29.7107 25.3336 19.1405 25.3336Z" fill="url(#paint0_linear_20_37091)"/>
<path d="M19.1405 38.6667V39.9994C25.8207 39.9994 31.6995 42.3851 35.1227 45.9996C37.116 43.8958 38.2787 41.3771 38.2787 38.6667C38.2787 31.3023 29.7085 25.3336 19.1382 25.3336V24.0009C19.1405 16.6365 10.5702 10.6655 0 10.6655V25.3313C10.5702 25.3336 19.1405 31.3023 19.1405 38.6667Z" fill="url(#paint1_linear_20_37091)"/>
<path d="M38.2787 0C27.7084 0 19.1382 5.96869 19.1382 13.3332V23.9988V25.3314V38.6646C19.1382 43.5983 15.2886 47.9051 9.56909 50.2096C12.3839 51.3438 15.6522 51.9977 19.1382 51.9977C29.7085 51.9977 38.2787 46.0291 38.2787 38.6646V0Z" fill="url(#paint2_linear_20_37091)"/>
<defs>
<linearGradient id="paint0_linear_20_37091" x1="0" y1="31.3331" x2="38.2795" y2="31.3331" gradientUnits="userSpaceOnUse">
<stop stop-color="#1BB2E2"/>
<stop offset="0.00334227" stop-color="#1BB2E2"/>
<stop offset="0.313" stop-color="#3588C0"/>
<stop offset="0.5932" stop-color="#4769A8"/>
<stop offset="0.8316" stop-color="#525799"/>
<stop offset="1" stop-color="#565094"/>
</linearGradient>
<linearGradient id="paint1_linear_20_37091" x1="19.1398" y1="-0.447717" x2="19.1398" y2="39.4654" gradientUnits="userSpaceOnUse">
<stop stop-color="#1BB2E2"/>
<stop offset="0.00334227" stop-color="#1BB2E2"/>
<stop offset="0.313" stop-color="#3588C0"/>
<stop offset="0.5932" stop-color="#4769A8"/>
<stop offset="0.8316" stop-color="#525799"/>
<stop offset="1" stop-color="#565094"/>
</linearGradient>
<linearGradient id="paint2_linear_20_37091" x1="23.9247" y1="-15.3496" x2="23.9247" y2="45.0139" gradientUnits="userSpaceOnUse">
<stop stop-color="#565094"/>
<stop offset="1" stop-color="#1BB2E2"/>
</linearGradient>
</defs>
</svg>
